solid Untitled-53459cb5
facet normal 0.0 0.0 -1.0
  outer loop
    vertex -16.97056274847714 16.97056274847714 0.0
    vertex -17.070695904625115 -1.0452786549408488e-15 4.511946372076636e-14
    vertex -20.784609690826525 12.000000000000002 0.0
  endloop
endfacet
facet normal 0.0 0.0 -1.0
  outer loop
    vertex -17.070695904625115 -1.0452786549408488e-15 4.511946372076636e-14
    vertex -16.97056274847714 16.97056274847714 0.0
    vertex -16.48902604700443 4.418221213270582 4.511946372076636e-14
  endloop
endfacet
facet normal 0.0 0.0 -1.0
  outer loop
    vertex -16.48902604700443 4.418221213270582 4.511946372076636e-14
    vertex -16.97056274847714 16.97056274847714 0.0
    vertex -11.999999999999998 20.784609690826528 0.0
  endloop
endfacet
facet normal 0.0 0.0 -1.0
  outer loop
    vertex -16.48902604700443 4.418221213270582 4.511946372076636e-14
    vertex -11.999999999999998 20.784609690826528 0.0
    vertex -14.783656313684329 8.535347952312552 4.511946372076636e-14
  endloop
endfacet
facet normal 0.0 0.0 -1.0
  outer loop
    vertex -14.783656313684329 8.535347952312552 4.511946372076636e-14
    vertex -11.999999999999998 20.784609690826528 0.0
    vertex -12.070804833733844 12.070804833733842 4.511946372076636e-14
  endloop
endfacet
facet normal 0.0 0.0 -1.0
  outer loop
    vertex -12.070804833733844 12.070804833733842 4.511946372076636e-14
    vertex -11.999999999999998 20.784609690826528 0.0
    vertex -8.535347952312563 14.783656313684325 4.511946372076636e-14
  endloop
endfacet
facet normal 0.0 0.0 -1.0
  outer loop
    vertex -8.535347952312563 14.783656313684325 4.511946372076636e-14
    vertex -11.999999999999998 20.784609690826528 0.0
    vertex -6.211657082460497 23.18221983093764 0.0
  endloop
endfacet
facet normal 0.0 0.0 -1.0
  outer loop
    vertex -8.535347952312563 14.783656313684325 4.511946372076636e-14
    vertex -6.211657082460497 23.18221983093764 0.0
    vertex -4.418221213270589 16.489026047004426 4.511946372076636e-14
  endloop
endfacet
facet normal 0.0 0.0 -1.0
  outer loop
    vertex -4.418221213270589 16.489026047004426 4.511946372076636e-14
    vertex -6.211657082460497 23.18221983093764 0.0
    vertex 0.0 24.0 0.0
  endloop
endfacet
facet normal 0.0 0.0 -1.0
  outer loop
    vertex -4.418221213270589 16.489026047004426 4.511946372076636e-14
    vertex 0.0 24.0 0.0
    vertex -2.0905573098816976e-15 17.070695904625115 4.511946372076636e-14
  endloop
endfacet
facet normal 0.0 0.0 -1.0
  outer loop
    vertex -2.0905573098816976e-15 17.070695904625115 4.511946372076636e-14
    vertex 0.0 24.0 0.0
    vertex 4.418221213270577 16.48902604700443 4.511946372076636e-14
  endloop
endfacet
facet normal 0.0 0.0 -1.0
  outer loop
    vertex 4.418221213270577 16.48902604700443 4.511946372076636e-14
    vertex 0.0 24.0 0.0
    vertex 6.211657082460517 23.182219830937633 0.0
  endloop
endfacet
facet normal 0.0 0.0 -1.0
  outer loop
    vertex 4.418221213270577 16.48902604700443 4.511946372076636e-14
    vertex 6.211657082460517 23.182219830937633 0.0
    vertex 8.535347952312552 14.783656313684332 4.511946372076636e-14
  endloop
endfacet
facet normal 0.0 0.0 -1.0
  outer loop
    vertex 8.535347952312552 14.783656313684332 4.511946372076636e-14
    vertex 6.211657082460517 23.182219830937633 0.0
    vertex 12.00000000000001 20.78460969082652 0.0
  endloop
endfacet
facet normal 0.0 0.0 -1.0
  outer loop
    vertex 8.535347952312552 14.783656313684332 4.511946372076636e-14
    vertex 12.00000000000001 20.78460969082652 0.0
    vertex 12.070804833733837 12.070804833733849 4.511946372076636e-14
  endloop
endfacet
facet normal 0.0 0.0 -1.0
  outer loop
    vertex 12.070804833733837 12.070804833733849 4.511946372076636e-14
    vertex 12.00000000000001 20.78460969082652 0.0
    vertex 16.970562748477143 16.970562748477136 0.0
  endloop
endfacet
facet normal 0.0 0.0 -1.0
  outer loop
    vertex 12.070804833733837 12.070804833733849 4.511946372076636e-14
    vertex 16.970562748477143 16.970562748477136 0.0
    vertex 14.783656313684324 8.535347952312565 4.511946372076636e-14
  endloop
endfacet
facet normal 0.0 0.0 -1.0
  outer loop
    vertex 14.783656313684324 8.535347952312565 4.511946372076636e-14
    vertex 16.970562748477143 16.970562748477136 0.0
    vertex 16.489026047004423 4.418221213270597 4.511946372076636e-14
  endloop
endfacet
facet normal 0.0 0.0 -1.0
  outer loop
    vertex 16.489026047004423 4.418221213270597 4.511946372076636e-14
    vertex 16.970562748477143 16.970562748477136 0.0
    vertex 17.070695904625115 3.1358359648225466e-15 4.511946372076636e-14
  endloop
endfacet
facet normal 0.0 0.0 -1.0
  outer loop
    vertex 17.070695904625115 3.1358359648225466e-15 4.511946372076636e-14
    vertex 16.970562748477143 16.970562748477136 0.0
    vertex 20.784609690826535 11.999999999999984 0.0
  endloop
endfacet
facet normal 0.0 0.0 -1.0
  outer loop
    vertex 17.070695904625115 3.1358359648225466e-15 4.511946372076636e-14
    vertex 20.784609690826535 11.999999999999984 0.0
    vertex 20.78460969082652 -12.00000000000001 0.0
  endloop
endfacet
facet normal 0.0 0.0 -1.0
  outer loop
    vertex 20.78460969082652 -12.00000000000001 0.0
    vertex 20.784609690826535 11.999999999999984 0.0
    vertex 23.182219830937633 -6.211657082460516 0.0
  endloop
endfacet
facet normal 0.0 0.0 -1.0
  outer loop
    vertex 23.182219830937633 -6.211657082460516 0.0
    vertex 20.784609690826535 11.999999999999984 0.0
    vertex 23.18221983093764 6.211657082460486 0.0
  endloop
endfacet
facet normal 0.0 0.0 -1.0
  outer loop
    vertex 23.182219830937633 -6.211657082460516 0.0
    vertex 23.18221983093764 6.211657082460486 0.0
    vertex 24.0 -4.408728476930471e-15 0.0
  endloop
endfacet
facet normal 0.0 0.0 -1.0
  outer loop
    vertex -23.182219830937637 6.211657082460503 0.0
    vertex -23.18221983093764 -6.211657082460495 0.0
    vertex -24.0 1.4695761589768238e-15 0.0
  endloop
endfacet
facet normal 0.0 0.0 -1.0
  outer loop
    vertex -23.18221983093764 -6.211657082460495 0.0
    vertex -23.182219830937637 6.211657082460503 0.0
    vertex -20.784609690826528 -11.999999999999993 0.0
  endloop
endfacet
facet normal 0.0 0.0 -1.0
  outer loop
    vertex -20.784609690826528 -11.999999999999993 0.0
    vertex -23.182219830937637 6.211657082460503 0.0
    vertex -20.784609690826525 12.000000000000002 0.0
  endloop
endfacet
facet normal 0.0 0.0 -1.0
  outer loop
    vertex -20.784609690826528 -11.999999999999993 0.0
    vertex -20.784609690826525 12.000000000000002 0.0
    vertex -16.97056274847714 -16.97056274847714 0.0
  endloop
endfacet
facet normal 0.0 0.0 -1.0
  outer loop
    vertex -16.97056274847714 -16.97056274847714 0.0
    vertex -20.784609690826525 12.000000000000002 0.0
    vertex -17.070695904625115 -1.0452786549408488e-15 4.511946372076636e-14
  endloop
endfacet
facet normal 0.0 0.0 -1.0
  outer loop
    vertex -16.97056274847714 -16.97056274847714 0.0
    vertex -17.070695904625115 -1.0452786549408488e-15 4.511946372076636e-14
    vertex -16.489026047004426 -4.418221213270588 4.511946372076636e-14
  endloop
endfacet
facet normal 0.0 0.0 -1.0
  outer loop
    vertex -16.97056274847714 -16.97056274847714 0.0
    vertex -16.489026047004426 -4.418221213270588 4.511946372076636e-14
    vertex -12.000000000000007 -20.784609690826525 0.0
  endloop
endfacet
facet normal 0.0 0.0 -1.0
  outer loop
    vertex -12.000000000000007 -20.784609690826525 0.0
    vertex -16.489026047004426 -4.418221213270588 4.511946372076636e-14
    vertex -14.783656313684325 -8.53534795231256 4.511946372076636e-14
  endloop
endfacet
facet normal 0.0 0.0 -1.0
  outer loop
    vertex -12.000000000000007 -20.784609690826525 0.0
    vertex -14.783656313684325 -8.53534795231256 4.511946372076636e-14
    vertex -12.070804833733842 -12.070804833733844 4.511946372076636e-14
  endloop
endfacet
facet normal 0.0 0.0 -1.0
  outer loop
    vertex -12.000000000000007 -20.784609690826525 0.0
    vertex -12.070804833733842 -12.070804833733844 4.511946372076636e-14
    vertex -8.535347952312556 -14.783656313684329 4.511946372076636e-14
  endloop
endfacet
facet normal 0.0 0.0 -1.0
  outer loop
    vertex -12.000000000000007 -20.784609690826525 0.0
    vertex -8.535347952312556 -14.783656313684329 4.511946372076636e-14
    vertex -6.211657082460504 -23.182219830937637 0.0
  endloop
endfacet
facet normal 0.0 0.0 -1.0
  outer loop
    vertex -6.211657082460504 -23.182219830937637 0.0
    vertex -8.535347952312556 -14.783656313684329 4.511946372076636e-14
    vertex -4.418221213270583 -16.48902604700443 4.511946372076636e-14
  endloop
endfacet
facet normal 0.0 0.0 -1.0
  outer loop
    vertex -6.211657082460504 -23.182219830937637 0.0
    vertex -4.418221213270583 -16.48902604700443 4.511946372076636e-14
    vertex -2.9391523179536475e-15 -24.0 0.0
  endloop
endfacet
facet normal 0.0 0.0 -1.0
  outer loop
    vertex -2.9391523179536475e-15 -24.0 0.0
    vertex -4.418221213270583 -16.48902604700443 4.511946372076636e-14
    vertex 0.0 -17.070695904625115 4.511946372076636e-14
  endloop
endfacet
facet normal 0.0 0.0 -1.0
  outer loop
    vertex -2.9391523179536475e-15 -24.0 0.0
    vertex 0.0 -17.070695904625115 4.511946372076636e-14
    vertex 6.211657082460488 -23.18221983093764 0.0
  endloop
endfacet
facet normal 0.0 0.0 -1.0
  outer loop
    vertex 6.211657082460488 -23.18221983093764 0.0
    vertex 0.0 -17.070695904625115 4.511946372076636e-14
    vertex 4.418221213270598 -16.489026047004423 4.511946372076636e-14
  endloop
endfacet
facet normal 0.0 0.0 -1.0
  outer loop
    vertex 6.211657082460488 -23.18221983093764 0.0
    vertex 4.418221213270598 -16.489026047004423 4.511946372076636e-14
    vertex 8.535347952312565 -14.783656313684324 4.511946372076636e-14
  endloop
endfacet
facet normal 0.0 0.0 -1.0
  outer loop
    vertex 6.211657082460488 -23.18221983093764 0.0
    vertex 8.535347952312565 -14.783656313684324 4.511946372076636e-14
    vertex 11.999999999999993 -20.784609690826528 0.0
  endloop
endfacet
facet normal 0.0 0.0 -1.0
  outer loop
    vertex 11.999999999999993 -20.784609690826528 0.0
    vertex 8.535347952312565 -14.783656313684324 4.511946372076636e-14
    vertex 12.070804833733845 -12.07080483373384 4.511946372076636e-14
  endloop
endfacet
facet normal 0.0 0.0 -1.0
  outer loop
    vertex 11.999999999999993 -20.784609690826528 0.0
    vertex 12.070804833733845 -12.07080483373384 4.511946372076636e-14
    vertex 16.97056274847713 -16.97056274847715 0.0
  endloop
endfacet
facet normal 0.0 0.0 -1.0
  outer loop
    vertex 16.97056274847713 -16.97056274847715 0.0
    vertex 12.070804833733845 -12.07080483373384 4.511946372076636e-14
    vertex 14.783656313684334 -8.535347952312545 4.511946372076636e-14
  endloop
endfacet
facet normal 0.0 0.0 -1.0
  outer loop
    vertex 16.97056274847713 -16.97056274847715 0.0
    vertex 14.783656313684334 -8.535347952312545 4.511946372076636e-14
    vertex 16.48902604700443 -4.418221213270575 4.511946372076636e-14
  endloop
endfacet
facet normal 0.0 0.0 -1.0
  outer loop
    vertex 16.97056274847713 -16.97056274847715 0.0
    vertex 16.48902604700443 -4.418221213270575 4.511946372076636e-14
    vertex 17.070695904625115 3.1358359648225466e-15 4.511946372076636e-14
  endloop
endfacet
facet normal 0.0 0.0 -1.0
  outer loop
    vertex 16.97056274847713 -16.97056274847715 0.0
    vertex 17.070695904625115 3.1358359648225466e-15 4.511946372076636e-14
    vertex 20.78460969082652 -12.00000000000001 0.0
  endloop
endfacet
facet normal -5.292270027255553e-32 -4.6019739367439604e-32 1.0
  outer loop
    vertex -23.18221983093764 -6.211657082460495 42.66313935871049
    vertex -23.182219830937637 6.211657082460503 42.66313935871049
    vertex -24.0 1.4695761589768238e-15 42.66313935871049
  endloop
endfacet
facet normal -5.292270027255553e-32 -4.6019739367439604e-32 1.0
  outer loop
    vertex -23.182219830937637 6.211657082460503 42.66313935871049
    vertex -23.18221983093764 -6.211657082460495 42.66313935871049
    vertex -20.784609690826528 -11.999999999999993 42.66313935871049
  endloop
endfacet
facet normal -5.292270027255553e-32 -4.6019739367439604e-32 1.0
  outer loop
    vertex -23.182219830937637 6.211657082460503 42.66313935871049
    vertex -20.784609690826528 -11.999999999999993 42.66313935871049
    vertex -20.784609690826525 12.000000000000002 42.66313935871049
  endloop
endfacet
facet normal -5.292270027255553e-32 -4.6019739367439604e-32 1.0
  outer loop
    vertex -20.784609690826525 12.000000000000002 42.66313935871049
    vertex -20.784609690826528 -11.999999999999993 42.66313935871049
    vertex -16.97056274847714 -16.97056274847714 42.66313935871049
  endloop
endfacet
facet normal -5.292270027255553e-32 -4.6019739367439604e-32 1.0
  outer loop
    vertex -20.784609690826525 12.000000000000002 42.66313935871049
    vertex -16.97056274847714 -16.97056274847714 42.66313935871049
    vertex -17.070695904625115 -1.0452786549408488e-15 42.66313935871049
  endloop
endfacet
facet normal -5.292270027255553e-32 -4.6019739367439604e-32 1.0
  outer loop
    vertex -17.070695904625115 -1.0452786549408488e-15 42.66313935871049
    vertex -16.97056274847714 -16.97056274847714 42.66313935871049
    vertex -16.489026047004426 -4.418221213270588 42.66313935871049
  endloop
endfacet
facet normal -5.292270027255553e-32 -4.6019739367439604e-32 1.0
  outer loop
    vertex -16.489026047004426 -4.418221213270588 42.66313935871049
    vertex -16.97056274847714 -16.97056274847714 42.66313935871049
    vertex -12.000000000000007 -20.784609690826525 42.66313935871049
  endloop
endfacet
facet normal -5.292270027255553e-32 -4.6019739367439604e-32 1.0
  outer loop
    vertex -16.489026047004426 -4.418221213270588 42.66313935871049
    vertex -12.000000000000007 -20.784609690826525 42.66313935871049
    vertex -14.783656313684325 -8.53534795231256 42.66313935871049
  endloop
endfacet
facet normal -5.292270027255553e-32 -4.6019739367439604e-32 1.0
  outer loop
    vertex -14.783656313684325 -8.53534795231256 42.66313935871049
    vertex -12.000000000000007 -20.784609690826525 42.66313935871049
    vertex -12.070804833733842 -12.070804833733844 42.66313935871049
  endloop
endfacet
facet normal -5.292270027255553e-32 -4.6019739367439604e-32 1.0
  outer loop
    vertex -12.070804833733842 -12.070804833733844 42.66313935871049
    vertex -12.000000000000007 -20.784609690826525 42.66313935871049
    vertex -8.535347952312556 -14.783656313684329 42.66313935871049
  endloop
endfacet
facet normal -5.292270027255553e-32 -4.6019739367439604e-32 1.0
  outer loop
    vertex -8.535347952312556 -14.783656313684329 42.66313935871049
    vertex -12.000000000000007 -20.784609690826525 42.66313935871049
    vertex -6.211657082460504 -23.182219830937637 42.66313935871049
  endloop
endfacet
facet normal -5.292270027255553e-32 -4.6019739367439604e-32 1.0
  outer loop
    vertex -8.535347952312556 -14.783656313684329 42.66313935871049
    vertex -6.211657082460504 -23.182219830937637 42.66313935871049
    vertex -4.418221213270583 -16.48902604700443 42.66313935871049
  endloop
endfacet
facet normal -5.292270027255553e-32 -4.6019739367439604e-32 1.0
  outer loop
    vertex -4.418221213270583 -16.48902604700443 42.66313935871049
    vertex -6.211657082460504 -23.182219830937637 42.66313935871049
    vertex -2.9391523179536475e-15 -24.0 42.66313935871049
  endloop
endfacet
facet normal -5.292270027255553e-32 -4.6019739367439604e-32 1.0
  outer loop
    vertex -4.418221213270583 -16.48902604700443 42.66313935871049
    vertex -2.9391523179536475e-15 -24.0 42.66313935871049
    vertex 0.0 -17.070695904625115 42.66313935871049
  endloop
endfacet
facet normal -5.292270027255553e-32 -4.6019739367439604e-32 1.0
  outer loop
    vertex 0.0 -17.070695904625115 42.66313935871049
    vertex -2.9391523179536475e-15 -24.0 42.66313935871049
    vertex 6.211657082460488 -23.18221983093764 42.66313935871049
  endloop
endfacet
facet normal -5.292270027255553e-32 -4.6019739367439604e-32 1.0
  outer loop
    vertex 0.0 -17.070695904625115 42.66313935871049
    vertex 6.211657082460488 -23.18221983093764 42.66313935871049
    vertex 4.418221213270598 -16.489026047004423 42.66313935871049
  endloop
endfacet
facet normal -5.292270027255553e-32 -4.6019739367439604e-32 1.0
  outer loop
    vertex 4.418221213270598 -16.489026047004423 42.66313935871049
    vertex 6.211657082460488 -23.18221983093764 42.66313935871049
    vertex 8.535347952312565 -14.783656313684324 42.66313935871049
  endloop
endfacet
facet normal -5.292270027255553e-32 -4.6019739367439604e-32 1.0
  outer loop
    vertex 8.535347952312565 -14.783656313684324 42.66313935871049
    vertex 6.211657082460488 -23.18221983093764 42.66313935871049
    vertex 11.999999999999993 -20.784609690826528 42.66313935871049
  endloop
endfacet
facet normal -5.292270027255553e-32 -4.6019739367439604e-32 1.0
  outer loop
    vertex 8.535347952312565 -14.783656313684324 42.66313935871049
    vertex 11.999999999999993 -20.784609690826528 42.66313935871049
    vertex 12.070804833733845 -12.07080483373384 42.66313935871049
  endloop
endfacet
facet normal -5.292270027255553e-32 -4.6019739367439604e-32 1.0
  outer loop
    vertex 12.070804833733845 -12.07080483373384 42.66313935871049
    vertex 11.999999999999993 -20.784609690826528 42.66313935871049
    vertex 16.97056274847713 -16.97056274847715 42.66313935871049
  endloop
endfacet
facet normal -5.292270027255553e-32 -4.6019739367439604e-32 1.0
  outer loop
    vertex 12.070804833733845 -12.07080483373384 42.66313935871049
    vertex 16.97056274847713 -16.97056274847715 42.66313935871049
    vertex 14.783656313684334 -8.535347952312545 42.66313935871049
  endloop
endfacet
facet normal -5.292270027255553e-32 -4.6019739367439604e-32 1.0
  outer loop
    vertex 14.783656313684334 -8.535347952312545 42.66313935871049
    vertex 16.97056274847713 -16.97056274847715 42.66313935871049
    vertex 16.48902604700443 -4.418221213270575 42.66313935871049
  endloop
endfacet
facet normal -5.292270027255553e-32 -4.6019739367439604e-32 1.0
  outer loop
    vertex 16.48902604700443 -4.418221213270575 42.66313935871049
    vertex 16.97056274847713 -16.97056274847715 42.66313935871049
    vertex 17.070695904625115 3.1358359648225466e-15 42.66313935871049
  endloop
endfacet
facet normal -5.292270027255553e-32 -4.6019739367439604e-32 1.0
  outer loop
    vertex 17.070695904625115 3.1358359648225466e-15 42.66313935871049
    vertex 16.97056274847713 -16.97056274847715 42.66313935871049
    vertex 20.78460969082652 -12.00000000000001 42.66313935871049
  endloop
endfacet
facet normal -5.292270027255553e-32 -4.6019739367439604e-32 1.0
  outer loop
    vertex -17.070695904625115 -1.0452786549408488e-15 42.66313935871049
    vertex -16.97056274847714 16.97056274847714 42.66313935871049
    vertex -20.784609690826525 12.000000000000002 42.66313935871049
  endloop
endfacet
facet normal -5.292270027255553e-32 -4.6019739367439604e-32 1.0
  outer loop
    vertex -16.97056274847714 16.97056274847714 42.66313935871049
    vertex -17.070695904625115 -1.0452786549408488e-15 42.66313935871049
    vertex -16.48902604700443 4.418221213270582 42.66313935871049
  endloop
endfacet
facet normal -5.292270027255553e-32 -4.6019739367439604e-32 1.0
  outer loop
    vertex -16.97056274847714 16.97056274847714 42.66313935871049
    vertex -16.48902604700443 4.418221213270582 42.66313935871049
    vertex -11.999999999999998 20.784609690826528 42.66313935871049
  endloop
endfacet
facet normal -5.292270027255553e-32 -4.6019739367439604e-32 1.0
  outer loop
    vertex -11.999999999999998 20.784609690826528 42.66313935871049
    vertex -16.48902604700443 4.418221213270582 42.66313935871049
    vertex -14.783656313684329 8.535347952312552 42.66313935871049
  endloop
endfacet
facet normal -5.292270027255553e-32 -4.6019739367439604e-32 1.0
  outer loop
    vertex -11.999999999999998 20.784609690826528 42.66313935871049
    vertex -14.783656313684329 8.535347952312552 42.66313935871049
    vertex -12.070804833733844 12.070804833733842 42.66313935871049
  endloop
endfacet
facet normal -5.292270027255553e-32 -4.6019739367439604e-32 1.0
  outer loop
    vertex -11.999999999999998 20.784609690826528 42.66313935871049
    vertex -12.070804833733844 12.070804833733842 42.66313935871049
    vertex -8.535347952312563 14.783656313684325 42.66313935871049
  endloop
endfacet
facet normal -5.292270027255553e-32 -4.6019739367439604e-32 1.0
  outer loop
    vertex -11.999999999999998 20.784609690826528 42.66313935871049
    vertex -8.535347952312563 14.783656313684325 42.66313935871049
    vertex -6.211657082460497 23.18221983093764 42.66313935871049
  endloop
endfacet
facet normal -5.292270027255553e-32 -4.6019739367439604e-32 1.0
  outer loop
    vertex -6.211657082460497 23.18221983093764 42.66313935871049
    vertex -8.535347952312563 14.783656313684325 42.66313935871049
    vertex -4.418221213270589 16.489026047004426 42.66313935871049
  endloop
endfacet
facet normal -5.292270027255553e-32 -4.6019739367439604e-32 1.0
  outer loop
    vertex -6.211657082460497 23.18221983093764 42.66313935871049
    vertex -4.418221213270589 16.489026047004426 42.66313935871049
    vertex 0.0 24.0 42.66313935871049
  endloop
endfacet
facet normal -5.292270027255553e-32 -4.6019739367439604e-32 1.0
  outer loop
    vertex 0.0 24.0 42.66313935871049
    vertex -4.418221213270589 16.489026047004426 42.66313935871049
    vertex -2.0905573098816976e-15 17.070695904625115 42.66313935871049
  endloop
endfacet
facet normal -5.292270027255553e-32 -4.6019739367439604e-32 1.0
  outer loop
    vertex 0.0 24.0 42.66313935871049
    vertex -2.0905573098816976e-15 17.070695904625115 42.66313935871049
    vertex 4.418221213270577 16.48902604700443 42.66313935871049
  endloop
endfacet
facet normal -5.292270027255553e-32 -4.6019739367439604e-32 1.0
  outer loop
    vertex 0.0 24.0 42.66313935871049
    vertex 4.418221213270577 16.48902604700443 42.66313935871049
    vertex 6.211657082460517 23.182219830937633 42.66313935871049
  endloop
endfacet
facet normal -5.292270027255553e-32 -4.6019739367439604e-32 1.0
  outer loop
    vertex 6.211657082460517 23.182219830937633 42.66313935871049
    vertex 4.418221213270577 16.48902604700443 42.66313935871049
    vertex 8.535347952312552 14.783656313684332 42.66313935871049
  endloop
endfacet
facet normal -5.292270027255553e-32 -4.6019739367439604e-32 1.0
  outer loop
    vertex 6.211657082460517 23.182219830937633 42.66313935871049
    vertex 8.535347952312552 14.783656313684332 42.66313935871049
    vertex 12.00000000000001 20.78460969082652 42.66313935871049
  endloop
endfacet
facet normal -5.292270027255553e-32 -4.6019739367439604e-32 1.0
  outer loop
    vertex 12.00000000000001 20.78460969082652 42.66313935871049
    vertex 8.535347952312552 14.783656313684332 42.66313935871049
    vertex 12.070804833733837 12.070804833733849 42.66313935871049
  endloop
endfacet
facet normal -5.292270027255553e-32 -4.6019739367439604e-32 1.0
  outer loop
    vertex 12.00000000000001 20.78460969082652 42.66313935871049
    vertex 12.070804833733837 12.070804833733849 42.66313935871049
    vertex 16.970562748477143 16.970562748477136 42.66313935871049
  endloop
endfacet
facet normal -5.292270027255553e-32 -4.6019739367439604e-32 1.0
  outer loop
    vertex 16.970562748477143 16.970562748477136 42.66313935871049
    vertex 12.070804833733837 12.070804833733849 42.66313935871049
    vertex 14.783656313684324 8.535347952312565 42.66313935871049
  endloop
endfacet
facet normal -5.292270027255553e-32 -4.6019739367439604e-32 1.0
  outer loop
    vertex 16.970562748477143 16.970562748477136 42.66313935871049
    vertex 14.783656313684324 8.535347952312565 42.66313935871049
    vertex 16.489026047004423 4.418221213270597 42.66313935871049
  endloop
endfacet
facet normal -5.292270027255553e-32 -4.6019739367439604e-32 1.0
  outer loop
    vertex 16.970562748477143 16.970562748477136 42.66313935871049
    vertex 16.489026047004423 4.418221213270597 42.66313935871049
    vertex 17.070695904625115 3.1358359648225466e-15 42.66313935871049
  endloop
endfacet
facet normal -5.292270027255553e-32 -4.6019739367439604e-32 1.0
  outer loop
    vertex 16.970562748477143 16.970562748477136 42.66313935871049
    vertex 17.070695904625115 3.1358359648225466e-15 42.66313935871049
    vertex 20.784609690826535 11.999999999999984 42.66313935871049
  endloop
endfacet
facet normal -5.292270027255553e-32 -4.6019739367439604e-32 1.0
  outer loop
    vertex 20.784609690826535 11.999999999999984 42.66313935871049
    vertex 17.070695904625115 3.1358359648225466e-15 42.66313935871049
    vertex 20.78460969082652 -12.00000000000001 42.66313935871049
  endloop
endfacet
facet normal -5.292270027255553e-32 -4.6019739367439604e-32 1.0
  outer loop
    vertex 20.784609690826535 11.999999999999984 42.66313935871049
    vertex 20.78460969082652 -12.00000000000001 42.66313935871049
    vertex 23.182219830937633 -6.211657082460516 42.66313935871049
  endloop
endfacet
facet normal -5.292270027255553e-32 -4.6019739367439604e-32 1.0
  outer loop
    vertex 20.784609690826535 11.999999999999984 42.66313935871049
    vertex 23.182219830937633 -6.211657082460516 42.66313935871049
    vertex 23.18221983093764 6.211657082460486 42.66313935871049
  endloop
endfacet
facet normal -5.292270027255553e-32 -4.6019739367439604e-32 1.0
  outer loop
    vertex 23.18221983093764 6.211657082460486 42.66313935871049
    vertex 23.182219830937633 -6.211657082460516 42.66313935871049
    vertex 24.0 -4.408728476930471e-15 42.66313935871049
  endloop
endfacet
facet normal -3.475332859302293e-16 -1.0 0.0
  outer loop
    vertex -2.9391523179536475e-15 -24.0 42.66313935871049
    vertex -6.211657082460504 -23.182219830937637 0.0
    vertex -2.9391523179536475e-15 -24.0 0.0
  endloop
endfacet
facet normal -0.2588190451025208 -0.9659258262890682 0.0
  outer loop
    vertex -6.211657082460504 -23.182219830937637 0.0
    vertex -2.9391523179536475e-15 -24.0 42.66313935871049
    vertex -6.211657082460504 -23.182219830937637 42.66313935871049
  endloop
endfacet
facet normal -0.2588190451025208 -0.9659258262890682 0.0
  outer loop
    vertex -6.211657082460504 -23.182219830937637 42.66313935871049
    vertex -12.000000000000007 -20.784609690826525 0.0
    vertex -6.211657082460504 -23.182219830937637 0.0
  endloop
endfacet
facet normal -0.5000000000000002 -0.8660254037844385 0.0
  outer loop
    vertex -12.000000000000007 -20.784609690826525 0.0
    vertex -6.211657082460504 -23.182219830937637 42.66313935871049
    vertex -12.000000000000007 -20.784609690826525 42.66313935871049
  endloop
endfacet
facet normal -0.5000000000000002 -0.8660254037844385 0.0
  outer loop
    vertex -12.000000000000007 -20.784609690826525 42.66313935871049
    vertex -16.97056274847714 -16.97056274847714 0.0
    vertex -12.000000000000007 -20.784609690826525 0.0
  endloop
endfacet
facet normal -0.7071067811865477 -0.7071067811865475 0.0
  outer loop
    vertex -16.97056274847714 -16.97056274847714 0.0
    vertex -12.000000000000007 -20.784609690826525 42.66313935871049
    vertex -16.97056274847714 -16.97056274847714 42.66313935871049
  endloop
endfacet
facet normal -0.8660254037844387 -0.5 0.0
  outer loop
    vertex -20.784609690826528 -11.999999999999993 42.66313935871049
    vertex -16.97056274847714 -16.97056274847714 0.0
    vertex -16.97056274847714 -16.97056274847714 42.66313935871049
  endloop
endfacet
facet normal -0.7071067811865477 -0.7071067811865475 0.0
  outer loop
    vertex -16.97056274847714 -16.97056274847714 0.0
    vertex -20.784609690826528 -11.999999999999993 42.66313935871049
    vertex -20.784609690826528 -11.999999999999993 0.0
  endloop
endfacet
facet normal -0.9659258262890682 -0.25881904510252063 0.0
  outer loop
    vertex -23.18221983093764 -6.211657082460495 42.66313935871049
    vertex -20.784609690826528 -11.999999999999993 0.0
    vertex -20.784609690826528 -11.999999999999993 42.66313935871049
  endloop
endfacet
facet normal -0.8660254037844387 -0.5 0.0
  outer loop
    vertex -20.784609690826528 -11.999999999999993 0.0
    vertex -23.18221983093764 -6.211657082460495 42.66313935871049
    vertex -23.18221983093764 -6.211657082460495 0.0
  endloop
endfacet
facet normal -1.0 1.7822219791293813e-16 0.0
  outer loop
    vertex -24.0 1.4695761589768238e-15 42.66313935871049
    vertex -23.18221983093764 -6.211657082460495 0.0
    vertex -23.18221983093764 -6.211657082460495 42.66313935871049
  endloop
endfacet
facet normal -0.9659258262890682 -0.25881904510252063 0.0
  outer loop
    vertex -23.18221983093764 -6.211657082460495 0.0
    vertex -24.0 1.4695761589768238e-15 42.66313935871049
    vertex -24.0 1.4695761589768238e-15 0.0
  endloop
endfacet
facet normal -0.9659258262890682 0.2588190451025208 0.0
  outer loop
    vertex -23.182219830937637 6.211657082460503 42.66313935871049
    vertex -24.0 1.4695761589768238e-15 0.0
    vertex -24.0 1.4695761589768238e-15 42.66313935871049
  endloop
endfacet
facet normal -1.0 1.7822219791293813e-16 0.0
  outer loop
    vertex -24.0 1.4695761589768238e-15 0.0
    vertex -23.182219830937637 6.211657082460503 42.66313935871049
    vertex -23.182219830937637 6.211657082460503 0.0
  endloop
endfacet
facet normal -0.8660254037844386 0.5000000000000001 0.0
  outer loop
    vertex -20.784609690826525 12.000000000000002 42.66313935871049
    vertex -23.182219830937637 6.211657082460503 0.0
    vertex -23.182219830937637 6.211657082460503 42.66313935871049
  endloop
endfacet
facet normal -0.9659258262890682 0.2588190451025208 0.0
  outer loop
    vertex -23.182219830937637 6.211657082460503 0.0
    vertex -20.784609690826525 12.000000000000002 42.66313935871049
    vertex -20.784609690826525 12.000000000000002 0.0
  endloop
endfacet
facet normal -0.7071067811865475 0.7071067811865476 0.0
  outer loop
    vertex -16.97056274847714 16.97056274847714 42.66313935871049
    vertex -20.784609690826525 12.000000000000002 0.0
    vertex -20.784609690826525 12.000000000000002 42.66313935871049
  endloop
endfacet
facet normal -0.8660254037844386 0.5000000000000001 0.0
  outer loop
    vertex -20.784609690826525 12.000000000000002 0.0
    vertex -16.97056274847714 16.97056274847714 42.66313935871049
    vertex -16.97056274847714 16.97056274847714 0.0
  endloop
endfacet
facet normal -0.7071067811865475 0.7071067811865476 0.0
  outer loop
    vertex -16.97056274847714 16.97056274847714 42.66313935871049
    vertex -11.999999999999998 20.784609690826528 0.0
    vertex -16.97056274847714 16.97056274847714 0.0
  endloop
endfacet
facet normal -0.5 0.8660254037844386 0.0
  outer loop
    vertex -11.999999999999998 20.784609690826528 0.0
    vertex -16.97056274847714 16.97056274847714 42.66313935871049
    vertex -11.999999999999998 20.784609690826528 42.66313935871049
  endloop
endfacet
facet normal -0.5 0.8660254037844386 0.0
  outer loop
    vertex -11.999999999999998 20.784609690826528 42.66313935871049
    vertex -6.211657082460497 23.18221983093764 0.0
    vertex -11.999999999999998 20.784609690826528 0.0
  endloop
endfacet
facet normal -0.2588190451025206 0.9659258262890684 0.0
  outer loop
    vertex -6.211657082460497 23.18221983093764 0.0
    vertex -11.999999999999998 20.784609690826528 42.66313935871049
    vertex -6.211657082460497 23.18221983093764 42.66313935871049
  endloop
endfacet
facet normal -0.2588190451025206 0.9659258262890684 0.0
  outer loop
    vertex -6.211657082460497 23.18221983093764 42.66313935871049
    vertex 0.0 24.0 0.0
    vertex -6.211657082460497 23.18221983093764 0.0
  endloop
endfacet
facet normal 2.5842218697376027e-16 1.0 0.0
  outer loop
    vertex 0.0 24.0 0.0
    vertex -6.211657082460497 23.18221983093764 42.66313935871049
    vertex 0.0 24.0 42.66313935871049
  endloop
endfacet
facet normal 2.5842218697376027e-16 1.0 0.0
  outer loop
    vertex 0.0 24.0 42.66313935871049
    vertex 6.211657082460517 23.182219830937633 0.0
    vertex 0.0 24.0 0.0
  endloop
endfacet
facet normal 0.25881904510252124 0.9659258262890682 0.0
  outer loop
    vertex 6.211657082460517 23.182219830937633 0.0
    vertex 0.0 24.0 42.66313935871049
    vertex 6.211657082460517 23.182219830937633 42.66313935871049
  endloop
endfacet
facet normal 0.25881904510252124 0.9659258262890682 0.0
  outer loop
    vertex 6.211657082460517 23.182219830937633 42.66313935871049
    vertex 12.00000000000001 20.78460969082652 0.0
    vertex 6.211657082460517 23.182219830937633 0.0
  endloop
endfacet
facet normal 0.5000000000000006 0.8660254037844383 0.0
  outer loop
    vertex 12.00000000000001 20.78460969082652 0.0
    vertex 6.211657082460517 23.182219830937633 42.66313935871049
    vertex 12.00000000000001 20.78460969082652 42.66313935871049
  endloop
endfacet
facet normal 0.5000000000000006 0.8660254037844383 0.0
  outer loop
    vertex 12.00000000000001 20.78460969082652 42.66313935871049
    vertex 16.970562748477143 16.970562748477136 0.0
    vertex 12.00000000000001 20.78460969082652 0.0
  endloop
endfacet
facet normal 0.707106781186548 0.7071067811865471 0.0
  outer loop
    vertex 16.970562748477143 16.970562748477136 0.0
    vertex 12.00000000000001 20.78460969082652 42.66313935871049
    vertex 16.970562748477143 16.970562748477136 42.66313935871049
  endloop
endfacet
facet normal 0.707106781186548 0.7071067811865471 0.0
  outer loop
    vertex 16.970562748477143 16.970562748477136 0.0
    vertex 20.784609690826535 11.999999999999984 42.66313935871049
    vertex 20.784609690826535 11.999999999999984 0.0
  endloop
endfacet
facet normal 0.8660254037844389 0.4999999999999997 0.0
  outer loop
    vertex 20.784609690826535 11.999999999999984 42.66313935871049
    vertex 16.970562748477143 16.970562748477136 0.0
    vertex 16.970562748477143 16.970562748477136 42.66313935871049
  endloop
endfacet
facet normal 0.8660254037844389 0.4999999999999997 0.0
  outer loop
    vertex 20.784609690826535 11.999999999999984 0.0
    vertex 23.18221983093764 6.211657082460486 42.66313935871049
    vertex 23.18221983093764 6.211657082460486 0.0
  endloop
endfacet
facet normal 0.9659258262890684 0.2588190451025204 0.0
  outer loop
    vertex 23.18221983093764 6.211657082460486 42.66313935871049
    vertex 20.784609690826535 11.999999999999984 0.0
    vertex 20.784609690826535 11.999999999999984 42.66313935871049
  endloop
endfacet
facet normal 0.9659258262890684 0.2588190451025204 0.0
  outer loop
    vertex 23.18221983093764 6.211657082460486 0.0
    vertex 24.0 -4.408728476930471e-15 42.66313935871049
    vertex 24.0 -4.408728476930471e-15 0.0
  endloop
endfacet
facet normal 1.0 -4.3664438488669835e-16 0.0
  outer loop
    vertex 24.0 -4.408728476930471e-15 42.66313935871049
    vertex 23.18221983093764 6.211657082460486 0.0
    vertex 23.18221983093764 6.211657082460486 42.66313935871049
  endloop
endfacet
facet normal 1.0 -4.3664438488669835e-16 0.0
  outer loop
    vertex 24.0 -4.408728476930471e-15 0.0
    vertex 23.182219830937633 -6.211657082460516 42.66313935871049
    vertex 23.182219830937633 -6.211657082460516 0.0
  endloop
endfacet
facet normal 0.9659258262890682 -0.2588190451025212 0.0
  outer loop
    vertex 23.182219830937633 -6.211657082460516 42.66313935871049
    vertex 24.0 -4.408728476930471e-15 0.0
    vertex 24.0 -4.408728476930471e-15 42.66313935871049
  endloop
endfacet
facet normal 0.9659258262890682 -0.2588190451025212 0.0
  outer loop
    vertex 23.182219830937633 -6.211657082460516 0.0
    vertex 20.78460969082652 -12.00000000000001 42.66313935871049
    vertex 20.78460969082652 -12.00000000000001 0.0
  endloop
endfacet
facet normal 0.8660254037844384 -0.5000000000000006 0.0
  outer loop
    vertex 20.78460969082652 -12.00000000000001 42.66313935871049
    vertex 23.182219830937633 -6.211657082460516 0.0
    vertex 23.182219830937633 -6.211657082460516 42.66313935871049
  endloop
endfacet
facet normal 0.8660254037844384 -0.5000000000000006 0.0
  outer loop
    vertex 20.78460969082652 -12.00000000000001 0.0
    vertex 16.97056274847713 -16.97056274847715 42.66313935871049
    vertex 16.97056274847713 -16.97056274847715 0.0
  endloop
endfacet
facet normal 0.7071067811865471 -0.707106781186548 0.0
  outer loop
    vertex 16.97056274847713 -16.97056274847715 42.66313935871049
    vertex 20.78460969082652 -12.00000000000001 0.0
    vertex 20.78460969082652 -12.00000000000001 42.66313935871049
  endloop
endfacet
facet normal 0.7071067811865471 -0.707106781186548 0.0
  outer loop
    vertex 16.97056274847713 -16.97056274847715 42.66313935871049
    vertex 11.999999999999993 -20.784609690826528 0.0
    vertex 16.97056274847713 -16.97056274847715 0.0
  endloop
endfacet
facet normal 0.4999999999999998 -0.8660254037844388 0.0
  outer loop
    vertex 11.999999999999993 -20.784609690826528 0.0
    vertex 16.97056274847713 -16.97056274847715 42.66313935871049
    vertex 11.999999999999993 -20.784609690826528 42.66313935871049
  endloop
endfacet
facet normal 0.4999999999999998 -0.8660254037844388 0.0
  outer loop
    vertex 11.999999999999993 -20.784609690826528 42.66313935871049
    vertex 6.211657082460488 -23.18221983093764 0.0
    vertex 11.999999999999993 -20.784609690826528 0.0
  endloop
endfacet
facet normal 0.2588190451025206 -0.9659258262890684 0.0
  outer loop
    vertex 6.211657082460488 -23.18221983093764 0.0
    vertex 11.999999999999993 -20.784609690826528 42.66313935871049
    vertex 6.211657082460488 -23.18221983093764 42.66313935871049
  endloop
endfacet
facet normal 0.2588190451025206 -0.9659258262890684 0.0
  outer loop
    vertex 6.211657082460488 -23.18221983093764 42.66313935871049
    vertex -2.9391523179536475e-15 -24.0 0.0
    vertex 6.211657082460488 -23.18221983093764 0.0
  endloop
endfacet
facet normal -3.475332859302293e-16 -1.0 0.0
  outer loop
    vertex -2.9391523179536475e-15 -24.0 0.0
    vertex 6.211657082460488 -23.18221983093764 42.66313935871049
    vertex -2.9391523179536475e-15 -24.0 42.66313935871049
  endloop
endfacet
facet normal 0.25881904510252063 0.9659258262890682 0.0
  outer loop
    vertex -4.418221213270583 -16.48902604700443 42.66313935871049
    vertex 0.0 -17.070695904625115 4.511946372076636e-14
    vertex -4.418221213270583 -16.48902604700443 4.511946372076636e-14
  endloop
endfacet
facet normal -4.0099994530411073e-16 1.0 0.0
  outer loop
    vertex 0.0 -17.070695904625115 4.511946372076636e-14
    vertex -4.418221213270583 -16.48902604700443 42.66313935871049
    vertex 0.0 -17.070695904625115 42.66313935871049
  endloop
endfacet
facet normal -4.0099994530411073e-16 1.0 0.0
  outer loop
    vertex 0.0 -17.070695904625115 42.66313935871049
    vertex 4.418221213270598 -16.489026047004423 4.511946372076636e-14
    vertex 0.0 -17.070695904625115 4.511946372076636e-14
  endloop
endfacet
facet normal -0.2588190451025213 0.9659258262890682 0.0
  outer loop
    vertex 4.418221213270598 -16.489026047004423 4.511946372076636e-14
    vertex 0.0 -17.070695904625115 42.66313935871049
    vertex 4.418221213270598 -16.489026047004423 42.66313935871049
  endloop
endfacet
facet normal -0.2588190451025213 0.9659258262890682 0.0
  outer loop
    vertex 4.418221213270598 -16.489026047004423 42.66313935871049
    vertex 8.535347952312565 -14.783656313684324 4.511946372076636e-14
    vertex 4.418221213270598 -16.489026047004423 4.511946372076636e-14
  endloop
endfacet
facet normal -0.5000000000000004 0.8660254037844384 0.0
  outer loop
    vertex 8.535347952312565 -14.783656313684324 4.511946372076636e-14
    vertex 4.418221213270598 -16.489026047004423 42.66313935871049
    vertex 8.535347952312565 -14.783656313684324 42.66313935871049
  endloop
endfacet
facet normal -0.5000000000000004 0.8660254037844384 0.0
  outer loop
    vertex 8.535347952312565 -14.783656313684324 42.66313935871049
    vertex 12.070804833733845 -12.07080483373384 4.511946372076636e-14
    vertex 8.535347952312565 -14.783656313684324 4.511946372076636e-14
  endloop
endfacet
facet normal -0.7071067811865477 0.7071067811865472 0.0
  outer loop
    vertex 12.070804833733845 -12.07080483373384 4.511946372076636e-14
    vertex 8.535347952312565 -14.783656313684324 42.66313935871049
    vertex 12.070804833733845 -12.07080483373384 42.66313935871049
  endloop
endfacet
facet normal -0.8660254037844388 0.4999999999999997 0.0
  outer loop
    vertex 14.783656313684334 -8.535347952312545 42.66313935871049
    vertex 12.070804833733845 -12.07080483373384 4.511946372076636e-14
    vertex 12.070804833733845 -12.07080483373384 42.66313935871049
  endloop
endfacet
facet normal -0.7071067811865477 0.7071067811865472 0.0
  outer loop
    vertex 12.070804833733845 -12.07080483373384 4.511946372076636e-14
    vertex 14.783656313684334 -8.535347952312545 42.66313935871049
    vertex 14.783656313684334 -8.535347952312545 4.511946372076636e-14
  endloop
endfacet
facet normal -0.9659258262890684 0.2588190451025202 0.0
  outer loop
    vertex 16.48902604700443 -4.418221213270575 42.66313935871049
    vertex 14.783656313684334 -8.535347952312545 4.511946372076636e-14
    vertex 14.783656313684334 -8.535347952312545 42.66313935871049
  endloop
endfacet
facet normal -0.8660254037844388 0.4999999999999997 0.0
  outer loop
    vertex 14.783656313684334 -8.535347952312545 4.511946372076636e-14
    vertex 16.48902604700443 -4.418221213270575 42.66313935871049
    vertex 16.48902604700443 -4.418221213270575 4.511946372076636e-14
  endloop
endfacet
facet normal -1.0 -7.307110114430463e-16 0.0
  outer loop
    vertex 17.070695904625115 3.1358359648225466e-15 42.66313935871049
    vertex 16.48902604700443 -4.418221213270575 4.511946372076636e-14
    vertex 16.48902604700443 -4.418221213270575 42.66313935871049
  endloop
endfacet
facet normal -0.9659258262890684 0.2588190451025202 0.0
  outer loop
    vertex 16.48902604700443 -4.418221213270575 4.511946372076636e-14
    vertex 17.070695904625115 3.1358359648225466e-15 42.66313935871049
    vertex 17.070695904625115 3.1358359648225466e-15 4.511946372076636e-14
  endloop
endfacet
facet normal -0.9659258262890682 -0.25881904510252135 0.0
  outer loop
    vertex 16.489026047004423 4.418221213270597 42.66313935871049
    vertex 17.070695904625115 3.1358359648225466e-15 4.511946372076636e-14
    vertex 17.070695904625115 3.1358359648225466e-15 42.66313935871049
  endloop
endfacet
facet normal -1.0 -7.307110114430463e-16 0.0
  outer loop
    vertex 17.070695904625115 3.1358359648225466e-15 4.511946372076636e-14
    vertex 16.489026047004423 4.418221213270597 42.66313935871049
    vertex 16.489026047004423 4.418221213270597 4.511946372076636e-14
  endloop
endfacet
facet normal -0.8660254037844384 -0.5000000000000004 0.0
  outer loop
    vertex 14.783656313684324 8.535347952312565 42.66313935871049
    vertex 16.489026047004423 4.418221213270597 4.511946372076636e-14
    vertex 16.489026047004423 4.418221213270597 42.66313935871049
  endloop
endfacet
facet normal -0.9659258262890682 -0.25881904510252135 0.0
  outer loop
    vertex 16.489026047004423 4.418221213270597 4.511946372076636e-14
    vertex 14.783656313684324 8.535347952312565 42.66313935871049
    vertex 14.783656313684324 8.535347952312565 4.511946372076636e-14
  endloop
endfacet
facet normal -0.7071067811865475 -0.7071067811865477 0.0
  outer loop
    vertex 12.070804833733837 12.070804833733849 42.66313935871049
    vertex 14.783656313684324 8.535347952312565 4.511946372076636e-14
    vertex 14.783656313684324 8.535347952312565 42.66313935871049
  endloop
endfacet
facet normal -0.8660254037844384 -0.5000000000000004 0.0
  outer loop
    vertex 14.783656313684324 8.535347952312565 4.511946372076636e-14
    vertex 12.070804833733837 12.070804833733849 42.66313935871049
    vertex 12.070804833733837 12.070804833733849 4.511946372076636e-14
  endloop
endfacet
facet normal -0.7071067811865475 -0.7071067811865477 0.0
  outer loop
    vertex 12.070804833733837 12.070804833733849 42.66313935871049
    vertex 8.535347952312552 14.783656313684332 4.511946372076636e-14
    vertex 12.070804833733837 12.070804833733849 4.511946372076636e-14
  endloop
endfacet
facet normal -0.4999999999999999 -0.8660254037844387 0.0
  outer loop
    vertex 8.535347952312552 14.783656313684332 4.511946372076636e-14
    vertex 12.070804833733837 12.070804833733849 42.66313935871049
    vertex 8.535347952312552 14.783656313684332 42.66313935871049
  endloop
endfacet
facet normal -0.4999999999999999 -0.8660254037844387 0.0
  outer loop
    vertex 8.535347952312552 14.783656313684332 42.66313935871049
    vertex 4.418221213270577 16.48902604700443 4.511946372076636e-14
    vertex 8.535347952312552 14.783656313684332 4.511946372076636e-14
  endloop
endfacet
facet normal -0.2588190451025203 -0.9659258262890684 0.0
  outer loop
    vertex 4.418221213270577 16.48902604700443 4.511946372076636e-14
    vertex 8.535347952312552 14.783656313684332 42.66313935871049
    vertex 4.418221213270577 16.48902604700443 42.66313935871049
  endloop
endfacet
facet normal -0.2588190451025203 -0.9659258262890684 0.0
  outer loop
    vertex 4.418221213270577 16.48902604700443 42.66313935871049
    vertex -2.0905573098816976e-15 17.070695904625115 4.511946372076636e-14
    vertex 4.418221213270577 16.48902604700443 4.511946372076636e-14
  endloop
endfacet
facet normal 5.079332640518737e-16 -1.0 0.0
  outer loop
    vertex -2.0905573098816976e-15 17.070695904625115 4.511946372076636e-14
    vertex 4.418221213270577 16.48902604700443 42.66313935871049
    vertex -2.0905573098816976e-15 17.070695904625115 42.66313935871049
  endloop
endfacet
facet normal 5.079332640518737e-16 -1.0 0.0
  outer loop
    vertex -2.0905573098816976e-15 17.070695904625115 42.66313935871049
    vertex -4.418221213270589 16.489026047004426 4.511946372076636e-14
    vertex -2.0905573098816976e-15 17.070695904625115 4.511946372076636e-14
  endloop
endfacet
facet normal 0.25881904510252085 -0.9659258262890682 0.0
  outer loop
    vertex -4.418221213270589 16.489026047004426 4.511946372076636e-14
    vertex -2.0905573098816976e-15 17.070695904625115 42.66313935871049
    vertex -4.418221213270589 16.489026047004426 42.66313935871049
  endloop
endfacet
facet normal 0.25881904510252085 -0.9659258262890682 0.0
  outer loop
    vertex -4.418221213270589 16.489026047004426 42.66313935871049
    vertex -8.535347952312563 14.783656313684325 4.511946372076636e-14
    vertex -4.418221213270589 16.489026047004426 4.511946372076636e-14
  endloop
endfacet
facet normal 0.5 -0.8660254037844386 0.0
  outer loop
    vertex -8.535347952312563 14.783656313684325 4.511946372076636e-14
    vertex -4.418221213270589 16.489026047004426 42.66313935871049
    vertex -8.535347952312563 14.783656313684325 42.66313935871049
  endloop
endfacet
facet normal 0.5 -0.8660254037844386 0.0
  outer loop
    vertex -8.535347952312563 14.783656313684325 42.66313935871049
    vertex -12.070804833733844 12.070804833733842 4.511946372076636e-14
    vertex -8.535347952312563 14.783656313684325 4.511946372076636e-14
  endloop
endfacet
facet normal 0.7071067811865478 -0.7071067811865472 0.0
  outer loop
    vertex -12.070804833733844 12.070804833733842 4.511946372076636e-14
    vertex -8.535347952312563 14.783656313684325 42.66313935871049
    vertex -12.070804833733844 12.070804833733842 42.66313935871049
  endloop
endfacet
facet normal 0.7071067811865478 -0.7071067811865472 0.0
  outer loop
    vertex -12.070804833733844 12.070804833733842 4.511946372076636e-14
    vertex -14.783656313684329 8.535347952312552 42.66313935871049
    vertex -14.783656313684329 8.535347952312552 4.511946372076636e-14
  endloop
endfacet
facet normal 0.8660254037844388 -0.49999999999999994 0.0
  outer loop
    vertex -14.783656313684329 8.535347952312552 42.66313935871049
    vertex -12.070804833733844 12.070804833733842 4.511946372076636e-14
    vertex -12.070804833733844 12.070804833733842 42.66313935871049
  endloop
endfacet
facet normal 0.8660254037844388 -0.49999999999999994 0.0
  outer loop
    vertex -14.783656313684329 8.535347952312552 4.511946372076636e-14
    vertex -16.48902604700443 4.418221213270582 42.66313935871049
    vertex -16.48902604700443 4.418221213270582 4.511946372076636e-14
  endloop
endfacet
facet normal 0.9659258262890682 -0.25881904510252063 0.0
  outer loop
    vertex -16.48902604700443 4.418221213270582 42.66313935871049
    vertex -14.783656313684329 8.535347952312552 4.511946372076636e-14
    vertex -14.783656313684329 8.535347952312552 42.66313935871049
  endloop
endfacet
facet normal 0.9659258262890682 -0.25881904510252063 0.0
  outer loop
    vertex -16.48902604700443 4.418221213270582 4.511946372076636e-14
    vertex -17.070695904625115 -1.0452786549408488e-15 42.66313935871049
    vertex -17.070695904625115 -1.0452786549408488e-15 4.511946372076636e-14
  endloop
endfacet
facet normal 1.0 2.495110770781134e-16 0.0
  outer loop
    vertex -17.070695904625115 -1.0452786549408488e-15 42.66313935871049
    vertex -16.48902604700443 4.418221213270582 4.511946372076636e-14
    vertex -16.48902604700443 4.418221213270582 42.66313935871049
  endloop
endfacet
facet normal 1.0 2.495110770781134e-16 0.0
  outer loop
    vertex -17.070695904625115 -1.0452786549408488e-15 4.511946372076636e-14
    vertex -16.489026047004426 -4.418221213270588 42.66313935871049
    vertex -16.489026047004426 -4.418221213270588 4.511946372076636e-14
  endloop
endfacet
facet normal 0.9659258262890682 0.258819045102521 0.0
  outer loop
    vertex -16.489026047004426 -4.418221213270588 42.66313935871049
    vertex -17.070695904625115 -1.0452786549408488e-15 4.511946372076636e-14
    vertex -17.070695904625115 -1.0452786549408488e-15 42.66313935871049
  endloop
endfacet
facet normal 0.9659258262890682 0.258819045102521 0.0
  outer loop
    vertex -16.489026047004426 -4.418221213270588 4.511946372076636e-14
    vertex -14.783656313684325 -8.53534795231256 42.66313935871049
    vertex -14.783656313684325 -8.53534795231256 4.511946372076636e-14
  endloop
endfacet
facet normal 0.8660254037844386 0.5 0.0
  outer loop
    vertex -14.783656313684325 -8.53534795231256 42.66313935871049
    vertex -16.489026047004426 -4.418221213270588 4.511946372076636e-14
    vertex -16.489026047004426 -4.418221213270588 42.66313935871049
  endloop
endfacet
facet normal 0.8660254037844386 0.5 0.0
  outer loop
    vertex -14.783656313684325 -8.53534795231256 4.511946372076636e-14
    vertex -12.070804833733842 -12.070804833733844 42.66313935871049
    vertex -12.070804833733842 -12.070804833733844 4.511946372076636e-14
  endloop
endfacet
facet normal 0.7071067811865475 0.7071067811865475 0.0
  outer loop
    vertex -12.070804833733842 -12.070804833733844 42.66313935871049
    vertex -14.783656313684325 -8.53534795231256 4.511946372076636e-14
    vertex -14.783656313684325 -8.53534795231256 42.66313935871049
  endloop
endfacet
facet normal 0.7071067811865475 0.7071067811865475 0.0
  outer loop
    vertex -12.070804833733842 -12.070804833733844 42.66313935871049
    vertex -8.535347952312556 -14.783656313684329 4.511946372076636e-14
    vertex -12.070804833733842 -12.070804833733844 4.511946372076636e-14
  endloop
endfacet
facet normal 0.5 0.8660254037844387 0.0
  outer loop
    vertex -8.535347952312556 -14.783656313684329 4.511946372076636e-14
    vertex -12.070804833733842 -12.070804833733844 42.66313935871049
    vertex -8.535347952312556 -14.783656313684329 42.66313935871049
  endloop
endfacet
facet normal 0.5 0.8660254037844387 0.0
  outer loop
    vertex -8.535347952312556 -14.783656313684329 42.66313935871049
    vertex -4.418221213270583 -16.48902604700443 4.511946372076636e-14
    vertex -8.535347952312556 -14.783656313684329 4.511946372076636e-14
  endloop
endfacet
facet normal 0.25881904510252063 0.9659258262890682 0.0
  outer loop
    vertex -4.418221213270583 -16.48902604700443 4.511946372076636e-14
    vertex -8.535347952312556 -14.783656313684329 42.66313935871049
    vertex -4.418221213270583 -16.48902604700443 42.66313935871049
  endloop
endfacet
endsolid Untitled-53459cb5
