solid Untitled-5345a4c4
facet normal 0.0 0.0 -1.0
  outer loop
    vertex 238.8212556917328 476.1282949269461 0.0
    vertex -208.82149230826712 338.58257710737274 0.0
    vertex -208.82149230826712 476.1282949269461 0.0
  endloop
endfacet
facet normal 0.0 0.0 -1.0
  outer loop
    vertex -208.82149230826712 338.58257710737274 0.0
    vertex 238.8212556917328 476.1282949269461 0.0
    vertex -208.82149230826712 233.09698710737277 6.321984602465268e-14
  endloop
endfacet
facet normal 0.0 0.0 -1.0
  outer loop
    vertex -208.82149230826712 233.09698710737277 6.321984602465268e-14
    vertex 238.8212556917328 476.1282949269461 0.0
    vertex -208.82149230826712 -165.61999307305376 -1.4870949693339302e-15
  endloop
endfacet
facet normal 0.0 0.0 -1.0
  outer loop
    vertex -208.82149230826712 -165.61999307305376 -1.4870949693339302e-15
    vertex 238.8212556917328 476.1282949269461 0.0
    vertex 238.8212556917328 -165.61999307305376 -1.4870949693339302e-15
  endloop
endfacet
facet normal 0.0 0.0 -1.0
  outer loop
    vertex -208.82149230826712 338.58257710737274 0.0
    vertex -294.5937843082671 233.09698710737277 6.321984602465268e-14
    vertex -294.5937843082671 338.58257710737274 0.0
  endloop
endfacet
facet normal 0.0 0.0 -1.0
  outer loop
    vertex -294.5937843082671 233.09698710737277 6.321984602465268e-14
    vertex -208.82149230826712 338.58257710737274 0.0
    vertex -208.82149230826712 233.09698710737277 6.321984602465268e-14
  endloop
endfacet
facet normal 0.9999999999999999 0.0 0.0
  outer loop
    vertex 238.8212556917328 476.1282949269461 0.0
    vertex 238.8212556917328 -165.61999307305376 252.22215099999997
    vertex 238.8212556917328 -165.61999307305376 -1.4870949693339302e-15
  endloop
endfacet
facet normal 0.9999999999999999 0.0 0.0
  outer loop
    vertex 238.8212556917328 -165.61999307305376 252.22215099999997
    vertex 238.8212556917328 476.1282949269461 0.0
    vertex 238.8212556917328 476.1282949269461 252.22215099999997
  endloop
endfacet
facet normal -5.333176282714949e-19 -1.0 7.868189883402305e-17
  outer loop
    vertex 238.8212556917328 -165.61999307305376 252.22215099999997
    vertex -208.82149230826712 -165.61999307305376 -1.4870949693339302e-15
    vertex 238.8212556917328 -165.61999307305376 -1.4870949693339302e-15
  endloop
endfacet
facet normal -5.333176282714949e-19 -1.0 7.868189883402305e-17
  outer loop
    vertex -208.82149230826712 -165.61999307305376 -1.4870949693339302e-15
    vertex 238.8212556917328 -165.61999307305376 252.22215099999997
    vertex 44.03935966158343 -165.61999307305373 215.9784521784746
  endloop
endfacet
facet normal -5.333176282714949e-19 -1.0 7.868189883402305e-17
  outer loop
    vertex 44.03935966158343 -165.61999307305373 215.9784521784746
    vertex 238.8212556917328 -165.61999307305376 252.22215099999997
    vertex 44.03935966158343 -165.61999307305373 273.3043111784746
  endloop
endfacet
facet normal -5.333176282714949e-19 -1.0 7.868189883402305e-17
  outer loop
    vertex 44.03935966158343 -165.61999307305373 273.3043111784746
    vertex 238.8212556917328 -165.61999307305376 252.22215099999997
    vertex 7.774579223696282 -165.6199930730537 464.5250351671048
  endloop
endfacet
facet normal -5.333176282714949e-19 -1.0 7.868189883402305e-17
  outer loop
    vertex 44.03935966158343 -165.61999307305373 273.3043111784746
    vertex 7.774579223696282 -165.6199930730537 464.5250351671048
    vertex -35.070250338416564 -165.61999307305373 273.3043111784746
  endloop
endfacet
facet normal -5.333176282714949e-19 -1.0 7.868189883402305e-17
  outer loop
    vertex -208.82149230826712 -165.61999307305376 -1.4870949693339302e-15
    vertex -35.070250338416564 -165.61999307305373 215.9784521784746
    vertex -208.82149230826712 -165.61999307305376 252.22215099999997
  endloop
endfacet
facet normal -5.333176282714949e-19 -1.0 7.868189883402305e-17
  outer loop
    vertex -35.070250338416564 -165.61999307305373 215.9784521784746
    vertex -208.82149230826712 -165.61999307305376 -1.4870949693339302e-15
    vertex 44.03935966158343 -165.61999307305373 215.9784521784746
  endloop
endfacet
facet normal -5.333176282714949e-19 -1.0 7.868189883402305e-17
  outer loop
    vertex -208.82149230826712 -165.61999307305376 252.22215099999997
    vertex -35.070250338416564 -165.61999307305373 215.9784521784746
    vertex -35.070250338416564 -165.61999307305373 273.3043111784746
  endloop
endfacet
facet normal -5.333176282714949e-19 -1.0 7.868189883402305e-17
  outer loop
    vertex -208.82149230826712 -165.61999307305376 252.22215099999997
    vertex -35.070250338416564 -165.61999307305373 273.3043111784746
    vertex 7.774579223696282 -165.6199930730537 464.5250351671048
  endloop
endfacet
facet normal -0.0 1.0 -0.0
  outer loop
    vertex -208.82149230826712 476.1282949269461 252.22215099999997
    vertex 238.8212556917328 476.1282949269461 0.0
    vertex -208.82149230826712 476.1282949269461 0.0
  endloop
endfacet
facet normal -0.0 1.0 -0.0
  outer loop
    vertex 238.8212556917328 476.1282949269461 0.0
    vertex -208.82149230826712 476.1282949269461 252.22215099999997
    vertex 238.8212556917328 476.1282949269461 252.22215099999997
  endloop
endfacet
facet normal -0.0 1.0 -0.0
  outer loop
    vertex 238.8212556917328 476.1282949269461 252.22215099999997
    vertex -208.82149230826712 476.1282949269461 252.22215099999997
    vertex 7.774579223696282 476.1282949269461 464.5250351671048
  endloop
endfacet
facet normal 0.6766075296227207 -6.274155620542725e-19 0.7363438401031402
  outer loop
    vertex 238.8212556917328 -165.61999307305376 252.22215099999997
    vertex 7.774579223696282 476.1282949269461 464.5250351671048
    vertex 7.774579223696282 -165.6199930730537 464.5250351671048
  endloop
endfacet
facet normal 0.6766075296227207 -6.274155620542725e-19 0.7363438401031402
  outer loop
    vertex 7.774579223696282 476.1282949269461 464.5250351671048
    vertex 238.8212556917328 -165.61999307305376 252.22215099999997
    vertex 238.8212556917328 476.1282949269461 252.22215099999997
  endloop
endfacet
facet normal -0.0 -1.0 -0.0
  outer loop
    vertex -100.52345654228542 324.1427269269462 358.3735930835524
    vertex -154.67247442527628 324.1427269269462 444.1802210835523
    vertex -154.67247442527628 324.1427269269462 305.2978720417762
  endloop
endfacet
facet normal -0.0 -1.0 -0.0
  outer loop
    vertex -154.67247442527628 324.1427269269462 444.1802210835523
    vertex -100.52345654228542 324.1427269269462 358.3735930835524
    vertex -100.52345654228542 324.1427269269462 444.1802210835523
  endloop
endfacet
facet normal 0.0 0.0 1.0
  outer loop
    vertex -100.52345654228542 324.1427269269462 444.1802210835523
    vertex -154.67247442527628 423.94465692694627 444.1802210835523
    vertex -154.67247442527628 324.1427269269462 444.1802210835523
  endloop
endfacet
facet normal 0.0 0.0 1.0
  outer loop
    vertex -154.67247442527628 423.94465692694627 444.1802210835523
    vertex -100.52345654228542 324.1427269269462 444.1802210835523
    vertex -100.52345654228542 423.94465692694627 444.1802210835523
  endloop
endfacet
facet normal 1.0 0.0 0.0
  outer loop
    vertex -100.52345654228542 423.94465692694627 358.3735930835524
    vertex -100.52345654228542 324.1427269269462 444.1802210835523
    vertex -100.52345654228542 324.1427269269462 358.3735930835524
  endloop
endfacet
facet normal 1.0 0.0 0.0
  outer loop
    vertex -100.52345654228542 324.1427269269462 444.1802210835523
    vertex -100.52345654228542 423.94465692694627 358.3735930835524
    vertex -100.52345654228542 423.94465692694627 444.1802210835523
  endloop
endfacet
facet normal -0.6999937252814619 -0.0 0.7141489932546156
  outer loop
    vertex -100.52345654228542 324.1427269269462 358.3735930835524
    vertex -154.67247442527628 423.94465692694627 305.2978720417762
    vertex -154.67247442527628 324.1427269269462 305.2978720417762
  endloop
endfacet
facet normal -0.6999937252814619 -0.0 0.7141489932546156
  outer loop
    vertex -154.67247442527628 423.94465692694627 305.2978720417762
    vertex -100.52345654228542 324.1427269269462 358.3735930835524
    vertex -100.52345654228542 423.94465692694627 358.3735930835524
  endloop
endfacet
facet normal -1.0 0.0 0.0
  outer loop
    vertex -154.67247442527628 423.94465692694627 444.1802210835523
    vertex -154.67247442527628 324.1427269269462 305.2978720417762
    vertex -154.67247442527628 324.1427269269462 444.1802210835523
  endloop
endfacet
facet normal -1.0 0.0 0.0
  outer loop
    vertex -154.67247442527628 324.1427269269462 305.2978720417762
    vertex -154.67247442527628 423.94465692694627 444.1802210835523
    vertex -154.67247442527628 423.94465692694627 305.2978720417762
  endloop
endfacet
facet normal 0.0 1.0 0.0
  outer loop
    vertex -154.67247442527628 423.94465692694627 444.1802210835523
    vertex -100.52345654228542 423.94465692694627 358.3735930835524
    vertex -154.67247442527628 423.94465692694627 305.2978720417762
  endloop
endfacet
facet normal 0.0 1.0 0.0
  outer loop
    vertex -100.52345654228542 423.94465692694627 358.3735930835524
    vertex -154.67247442527628 423.94465692694627 444.1802210835523
    vertex -100.52345654228542 423.94465692694627 444.1802210835523
  endloop
endfacet
facet normal -0.6999937252814622 2.2488486955749933e-17 0.7141489932546153
  outer loop
    vertex 7.774579223696282 -165.6199930730537 464.5250351671048
    vertex -208.82149230826712 476.1282949269461 252.22215099999997
    vertex -208.82149230826712 -165.61999307305376 252.22215099999997
  endloop
endfacet
facet normal -0.6999937252814622 2.2488486955749933e-17 0.7141489932546153
  outer loop
    vertex -208.82149230826712 476.1282949269461 252.22215099999997
    vertex 7.774579223696282 -165.6199930730537 464.5250351671048
    vertex -154.67247442527628 324.1427269269462 305.2978720417762
  endloop
endfacet
facet normal -0.6999937252814622 2.2488486955749933e-17 0.7141489932546153
  outer loop
    vertex -154.67247442527628 324.1427269269462 305.2978720417762
    vertex 7.774579223696282 -165.6199930730537 464.5250351671048
    vertex -100.52345654228542 324.1427269269462 358.3735930835524
  endloop
endfacet
facet normal -0.6999937252814622 2.2488486955749933e-17 0.7141489932546153
  outer loop
    vertex -100.52345654228542 324.1427269269462 358.3735930835524
    vertex 7.774579223696282 -165.6199930730537 464.5250351671048
    vertex -100.52345654228542 423.94465692694627 358.3735930835524
  endloop
endfacet
facet normal -0.6999937252814622 2.2488486955749933e-17 0.7141489932546153
  outer loop
    vertex -208.82149230826712 476.1282949269461 252.22215099999997
    vertex -154.67247442527628 423.94465692694627 305.2978720417762
    vertex 7.774579223696282 476.1282949269461 464.5250351671048
  endloop
endfacet
facet normal -0.6999937252814622 2.2488486955749933e-17 0.7141489932546153
  outer loop
    vertex -154.67247442527628 423.94465692694627 305.2978720417762
    vertex -208.82149230826712 476.1282949269461 252.22215099999997
    vertex -154.67247442527628 324.1427269269462 305.2978720417762
  endloop
endfacet
facet normal -0.6999937252814622 2.2488486955749933e-17 0.7141489932546153
  outer loop
    vertex 7.774579223696282 476.1282949269461 464.5250351671048
    vertex -154.67247442527628 423.94465692694627 305.2978720417762
    vertex -100.52345654228542 423.94465692694627 358.3735930835524
  endloop
endfacet
facet normal -0.6999937252814622 2.2488486955749933e-17 0.7141489932546153
  outer loop
    vertex 7.774579223696282 476.1282949269461 464.5250351671048
    vertex -100.52345654228542 423.94465692694627 358.3735930835524
    vertex 7.774579223696282 -165.6199930730537 464.5250351671048
  endloop
endfacet
facet normal -1.0 0.0 0.0
  outer loop
    vertex -294.5937843082671 338.5825771073727 15.355667500000155
    vertex -294.5937843082671 233.09698710737277 6.321984602465268e-14
    vertex -294.5937843082671 233.09698710737277 15.355667500000054
  endloop
endfacet
facet normal -1.0 0.0 0.0
  outer loop
    vertex -294.5937843082671 233.09698710737277 6.321984602465268e-14
    vertex -294.5937843082671 338.5825771073727 15.355667500000155
    vertex -294.5937843082671 338.58257710737274 0.0
  endloop
endfacet
facet normal -1.0 0.0 0.0
  outer loop
    vertex -261.6856673082671 338.58257710737274 30.399095000000006
    vertex -261.6856673082671 233.09698710737277 15.355667500000054
    vertex -261.6856673082671 233.09698710737277 30.39909500000004
  endloop
endfacet
facet normal -1.0 0.0 0.0
  outer loop
    vertex -261.6856673082671 233.09698710737277 15.355667500000054
    vertex -261.6856673082671 338.58257710737274 30.399095000000006
    vertex -261.6856673082671 338.5825771073727 15.355667500000155
  endloop
endfacet
facet normal -1.438192574419005e-16 1.0 1.6702940816897918e-16
  outer loop
    vertex -294.5937843082671 338.5825771073727 15.355667500000155
    vertex -208.82149230826712 338.58257710737274 0.0
    vertex -294.5937843082671 338.58257710737274 0.0
  endloop
endfacet
facet normal -1.438192574419005e-16 1.0 1.6702940816897918e-16
  outer loop
    vertex -208.82149230826712 338.58257710737274 0.0
    vertex -294.5937843082671 338.5825771073727 15.355667500000155
    vertex -261.6856673082671 338.5825771073727 15.355667500000155
  endloop
endfacet
facet normal -1.438192574419005e-16 1.0 1.6702940816897918e-16
  outer loop
    vertex -208.82149230826712 338.58257710737274 0.0
    vertex -261.6856673082671 338.5825771073727 15.355667500000155
    vertex -208.82149230826712 338.58257710737274 30.399095000000006
  endloop
endfacet
facet normal -1.438192574419005e-16 1.0 1.6702940816897918e-16
  outer loop
    vertex -208.82149230826712 338.58257710737274 30.399095000000006
    vertex -261.6856673082671 338.5825771073727 15.355667500000155
    vertex -261.6856673082671 338.58257710737274 30.399095000000006
  endloop
endfacet
facet normal 9.755317063743394e-17 1.91472458101047e-16 1.0
  outer loop
    vertex -208.82149230826712 233.09698710737277 30.39909500000004
    vertex -261.6856673082671 338.58257710737274 30.399095000000006
    vertex -261.6856673082671 233.09698710737277 30.39909500000004
  endloop
endfacet
facet normal 9.755317063743394e-17 1.91472458101047e-16 1.0
  outer loop
    vertex -261.6856673082671 338.58257710737274 30.399095000000006
    vertex -208.82149230826712 233.09698710737277 30.39909500000004
    vertex -208.82149230826712 338.58257710737274 30.399095000000006
  endloop
endfacet
facet normal 9.755317063743394e-17 1.91472458101047e-16 1.0
  outer loop
    vertex -208.82149230826712 338.58257710737274 30.399095000000006
    vertex -208.82149230826712 233.09698710737277 30.39909500000004
    vertex -208.82149230826712 233.3933301073728 30.399095000000006
  endloop
endfacet
facet normal 9.755317063743394e-17 1.91472458101047e-16 1.0
  outer loop
    vertex -208.82149230826712 338.58257710737274 30.399095000000006
    vertex -208.82149230826712 233.3933301073728 30.399095000000006
    vertex -192.84089830826713 233.3933301073728 30.399095000000006
  endloop
endfacet
facet normal 9.755317063743394e-17 1.91472458101047e-16 1.0
  outer loop
    vertex -208.82149230826712 338.58257710737274 30.399095000000006
    vertex -192.84089830826713 233.3933301073728 30.399095000000006
    vertex -192.84089830826713 338.58257710737274 30.399095000000006
  endloop
endfacet
facet normal 0.0 -1.0 0.0
  outer loop
    vertex -208.82149230826712 233.09698710737277 30.39909500000004
    vertex -294.5937843082671 233.09698710737277 6.321984602465268e-14
    vertex -208.82149230826712 233.09698710737277 6.321984602465268e-14
  endloop
endfacet
facet normal 0.0 -1.0 0.0
  outer loop
    vertex -294.5937843082671 233.09698710737277 6.321984602465268e-14
    vertex -208.82149230826712 233.09698710737277 30.39909500000004
    vertex -261.6856673082671 233.09698710737277 15.355667500000054
  endloop
endfacet
facet normal 0.0 -1.0 0.0
  outer loop
    vertex -261.6856673082671 233.09698710737277 15.355667500000054
    vertex -208.82149230826712 233.09698710737277 30.39909500000004
    vertex -261.6856673082671 233.09698710737277 30.39909500000004
  endloop
endfacet
facet normal 0.0 -1.0 0.0
  outer loop
    vertex -294.5937843082671 233.09698710737277 15.355667500000054
    vertex -294.5937843082671 233.09698710737277 6.321984602465268e-14
    vertex -261.6856673082671 233.09698710737277 15.355667500000054
  endloop
endfacet
facet normal -1.0 0.0 0.0
  outer loop
    vertex -208.82149230826712 -165.61999307305376 252.22215099999997
    vertex -208.82149230826712 -83.55962615083108 222.73227507718124
    vertex -208.82149230826712 -165.61999307305376 -1.4870949693339302e-15
  endloop
endfacet
facet normal -1.0 0.0 0.0
  outer loop
    vertex -208.82149230826712 -83.55962615083108 222.73227507718124
    vertex -208.82149230826712 -165.61999307305376 252.22215099999997
    vertex -208.82149230826712 476.1282949269461 252.22215099999997
  endloop
endfacet
facet normal -1.0 0.0 0.0
  outer loop
    vertex -208.82149230826712 -83.55962615083108 222.73227507718124
    vertex -208.82149230826712 476.1282949269461 252.22215099999997
    vertex -208.82149230826712 -0.03647615083107834 222.73227507718124
  endloop
endfacet
facet normal -1.0 0.0 0.0
  outer loop
    vertex -208.82149230826712 -0.03647615083107834 222.73227507718124
    vertex -208.82149230826712 476.1282949269461 252.22215099999997
    vertex -208.82149230826712 26.552564769255305 223.76723481345067
  endloop
endfacet
facet normal -1.0 0.0 0.0
  outer loop
    vertex -208.82149230826712 -0.03647615083107834 222.73227507718124
    vertex -208.82149230826712 26.552564769255305 223.76723481345067
    vertex -208.82149230826712 -0.03647615083107834 157.01805207718124
  endloop
endfacet
facet normal -1.0 0.0 0.0
  outer loop
    vertex -208.82149230826712 26.552564769255305 223.76723481345067
    vertex -208.82149230826712 476.1282949269461 252.22215099999997
    vertex -208.82149230826712 110.0757147692553 223.76723481345067
  endloop
endfacet
facet normal -1.0 0.0 0.0
  outer loop
    vertex -208.82149230826712 110.0757147692553 223.76723481345067
    vertex -208.82149230826712 476.1282949269461 252.22215099999997
    vertex -208.82149230826712 110.0757147692553 158.05301181345067
  endloop
endfacet
facet normal -1.0 0.0 0.0
  outer loop
    vertex -208.82149230826712 110.0757147692553 158.05301181345067
    vertex -208.82149230826712 476.1282949269461 252.22215099999997
    vertex -208.82149230826712 233.3933301073728 144.029463
  endloop
endfacet
facet normal -1.0 0.0 0.0
  outer loop
    vertex -208.82149230826712 110.0757147692553 158.05301181345067
    vertex -208.82149230826712 233.3933301073728 144.029463
    vertex -208.82149230826712 233.09698710737277 30.39909500000004
  endloop
endfacet
facet normal -1.0 0.0 0.0
  outer loop
    vertex -208.82149230826712 233.3933301073728 144.029463
    vertex -208.82149230826712 476.1282949269461 252.22215099999997
    vertex -208.82149230826712 338.58257710737274 144.029463
  endloop
endfacet
facet normal -1.0 0.0 0.0
  outer loop
    vertex -208.82149230826712 338.58257710737274 144.029463
    vertex -208.82149230826712 476.1282949269461 252.22215099999997
    vertex -208.82149230826712 338.58257710737274 30.399095000000006
  endloop
endfacet
facet normal -1.0 0.0 0.0
  outer loop
    vertex -208.82149230826712 338.58257710737274 30.399095000000006
    vertex -208.82149230826712 476.1282949269461 252.22215099999997
    vertex -208.82149230826712 338.58257710737274 0.0
  endloop
endfacet
facet normal -1.0 0.0 0.0
  outer loop
    vertex -208.82149230826712 338.58257710737274 0.0
    vertex -208.82149230826712 476.1282949269461 252.22215099999997
    vertex -208.82149230826712 476.1282949269461 0.0
  endloop
endfacet
facet normal -1.0 0.0 0.0
  outer loop
    vertex -208.82149230826712 233.3933301073728 30.399095000000006
    vertex -208.82149230826712 233.09698710737277 30.39909500000004
    vertex -208.82149230826712 233.3933301073728 144.029463
  endloop
endfacet
facet normal -1.0 0.0 0.0
  outer loop
    vertex -208.82149230826712 -165.61999307305376 -1.4870949693339302e-15
    vertex -208.82149230826712 -83.55962615083108 157.01805207718124
    vertex -208.82149230826712 233.09698710737277 6.321984602465268e-14
  endloop
endfacet
facet normal -1.0 0.0 0.0
  outer loop
    vertex -208.82149230826712 -83.55962615083108 157.01805207718124
    vertex -208.82149230826712 -165.61999307305376 -1.4870949693339302e-15
    vertex -208.82149230826712 -83.55962615083108 222.73227507718124
  endloop
endfacet
facet normal -1.0 0.0 0.0
  outer loop
    vertex -208.82149230826712 233.09698710737277 6.321984602465268e-14
    vertex -208.82149230826712 -83.55962615083108 157.01805207718124
    vertex -208.82149230826712 -0.03647615083107834 157.01805207718124
  endloop
endfacet
facet normal -1.0 0.0 0.0
  outer loop
    vertex -208.82149230826712 233.09698710737277 6.321984602465268e-14
    vertex -208.82149230826712 -0.03647615083107834 157.01805207718124
    vertex -208.82149230826712 26.552564769255305 158.05301181345067
  endloop
endfacet
facet normal -1.0 0.0 0.0
  outer loop
    vertex -208.82149230826712 26.552564769255305 158.05301181345067
    vertex -208.82149230826712 -0.03647615083107834 157.01805207718124
    vertex -208.82149230826712 26.552564769255305 223.76723481345067
  endloop
endfacet
facet normal -1.0 0.0 0.0
  outer loop
    vertex -208.82149230826712 233.09698710737277 6.321984602465268e-14
    vertex -208.82149230826712 26.552564769255305 158.05301181345067
    vertex -208.82149230826712 110.0757147692553 158.05301181345067
  endloop
endfacet
facet normal -1.0 0.0 0.0
  outer loop
    vertex -208.82149230826712 233.09698710737277 6.321984602465268e-14
    vertex -208.82149230826712 110.0757147692553 158.05301181345067
    vertex -208.82149230826712 233.09698710737277 30.39909500000004
  endloop
endfacet
facet normal -1.0 0.0 0.0
  outer loop
    vertex -192.84089830826713 338.58257710737274 144.029463
    vertex -192.84089830826713 233.3933301073728 30.399095000000006
    vertex -192.84089830826713 233.3933301073728 144.029463
  endloop
endfacet
facet normal -1.0 0.0 0.0
  outer loop
    vertex -192.84089830826713 233.3933301073728 30.399095000000006
    vertex -192.84089830826713 338.58257710737274 144.029463
    vertex -192.84089830826713 338.58257710737274 30.399095000000006
  endloop
endfacet
facet normal -0.0 1.0 -0.0
  outer loop
    vertex -208.82149230826712 233.3933301073728 144.029463
    vertex -192.84089830826713 233.3933301073728 30.399095000000006
    vertex -208.82149230826712 233.3933301073728 30.399095000000006
  endloop
endfacet
facet normal -0.0 1.0 -0.0
  outer loop
    vertex -192.84089830826713 233.3933301073728 30.399095000000006
    vertex -208.82149230826712 233.3933301073728 144.029463
    vertex -192.84089830826713 233.3933301073728 144.029463
  endloop
endfacet
facet normal -0.0 0.0 -1.0
  outer loop
    vertex -192.84089830826713 338.58257710737274 144.029463
    vertex -208.82149230826712 233.3933301073728 144.029463
    vertex -208.82149230826712 338.58257710737274 144.029463
  endloop
endfacet
facet normal -0.0 0.0 -1.0
  outer loop
    vertex -208.82149230826712 233.3933301073728 144.029463
    vertex -192.84089830826713 338.58257710737274 144.029463
    vertex -192.84089830826713 233.3933301073728 144.029463
  endloop
endfacet
facet normal -0.0 -1.0 -0.0
  outer loop
    vertex -192.84089830826713 338.58257710737274 144.029463
    vertex -208.82149230826712 338.58257710737274 30.399095000000006
    vertex -192.84089830826713 338.58257710737274 30.399095000000006
  endloop
endfacet
facet normal -0.0 -1.0 -0.0
  outer loop
    vertex -208.82149230826712 338.58257710737274 30.399095000000006
    vertex -192.84089830826713 338.58257710737274 144.029463
    vertex -208.82149230826712 338.58257710737274 144.029463
  endloop
endfacet
facet normal -3.24487269792865e-17 -9.757614913373315e-16 1.0
  outer loop
    vertex -261.6856673082671 233.09698710737277 15.355667500000054
    vertex -294.5937843082671 338.5825771073727 15.355667500000155
    vertex -294.5937843082671 233.09698710737277 15.355667500000054
  endloop
endfacet
facet normal -3.24487269792865e-17 -9.757614913373315e-16 1.0
  outer loop
    vertex -294.5937843082671 338.5825771073727 15.355667500000155
    vertex -261.6856673082671 233.09698710737277 15.355667500000054
    vertex -261.6856673082671 338.5825771073727 15.355667500000155
  endloop
endfacet
facet normal -1.0 0.0 0.0
  outer loop
    vertex -176.37134630826705 -0.03647615083107834 222.73227507718124
    vertex -176.37134630826705 -83.55962615083108 157.01805207718124
    vertex -176.37134630826705 -83.55962615083108 222.73227507718124
  endloop
endfacet
facet normal -1.0 0.0 0.0
  outer loop
    vertex -176.37134630826705 -83.55962615083108 157.01805207718124
    vertex -176.37134630826705 -0.03647615083107834 222.73227507718124
    vertex -176.37134630826705 -0.03647615083107834 157.01805207718124
  endloop
endfacet
facet normal -0.0 0.0 -1.0
  outer loop
    vertex -176.37134630826705 -0.03647615083107834 222.73227507718124
    vertex -208.82149230826712 -83.55962615083108 222.73227507718124
    vertex -208.82149230826712 -0.03647615083107834 222.73227507718124
  endloop
endfacet
facet normal -0.0 0.0 -1.0
  outer loop
    vertex -208.82149230826712 -83.55962615083108 222.73227507718124
    vertex -176.37134630826705 -0.03647615083107834 222.73227507718124
    vertex -176.37134630826705 -83.55962615083108 222.73227507718124
  endloop
endfacet
facet normal -0.0 -1.0 -0.0
  outer loop
    vertex -176.37134630826705 -0.03647615083107834 222.73227507718124
    vertex -208.82149230826712 -0.03647615083107834 157.01805207718124
    vertex -176.37134630826705 -0.03647615083107834 157.01805207718124
  endloop
endfacet
facet normal -0.0 -1.0 -0.0
  outer loop
    vertex -208.82149230826712 -0.03647615083107834 157.01805207718124
    vertex -176.37134630826705 -0.03647615083107834 222.73227507718124
    vertex -208.82149230826712 -0.03647615083107834 222.73227507718124
  endloop
endfacet
facet normal 0.0 0.0 1.0
  outer loop
    vertex -176.37134630826705 -83.55962615083108 157.01805207718124
    vertex -208.82149230826712 -0.03647615083107834 157.01805207718124
    vertex -208.82149230826712 -83.55962615083108 157.01805207718124
  endloop
endfacet
facet normal 0.0 0.0 1.0
  outer loop
    vertex -208.82149230826712 -0.03647615083107834 157.01805207718124
    vertex -176.37134630826705 -83.55962615083108 157.01805207718124
    vertex -176.37134630826705 -0.03647615083107834 157.01805207718124
  endloop
endfacet
facet normal -0.0 1.0 -0.0
  outer loop
    vertex -208.82149230826712 -83.55962615083108 222.73227507718124
    vertex -176.37134630826705 -83.55962615083108 157.01805207718124
    vertex -208.82149230826712 -83.55962615083108 157.01805207718124
  endloop
endfacet
facet normal -0.0 1.0 -0.0
  outer loop
    vertex -176.37134630826705 -83.55962615083108 157.01805207718124
    vertex -208.82149230826712 -83.55962615083108 222.73227507718124
    vertex -176.37134630826705 -83.55962615083108 222.73227507718124
  endloop
endfacet
facet normal 0.0 -1.0 0.0
  outer loop
    vertex 44.03935966158343 -130.59076207305378 273.3043111784746
    vertex -35.070250338416564 -130.59076207305378 215.9784521784746
    vertex 44.03935966158343 -130.59076207305378 215.9784521784746
  endloop
endfacet
facet normal 0.0 -1.0 0.0
  outer loop
    vertex -35.070250338416564 -130.59076207305378 215.9784521784746
    vertex 44.03935966158343 -130.59076207305378 273.3043111784746
    vertex -35.070250338416564 -130.59076207305378 273.3043111784746
  endloop
endfacet
facet normal -0.0 -0.0 -1.0
  outer loop
    vertex 44.03935966158343 -130.59076207305378 273.3043111784746
    vertex -35.070250338416564 -165.61999307305373 273.3043111784746
    vertex -35.070250338416564 -130.59076207305378 273.3043111784746
  endloop
endfacet
facet normal -0.0 -0.0 -1.0
  outer loop
    vertex -35.070250338416564 -165.61999307305373 273.3043111784746
    vertex 44.03935966158343 -130.59076207305378 273.3043111784746
    vertex 44.03935966158343 -165.61999307305373 273.3043111784746
  endloop
endfacet
facet normal 1.0 0.0 0.0
  outer loop
    vertex -35.070250338416564 -130.59076207305378 215.9784521784746
    vertex -35.070250338416564 -165.61999307305373 273.3043111784746
    vertex -35.070250338416564 -165.61999307305373 215.9784521784746
  endloop
endfacet
facet normal 1.0 0.0 0.0
  outer loop
    vertex -35.070250338416564 -165.61999307305373 273.3043111784746
    vertex -35.070250338416564 -130.59076207305378 215.9784521784746
    vertex -35.070250338416564 -130.59076207305378 273.3043111784746
  endloop
endfacet
facet normal -0.0 -0.0 1.0
  outer loop
    vertex 44.03935966158343 -165.61999307305373 215.9784521784746
    vertex -35.070250338416564 -130.59076207305378 215.9784521784746
    vertex -35.070250338416564 -165.61999307305373 215.9784521784746
  endloop
endfacet
facet normal -0.0 -0.0 1.0
  outer loop
    vertex -35.070250338416564 -130.59076207305378 215.9784521784746
    vertex 44.03935966158343 -165.61999307305373 215.9784521784746
    vertex 44.03935966158343 -130.59076207305378 215.9784521784746
  endloop
endfacet
facet normal -1.0 -0.0 0.0
  outer loop
    vertex 44.03935966158343 -130.59076207305378 273.3043111784746
    vertex 44.03935966158343 -165.61999307305373 215.9784521784746
    vertex 44.03935966158343 -165.61999307305373 273.3043111784746
  endloop
endfacet
facet normal -1.0 -0.0 0.0
  outer loop
    vertex 44.03935966158343 -165.61999307305373 215.9784521784746
    vertex 44.03935966158343 -130.59076207305378 273.3043111784746
    vertex 44.03935966158343 -130.59076207305378 215.9784521784746
  endloop
endfacet
facet normal -1.0 0.0 0.0
  outer loop
    vertex -175.09473530826708 110.0757147692553 223.76723481345067
    vertex -175.09473530826708 26.552564769255305 158.05301181345067
    vertex -175.09473530826708 26.552564769255305 223.76723481345067
  endloop
endfacet
facet normal -1.0 0.0 0.0
  outer loop
    vertex -175.09473530826708 26.552564769255305 158.05301181345067
    vertex -175.09473530826708 110.0757147692553 223.76723481345067
    vertex -175.09473530826708 110.0757147692553 158.05301181345067
  endloop
endfacet
facet normal -0.0 -1.0 -0.0
  outer loop
    vertex -175.09473530826708 110.0757147692553 223.76723481345067
    vertex -208.82149230826712 110.0757147692553 158.05301181345067
    vertex -175.09473530826708 110.0757147692553 158.05301181345067
  endloop
endfacet
facet normal -0.0 -1.0 -0.0
  outer loop
    vertex -208.82149230826712 110.0757147692553 158.05301181345067
    vertex -175.09473530826708 110.0757147692553 223.76723481345067
    vertex -208.82149230826712 110.0757147692553 223.76723481345067
  endloop
endfacet
facet normal 0.0 0.0 1.0
  outer loop
    vertex -175.09473530826708 26.552564769255305 158.05301181345067
    vertex -208.82149230826712 110.0757147692553 158.05301181345067
    vertex -208.82149230826712 26.552564769255305 158.05301181345067
  endloop
endfacet
facet normal 0.0 0.0 1.0
  outer loop
    vertex -208.82149230826712 110.0757147692553 158.05301181345067
    vertex -175.09473530826708 26.552564769255305 158.05301181345067
    vertex -175.09473530826708 110.0757147692553 158.05301181345067
  endloop
endfacet
facet normal -0.0 1.0 -0.0
  outer loop
    vertex -208.82149230826712 26.552564769255305 223.76723481345067
    vertex -175.09473530826708 26.552564769255305 158.05301181345067
    vertex -208.82149230826712 26.552564769255305 158.05301181345067
  endloop
endfacet
facet normal -0.0 1.0 -0.0
  outer loop
    vertex -175.09473530826708 26.552564769255305 158.05301181345067
    vertex -208.82149230826712 26.552564769255305 223.76723481345067
    vertex -175.09473530826708 26.552564769255305 223.76723481345067
  endloop
endfacet
facet normal -0.0 0.0 -1.0
  outer loop
    vertex -175.09473530826708 110.0757147692553 223.76723481345067
    vertex -208.82149230826712 26.552564769255305 223.76723481345067
    vertex -208.82149230826712 110.0757147692553 223.76723481345067
  endloop
endfacet
facet normal -0.0 0.0 -1.0
  outer loop
    vertex -208.82149230826712 26.552564769255305 223.76723481345067
    vertex -175.09473530826708 110.0757147692553 223.76723481345067
    vertex -175.09473530826708 26.552564769255305 223.76723481345067
  endloop
endfacet
endsolid Untitled-5345a4c4
