solid OpenSCAD_Model
  facet normal 0 -2.22045e-016 -1
    outer loop
      vertex -10 5 25
      vertex -10 -6 25
      vertex -20 5 25
    endloop
  endfacet
  facet normal 0 -2.22045e-016 -1
    outer loop
      vertex -20 5 25
      vertex -10 -6 25
      vertex -20 -6 25
    endloop
  endfacet
  facet normal -1 0 0
    outer loop
      vertex -20 -6 25
      vertex -20 -6 40
      vertex -20 5 25
    endloop
  endfacet
  facet normal -1 0 0
    outer loop
      vertex -20 5 25
      vertex -20 -6 40
      vertex -20 5 40
    endloop
  endfacet
  facet normal -4.93038e-032 -1 2.22045e-016
    outer loop
      vertex 20 -6 25
      vertex -10 -6 25
      vertex 10 -6 25
    endloop
  endfacet
  facet normal -4.93038e-032 -1 2.22045e-016
    outer loop
      vertex 20 -6 40
      vertex -10 -6 25
      vertex 20 -6 25
    endloop
  endfacet
  facet normal -4.93038e-032 -1 2.22045e-016
    outer loop
      vertex -20 -6 40
      vertex -10 -6 25
      vertex 20 -6 40
    endloop
  endfacet
  facet normal -4.93038e-032 -1 2.22045e-016
    outer loop
      vertex -20 -6 25
      vertex -10 -6 25
      vertex -20 -6 40
    endloop
  endfacet
  facet normal 0 1 0
    outer loop
      vertex -20 5 25
      vertex -20 5 40
      vertex -10 5 25
    endloop
  endfacet
  facet normal 0 1 0
    outer loop
      vertex -6 5 40
      vertex -6 5 0
      vertex -10 5 25
    endloop
  endfacet
  facet normal 0 1 0
    outer loop
      vertex -6 5 40
      vertex -10 5 25
      vertex -20 5 40
    endloop
  endfacet
  facet normal 0 1 0
    outer loop
      vertex -10 5 25
      vertex -6 5 0
      vertex -10 5 0
    endloop
  endfacet
  facet normal -1 0 0
    outer loop
      vertex -10 -6 25
      vertex -10 5 25
      vertex -10 5 0
    endloop
  endfacet
  facet normal -1 0 0
    outer loop
      vertex -10 5 0
      vertex -10 -6 0
      vertex -10 -6 14
    endloop
  endfacet
  facet normal -1 0 0
    outer loop
      vertex -10 5 0
      vertex -10 -6 14
      vertex -10 -6 25
    endloop
  endfacet
  facet normal 0 0 1
    outer loop
      vertex -20 5 40
      vertex -20 -6 40
      vertex 20 -6 40
    endloop
  endfacet
  facet normal 0 0 1
    outer loop
      vertex -6 5 40
      vertex -20 5 40
      vertex 20 -6 40
    endloop
  endfacet
  facet normal 0 0 1
    outer loop
      vertex 5 5 40
      vertex -6 5 40
      vertex 20 -6 40
    endloop
  endfacet
  facet normal 0 0 1
    outer loop
      vertex 20 5 40
      vertex 5 5 40
      vertex 20 -6 40
    endloop
  endfacet
  facet normal 1 0 0
    outer loop
      vertex 20 5 40
      vertex 20 -6 25
      vertex 20 5 25
    endloop
  endfacet
  facet normal 1 0 0
    outer loop
      vertex 20 -6 40
      vertex 20 -6 25
      vertex 20 5 40
    endloop
  endfacet
  facet normal 0 -2.22045e-016 -1
    outer loop
      vertex 20 5 25
      vertex 20 -6 25
      vertex 10 5 25
    endloop
  endfacet
  facet normal 0 -2.22045e-016 -1
    outer loop
      vertex 10 -6 25
      vertex 10 5 25
      vertex 20 -6 25
    endloop
  endfacet
  facet normal 1 0 0
    outer loop
      vertex 10 5 0
      vertex 10 5 1.11022e-015
      vertex 10 5 25
    endloop
  endfacet
  facet normal 1 0 0
    outer loop
      vertex 10 -6 25
      vertex 10 5 0
      vertex 10 5 25
    endloop
  endfacet
  facet normal 1 0 0
    outer loop
      vertex 10 -6 14
      vertex 10 5 0
      vertex 10 -6 25
    endloop
  endfacet
  facet normal 1 0 0
    outer loop
      vertex 10 -6 0
      vertex 10 5 0
      vertex 10 -6 3.55271e-015
    endloop
  endfacet
  facet normal 1 0 0
    outer loop
      vertex 10 -6 14
      vertex 10 -6 3.55271e-015
      vertex 10 5 0
    endloop
  endfacet
  facet normal -2.22045e-016 2.22045e-016 1
    outer loop
      vertex -6 -6 25
      vertex -6 -20 25
      vertex 5 -20 25
    endloop
  endfacet
  facet normal -2.22045e-016 2.22045e-016 1
    outer loop
      vertex 10 -6 25
      vertex -6 -6 25
      vertex 5 -6 25
    endloop
  endfacet
  facet normal -2.22045e-016 2.22045e-016 1
    outer loop
      vertex 5 -6 25
      vertex -6 -6 25
      vertex 5 -20 25
    endloop
  endfacet
  facet normal -2.22045e-016 2.22045e-016 1
    outer loop
      vertex -10 -6 25
      vertex -6 -6 25
      vertex 10 -6 25
    endloop
  endfacet
  facet normal 0 0 -1
    outer loop
      vertex -10 -6 0
      vertex -10 5 0
      vertex 5 -6 0
    endloop
  endfacet
  facet normal 0 0 -1
    outer loop
      vertex 5 -6 0
      vertex -10 5 0
      vertex -6 5 0
    endloop
  endfacet
  facet normal 0 0 -1
    outer loop
      vertex 5 5 0
      vertex 5 -6 0
      vertex -6 5 0
    endloop
  endfacet
  facet normal 0 0 -1
    outer loop
      vertex 5 -6 0
      vertex 5 5 0
      vertex 10 5 0
    endloop
  endfacet
  facet normal 0 0 -1
    outer loop
      vertex 5 -6 0
      vertex 10 5 0
      vertex 10 -6 0
    endloop
  endfacet
  facet normal -1 0 0
    outer loop
      vertex -6 20 14
      vertex -6 5 25
      vertex -6 20 25
    endloop
  endfacet
  facet normal -1 0 0
    outer loop
      vertex -6 5 14
      vertex -6 5 25
      vertex -6 20 14
    endloop
  endfacet
  facet normal -1 0 0
    outer loop
      vertex -6 5 40
      vertex -6 5 25
      vertex -6 5 14
    endloop
  endfacet
  facet normal -1 0 0
    outer loop
      vertex -6 5 40
      vertex -6 5 14
      vertex -6 5 0
    endloop
  endfacet
  facet normal 0 -1 0
    outer loop
      vertex -6 -6 14
      vertex -6 -6 25
      vertex -10 -6 25
    endloop
  endfacet
  facet normal 0 -1 0
    outer loop
      vertex -10 -6 14
      vertex -6 -6 14
      vertex -10 -6 25
    endloop
  endfacet
  facet normal 2.22045e-016 -2.22045e-016 -1
    outer loop
      vertex -10 -6 14
      vertex 10 -6 14
      vertex 5 -6 14
    endloop
  endfacet
  facet normal 2.22045e-016 -2.22045e-016 -1
    outer loop
      vertex -6 -6 14
      vertex 5 -6 14
      vertex 5 -20 14
    endloop
  endfacet
  facet normal 2.22045e-016 -2.22045e-016 -1
    outer loop
      vertex -10 -6 14
      vertex 5 -6 14
      vertex -6 -6 14
    endloop
  endfacet
  facet normal 2.22045e-016 -2.22045e-016 -1
    outer loop
      vertex -6 -6 14
      vertex 5 -20 14
      vertex -6 -20 14
    endloop
  endfacet
  facet normal -4.93038e-032 -1 2.22045e-016
    outer loop
      vertex 10 -6 14
      vertex 5 -6 2.44249e-015
      vertex 10 -6 3.55271e-015
    endloop
  endfacet
  facet normal -4.93038e-032 -1 2.22045e-016
    outer loop
      vertex -10 -6 14
      vertex 5 -6 2.44249e-015
      vertex 10 -6 14
    endloop
  endfacet
  facet normal -4.93038e-032 -1 2.22045e-016
    outer loop
      vertex 5 -6 0
      vertex 5 -6 2.44249e-015
      vertex -10 -6 14
    endloop
  endfacet
  facet normal -4.93038e-032 -1 2.22045e-016
    outer loop
      vertex -10 -6 0
      vertex 5 -6 0
      vertex -10 -6 14
    endloop
  endfacet
  facet normal 4.93038e-032 1 -2.22045e-016
    outer loop
      vertex 5 5 40
      vertex 5 5 25
      vertex -6 5 40
    endloop
  endfacet
  facet normal 4.93038e-032 1 -2.22045e-016
    outer loop
      vertex -6 5 40
      vertex 5 5 25
      vertex -6 5 25
    endloop
  endfacet
  facet normal 1 0 0
    outer loop
      vertex 5 20 25
      vertex 5 5 14
      vertex 5 20 14
    endloop
  endfacet
  facet normal 1 0 0
    outer loop
      vertex 5 5 25
      vertex 5 5 14
      vertex 5 20 25
    endloop
  endfacet
  facet normal 1 0 0
    outer loop
      vertex 5 5 0
      vertex 5 5 14
      vertex 5 5 40
    endloop
  endfacet
  facet normal 1 0 0
    outer loop
      vertex 5 5 40
      vertex 5 5 14
      vertex 5 5 25
    endloop
  endfacet
  facet normal 0 1 0
    outer loop
      vertex 20 5 40
      vertex 20 5 25
      vertex 5 5 40
    endloop
  endfacet
  facet normal 0 1 0
    outer loop
      vertex 5 5 40
      vertex 20 5 25
      vertex 10 5 25
    endloop
  endfacet
  facet normal 0 1 0
    outer loop
      vertex 5 5 40
      vertex 10 5 25
      vertex 10 5 1.11022e-015
    endloop
  endfacet
  facet normal 0 1 0
    outer loop
      vertex 5 5 40
      vertex 10 5 1.11022e-015
      vertex 5 5 0
    endloop
  endfacet
  facet normal 4.93038e-032 1 -2.22045e-016
    outer loop
      vertex 10 5 1.11022e-015
      vertex 10 5 0
      vertex 5 5 0
    endloop
  endfacet
  facet normal 0 -1 0
    outer loop
      vertex 10 -6 0
      vertex 10 -6 3.55271e-015
      vertex 5 -6 2.44249e-015
    endloop
  endfacet
  facet normal 0 -1 0
    outer loop
      vertex 5 -6 0
      vertex 10 -6 0
      vertex 5 -6 2.44249e-015
    endloop
  endfacet
  facet normal 0 -1 0
    outer loop
      vertex 10 -6 14
      vertex 10 -6 25
      vertex 5 -6 25
    endloop
  endfacet
  facet normal 0 -1 0
    outer loop
      vertex 5 -6 14
      vertex 10 -6 14
      vertex 5 -6 25
    endloop
  endfacet
  facet normal -1 0 0
    outer loop
      vertex -6 -6 25
      vertex -6 -6 14
      vertex -6 -20 25
    endloop
  endfacet
  facet normal -1 0 0
    outer loop
      vertex -6 -20 25
      vertex -6 -6 14
      vertex -6 -20 14
    endloop
  endfacet
  facet normal 1 0 0
    outer loop
      vertex 5 -6 14
      vertex 5 -6 25
      vertex 5 -20 25
    endloop
  endfacet
  facet normal 1 0 0
    outer loop
      vertex 5 -20 14
      vertex 5 -6 14
      vertex 5 -20 25
    endloop
  endfacet
  facet normal 0 -1 0
    outer loop
      vertex -6 -20 25
      vertex -6 -20 14
      vertex 5 -20 14
    endloop
  endfacet
  facet normal 0 -1 0
    outer loop
      vertex 5 -20 25
      vertex -6 -20 25
      vertex 5 -20 14
    endloop
  endfacet
  facet normal 4.93038e-032 1 -2.22045e-016
    outer loop
      vertex 5 5 14
      vertex 5 5 0
      vertex -6 5 14
    endloop
  endfacet
  facet normal 4.93038e-032 1 -2.22045e-016
    outer loop
      vertex -6 5 14
      vertex 5 5 0
      vertex -6 5 0
    endloop
  endfacet
  facet normal 2.22045e-016 -2.22045e-016 -1
    outer loop
      vertex 5 20 14
      vertex 5 5 14
      vertex -6 20 14
    endloop
  endfacet
  facet normal 2.22045e-016 -2.22045e-016 -1
    outer loop
      vertex -6 20 14
      vertex 5 5 14
      vertex -6 5 14
    endloop
  endfacet
  facet normal 0 1 0
    outer loop
      vertex -6 20 14
      vertex -6 20 25
      vertex 5 20 14
    endloop
  endfacet
  facet normal 0 1 0
    outer loop
      vertex 5 20 14
      vertex -6 20 25
      vertex 5 20 25
    endloop
  endfacet
  facet normal -2.22045e-016 2.22045e-016 1
    outer loop
      vertex 5 5 25
      vertex 5 20 25
      vertex -6 20 25
    endloop
  endfacet
  facet normal -2.22045e-016 2.22045e-016 1
    outer loop
      vertex -6 5 25
      vertex 5 5 25
      vertex -6 20 25
    endloop
  endfacet
endsolid OpenSCAD_Model
