solid OpenSCAD_Model
  facet normal -0.994522 -0.104528 0
    outer loop
      vertex -20 -10 25
      vertex -19.7815 -12.0791 25
      vertex -20 -10 40
    endloop
  endfacet
  facet normal -0.994522 -0.104528 0
    outer loop
      vertex -20 -10 40
      vertex -19.7815 -12.0791 25
      vertex -19.7815 -12.0791 40
    endloop
  endfacet
  facet normal 0 -2.22045e-16 -1
    outer loop
      vertex -19.9452 11 25
      vertex -19.9452 12.0453 25
      vertex -19.5106 14.0902 25
    endloop
  endfacet
  facet normal 0 -2.22045e-16 -1
    outer loop
      vertex -19.9452 11 25
      vertex -19.5106 14.0902 25
      vertex -18.6603 16 25
    endloop
  endfacet
  facet normal 0 -2.22045e-16 -1
    outer loop
      vertex -19.9452 11 25
      vertex -18.6603 16 25
      vertex -17.4314 17.6913 25
    endloop
  endfacet
  facet normal 0 -2.22045e-16 -1
    outer loop
      vertex -19.9452 11 25
      vertex -17.4314 17.6913 25
      vertex -15.8779 19.0902 25
    endloop
  endfacet
  facet normal 0 -2.22045e-16 -1
    outer loop
      vertex -19.9452 11 25
      vertex -15.8779 19.0902 25
      vertex -14.302 20 25
    endloop
  endfacet
  facet normal 0 -2.22045e-16 -1
    outer loop
      vertex -19.9452 11 25
      vertex -14.302 20 25
      vertex -10 20 25
    endloop
  endfacet
  facet normal 0 -2.22045e-16 -1
    outer loop
      vertex -19.9452 11 25
      vertex -10 20 25
      vertex -10 -19.9452 25
    endloop
  endfacet
  facet normal 0 -2.22045e-16 -1
    outer loop
      vertex -19.9452 11 25
      vertex -10 -19.9452 25
      vertex -20 11 25
    endloop
  endfacet
  facet normal 0 -2.22045e-16 -1
    outer loop
      vertex -10 -19.9452 25
      vertex -11.0453 -19.9452 25
      vertex -20 11 25
    endloop
  endfacet
  facet normal 0 -2.22045e-16 -1
    outer loop
      vertex -11.0453 -19.9452 25
      vertex -13.0902 -19.5106 25
      vertex -20 11 25
    endloop
  endfacet
  facet normal 0 -2.22045e-16 -1
    outer loop
      vertex -13.0902 -19.5106 25
      vertex -15 -18.6603 25
      vertex -20 11 25
    endloop
  endfacet
  facet normal 0 -2.22045e-16 -1
    outer loop
      vertex -15 -18.6603 25
      vertex -16.6913 -17.4314 25
      vertex -20 11 25
    endloop
  endfacet
  facet normal 0 -2.22045e-16 -1
    outer loop
      vertex -16.6913 -17.4314 25
      vertex -18.0902 -15.8779 25
      vertex -20 11 25
    endloop
  endfacet
  facet normal 0 -2.22045e-16 -1
    outer loop
      vertex -18.0902 -15.8779 25
      vertex -19.1355 -14.0674 25
      vertex -20 11 25
    endloop
  endfacet
  facet normal 0 -2.22045e-16 -1
    outer loop
      vertex -19.1355 -14.0674 25
      vertex -19.7815 -12.0791 25
      vertex -20 11 25
    endloop
  endfacet
  facet normal 0 -2.22045e-16 -1
    outer loop
      vertex -19.7815 -12.0791 25
      vertex -20 -10 25
      vertex -20 11 25
    endloop
  endfacet
  facet normal -1 0 0
    outer loop
      vertex -20 0.2 31.7285
      vertex -20 11 25
      vertex -20 0.2 30
    endloop
  endfacet
  facet normal -1 0 0
    outer loop
      vertex -20 -9.9 39.9452
      vertex -20 -10 40
      vertex -20 -9.9 40
    endloop
  endfacet
  facet normal -1 0 0
    outer loop
      vertex -20 -1.80983 35.8779
      vertex -20 -4.9 38.6603
      vertex -20 -3.20869 37.4314
    endloop
  endfacet
  facet normal -1 0 0
    outer loop
      vertex -20 -0.764545 34.0674
      vertex -20 -8.85471 39.9452
      vertex -20 -6.80983 39.5106
    endloop
  endfacet
  facet normal -1 0 0
    outer loop
      vertex -20 -1.80983 35.8779
      vertex -20 -6.80983 39.5106
      vertex -20 -4.9 38.6603
    endloop
  endfacet
  facet normal -1 0 0
    outer loop
      vertex -20 -0.118524 32.0791
      vertex -20 -9.9 39.9452
      vertex -20 -8.85471 39.9452
    endloop
  endfacet
  facet normal -1 0 0
    outer loop
      vertex -20 -0.764545 34.0674
      vertex -20 -6.80983 39.5106
      vertex -20 -1.80983 35.8779
    endloop
  endfacet
  facet normal -1 0 0
    outer loop
      vertex -20 -0.118524 32.0791
      vertex -20 -10 40
      vertex -20 -9.9 39.9452
    endloop
  endfacet
  facet normal -1 0 0
    outer loop
      vertex -20 -10 25
      vertex -20 -10 40
      vertex -20 -0.118524 32.0791
    endloop
  endfacet
  facet normal -1 0 0
    outer loop
      vertex -20 -10 25
      vertex -20 -0.118524 32.0791
      vertex -20 -0.1 31.9029
    endloop
  endfacet
  facet normal -1 0 0
    outer loop
      vertex -20 -10 25
      vertex -20 -0.1 31.9029
      vertex -20 -0.1 30
    endloop
  endfacet
  facet normal -1 0 0
    outer loop
      vertex -20 -10 25
      vertex -20 -0.1 30
      vertex -20 11 25
    endloop
  endfacet
  facet normal -1 0 0
    outer loop
      vertex -20 -0.1 30
      vertex -20 0.054781 30
      vertex -20 11 25
    endloop
  endfacet
  facet normal -1 0 0
    outer loop
      vertex -20 0.054781 30
      vertex -20 0.054781 30.4302
      vertex -20 0.1 30
    endloop
  endfacet
  facet normal -1 0 0
    outer loop
      vertex -20 0.054781 30
      vertex -20 0.1 30
      vertex -20 11 25
    endloop
  endfacet
  facet normal -1 0 0
    outer loop
      vertex -20 0.1 30
      vertex -20 0.2 30
      vertex -20 11 25
    endloop
  endfacet
  facet normal -1 0 0
    outer loop
      vertex -20 0.489435 33.0902
      vertex -20 11 25
      vertex -20 0.2 31.7285
    endloop
  endfacet
  facet normal -1 0 0
    outer loop
      vertex -20 1.33975 35
      vertex -20 2.56855 36.6913
      vertex -20 11 25
    endloop
  endfacet
  facet normal -1 0 0
    outer loop
      vertex -20 2.56855 36.6913
      vertex -20 4.12215 38.0902
      vertex -20 11 25
    endloop
  endfacet
  facet normal -1 0 0
    outer loop
      vertex -20 4.12215 38.0902
      vertex -20 5.93263 39.1355
      vertex -20 11 25
    endloop
  endfacet
  facet normal -1 0 0
    outer loop
      vertex -20 11 25
      vertex -20 5.93263 39.1355
      vertex -20 7.92088 39.7815
    endloop
  endfacet
  facet normal -1 0 0
    outer loop
      vertex -20 7.92088 39.7815
      vertex -20 10 40
      vertex -20 11 25
    endloop
  endfacet
  facet normal -1 0 0
    outer loop
      vertex -20 11 25
      vertex -20 10 40
      vertex -20 11 40
    endloop
  endfacet
  facet normal -1 0 0
    outer loop
      vertex -20 -0.118524 32.0791
      vertex -20 -8.85471 39.9452
      vertex -20 -0.764545 34.0674
    endloop
  endfacet
  facet normal -1 0 0
    outer loop
      vertex -20 1.33975 35
      vertex -20 11 25
      vertex -20 0.489435 33.0902
    endloop
  endfacet
  facet normal 0 0 1
    outer loop
      vertex -20 -9.9 40
      vertex -20 -10 40
      vertex -19.7815 -12.0791 40
    endloop
  endfacet
  facet normal 0 0 1
    outer loop
      vertex -19 -14.302 40
      vertex -20 -9.9 40
      vertex -19.1355 -14.0674 40
    endloop
  endfacet
  facet normal 0 0 1
    outer loop
      vertex -19.1355 -14.0674 40
      vertex -20 -9.9 40
      vertex -19.7815 -12.0791 40
    endloop
  endfacet
  facet normal 0 0 1
    outer loop
      vertex 18.971 -14.302 40
      vertex -20 -9.9 40
      vertex -19 -14.302 40
    endloop
  endfacet
  facet normal 0 0 1
    outer loop
      vertex 19.5106 -13.0902 40
      vertex -20 -9.9 40
      vertex 18.971 -14.302 40
    endloop
  endfacet
  facet normal 0 0 1
    outer loop
      vertex 19.9452 -11.0453 40
      vertex -20 -9.9 40
      vertex 19.5106 -13.0902 40
    endloop
  endfacet
  facet normal 0 0 1
    outer loop
      vertex 19.9452 -10 40
      vertex -20 -9.9 40
      vertex 19.9452 -11.0453 40
    endloop
  endfacet
  facet normal 0 0 1
    outer loop
      vertex 20 -10 40
      vertex -20 -9.9 40
      vertex 19.9452 -10 40
    endloop
  endfacet
  facet normal 0 0 1
    outer loop
      vertex 20 -9.9 40
      vertex -20 -9.9 40
      vertex 20 -10 40
    endloop
  endfacet
  facet normal -0.951057 -0.309017 0
    outer loop
      vertex -19.7815 -12.0791 25
      vertex -19.1355 -14.0674 25
      vertex -19.7815 -12.0791 40
    endloop
  endfacet
  facet normal -0.951057 -0.309017 0
    outer loop
      vertex -19.7815 -12.0791 40
      vertex -19.1355 -14.0674 25
      vertex -19.1355 -14.0674 40
    endloop
  endfacet
  facet normal -2.22045e-16 1 0
    outer loop
      vertex -19.9452 11 40
      vertex -19.9452 11 25
      vertex -20 11 40
    endloop
  endfacet
  facet normal -2.22045e-16 1 0
    outer loop
      vertex -20 11 40
      vertex -19.9452 11 25
      vertex -20 11 25
    endloop
  endfacet
  facet normal -0.866025 -0.5 0
    outer loop
      vertex -19.1355 -14.0674 25
      vertex -18.0902 -15.8779 25
      vertex -19.1355 -14.0674 40
    endloop
  endfacet
  facet normal -0.866025 -0.5 0
    outer loop
      vertex -19.1355 -14.0674 40
      vertex -18.0902 -15.8779 25
      vertex -18.0902 -15.8779 39.0902
    endloop
  endfacet
  facet normal -0.866025 -0.5 0
    outer loop
      vertex -19.1355 -14.0674 40
      vertex -18.0902 -15.8779 39.0902
      vertex -19 -14.302 40
    endloop
  endfacet
  facet normal -0.743145 -0.669131 0
    outer loop
      vertex -18.0902 -15.8779 25
      vertex -16.6913 -17.4314 25
      vertex -18.0902 -15.8779 39.0902
    endloop
  endfacet
  facet normal -0.743145 -0.669131 0
    outer loop
      vertex -18.0902 -15.8779 39.0902
      vertex -16.6913 -17.4314 25
      vertex -16.6913 -17.4314 37.6913
    endloop
  endfacet
  facet normal -0.587785 -0.809017 0
    outer loop
      vertex -16.6913 -17.4314 37.6913
      vertex -16.6913 -17.4314 25
      vertex -15 -18.6603 25
    endloop
  endfacet
  facet normal -0.587785 -0.809017 0
    outer loop
      vertex -15 -18.6603 36
      vertex -16.6913 -17.4314 37.6913
      vertex -15 -18.6603 25
    endloop
  endfacet
  facet normal -0.406737 -0.913545 0
    outer loop
      vertex -15 -18.6603 36
      vertex -15 -18.6603 25
      vertex -13.0902 -19.5106 25
    endloop
  endfacet
  facet normal -0.406737 -0.913545 0
    outer loop
      vertex -13.0902 -19.5106 34.0902
      vertex -15 -18.6603 36
      vertex -13.0902 -19.5106 25
    endloop
  endfacet
  facet normal -0.207912 -0.978148 0
    outer loop
      vertex -13.0902 -19.5106 34.0902
      vertex -13.0902 -19.5106 25
      vertex -11.0453 -19.9452 25
    endloop
  endfacet
  facet normal -0.207912 -0.978148 0
    outer loop
      vertex -11.0453 -19.9452 31
      vertex -13.0902 -19.5106 34.0902
      vertex -11.0453 -19.9452 25
    endloop
  endfacet
  facet normal -0.207912 -0.978148 0
    outer loop
      vertex -11.0453 -19.9452 31
      vertex -11.0453 -19.9452 32.0453
      vertex -13.0902 -19.5106 34.0902
    endloop
  endfacet
  facet normal 0 -1 0
    outer loop
      vertex -11.0453 -19.9452 31
      vertex -11.0453 -19.9452 25
      vertex -10 -19.9452 25
    endloop
  endfacet
  facet normal 0 -1 0
    outer loop
      vertex -10 -19.9452 31
      vertex -11.0453 -19.9452 31
      vertex -10 -19.9452 25
    endloop
  endfacet
  facet normal -1 0 0
    outer loop
      vertex -10 -19.9452 31
      vertex -10 -19.9452 25
      vertex -10 -20 31
    endloop
  endfacet
  facet normal -1 0 0
    outer loop
      vertex -10 10 10
      vertex -10 -19.9452 25
      vertex -10 20 25
    endloop
  endfacet
  facet normal -1 0 0
    outer loop
      vertex -10 -10 0
      vertex -10 -19.9452 25
      vertex -10 -10 10
    endloop
  endfacet
  facet normal -1 0 0
    outer loop
      vertex -10 5 10
      vertex -10 -19.9452 25
      vertex -10 10 10
    endloop
  endfacet
  facet normal -1 0 0
    outer loop
      vertex -10 20 0
      vertex -10 10 10
      vertex -10 20 25
    endloop
  endfacet
  facet normal -1 0 0
    outer loop
      vertex -10 5 0
      vertex -10 -19.9452 25
      vertex -10 5 10
    endloop
  endfacet
  facet normal -1 0 0
    outer loop
      vertex -10 -5 10
      vertex -10 -19.9452 25
      vertex -10 5 0
    endloop
  endfacet
  facet normal -1 0 0
    outer loop
      vertex -10 -10 10
      vertex -10 -19.9452 25
      vertex -10 -5 10
    endloop
  endfacet
  facet normal -1 0 0
    outer loop
      vertex -10 -5 0
      vertex -10 -5 10
      vertex -10 5 0
    endloop
  endfacet
  facet normal -1 0 0
    outer loop
      vertex -10 -20 0
      vertex -10 -19.9452 25
      vertex -10 -10 0
    endloop
  endfacet
  facet normal -1 0 0
    outer loop
      vertex -10 -20 31
      vertex -10 -19.9452 25
      vertex -10 -20 0
    endloop
  endfacet
  facet normal -1 0 0
    outer loop
      vertex -10 10 10
      vertex -10 20 0
      vertex -10 10 0
    endloop
  endfacet
  facet normal 0 1 0
    outer loop
      vertex -14.302 20 25
      vertex -14.302 20 31
      vertex -10 20 25
    endloop
  endfacet
  facet normal 0 1 0
    outer loop
      vertex -10 20 25
      vertex -14.302 20 31
      vertex 14.2369 20 31
    endloop
  endfacet
  facet normal 0 1 0
    outer loop
      vertex 10 20 25
      vertex 14.2369 20 31
      vertex 14.2369 20 25
    endloop
  endfacet
  facet normal 0 1 0
    outer loop
      vertex -10 20 25
      vertex 14.2369 20 31
      vertex 10 20 25
    endloop
  endfacet
  facet normal 0 1 0
    outer loop
      vertex 10 20 25
      vertex 10 20 0
      vertex -10 20 25
    endloop
  endfacet
  facet normal 0 1 0
    outer loop
      vertex -10 20 25
      vertex 10 20 0
      vertex -10 20 0
    endloop
  endfacet
  facet normal -0.5 0.866025 0
    outer loop
      vertex -15.8779 19.0902 25
      vertex -15.8779 19.0902 35.1458
      vertex -14.302 20 25
    endloop
  endfacet
  facet normal -0.5 0.866025 0
    outer loop
      vertex -14.302 20 25
      vertex -15.8779 19.0902 35.1458
      vertex -15.7994 19.1355 35.0674
    endloop
  endfacet
  facet normal -0.5 0.866025 0
    outer loop
      vertex -14.302 20 25
      vertex -15.7994 19.1355 35.0674
      vertex -14.6805 19.7815 33.0791
    endloop
  endfacet
  facet normal -0.5 0.866025 0
    outer loop
      vertex -14.302 20 25
      vertex -14.6805 19.7815 33.0791
      vertex -14.302 20 31
    endloop
  endfacet
  facet normal -0.669131 0.743145 0
    outer loop
      vertex -17.4314 17.6913 25
      vertex -17.4314 17.6913 37.3208
      vertex -15.8779 19.0902 25
    endloop
  endfacet
  facet normal -0.669131 0.743145 0
    outer loop
      vertex -15.8779 19.0902 25
      vertex -17.4314 17.6913 37.3208
      vertex -16.9885 18.0902 36.8779
    endloop
  endfacet
  facet normal -0.669131 0.743145 0
    outer loop
      vertex -15.8779 19.0902 25
      vertex -16.9885 18.0902 36.8779
      vertex -15.8779 19.0902 35.1458
    endloop
  endfacet
  facet normal -0.809017 0.587785 0
    outer loop
      vertex -18.6603 16 25
      vertex -18.6603 16 38.9337
      vertex -17.4314 17.6913 25
    endloop
  endfacet
  facet normal -0.809017 0.587785 0
    outer loop
      vertex -17.4314 17.6913 25
      vertex -18.6603 16 38.9337
      vertex -18.158 16.6913 38.4314
    endloop
  endfacet
  facet normal -0.809017 0.587785 0
    outer loop
      vertex -17.4314 17.6913 25
      vertex -18.158 16.6913 38.4314
      vertex -17.4314 17.6913 37.3208
    endloop
  endfacet
  facet normal -0.913545 0.406737 0
    outer loop
      vertex -19.5106 14.0902 25
      vertex -19.5106 14.0902 40
      vertex -18.6603 16 25
    endloop
  endfacet
  facet normal -0.913545 0.406737 0
    outer loop
      vertex -18.6603 16 25
      vertex -19.5106 14.0902 40
      vertex -19.4452 14.2369 40
    endloop
  endfacet
  facet normal -0.913545 0.406737 0
    outer loop
      vertex -18.6603 16 25
      vertex -19.4452 14.2369 40
      vertex -19.1055 15 39.6603
    endloop
  endfacet
  facet normal -0.913545 0.406737 0
    outer loop
      vertex -18.6603 16 25
      vertex -19.1055 15 39.6603
      vertex -18.6603 16 38.9337
    endloop
  endfacet
  facet normal -0.978148 0.207912 0
    outer loop
      vertex -19.9452 12.0453 25
      vertex -19.9452 12.0453 40
      vertex -19.5106 14.0902 25
    endloop
  endfacet
  facet normal -0.978148 0.207912 0
    outer loop
      vertex -19.5106 14.0902 25
      vertex -19.9452 12.0453 40
      vertex -19.5106 14.0902 40
    endloop
  endfacet
  facet normal -1 -2.22045e-16 0
    outer loop
      vertex -19.9452 12.0453 25
      vertex -19.9452 11 25
      vertex -19.9452 12.0453 40
    endloop
  endfacet
  facet normal -1 -2.22045e-16 0
    outer loop
      vertex -19.9452 12.0453 40
      vertex -19.9452 11 25
      vertex -19.9452 11 40
    endloop
  endfacet
  facet normal 0 0 1
    outer loop
      vertex -20 11 40
      vertex -20 10 40
      vertex 4.95 10 40
    endloop
  endfacet
  facet normal 0 0 1
    outer loop
      vertex 20 10 40
      vertex -20 11 40
      vertex 4.95 10 40
    endloop
  endfacet
  facet normal 0 0 1
    outer loop
      vertex 20 10 40
      vertex 20 11 40
      vertex -20 11 40
    endloop
  endfacet
  facet normal 0 0 1
    outer loop
      vertex 20 11 40
      vertex -19.9452 11 40
      vertex -20 11 40
    endloop
  endfacet
  facet normal 0 0 1
    outer loop
      vertex 20 11 40
      vertex 19.7815 13.0791 40
      vertex -19.9452 11 40
    endloop
  endfacet
  facet normal 0 0 1
    outer loop
      vertex -19.9452 12.0453 40
      vertex -19.4452 14.2369 40
      vertex -19.5106 14.0902 40
    endloop
  endfacet
  facet normal 0 0 1
    outer loop
      vertex -19.9452 12.0453 40
      vertex 19.4053 14.2369 40
      vertex -19.4452 14.2369 40
    endloop
  endfacet
  facet normal 0 0 1
    outer loop
      vertex -19.9452 12.0453 40
      vertex 19.7815 13.0791 40
      vertex 19.4053 14.2369 40
    endloop
  endfacet
  facet normal 0 0 1
    outer loop
      vertex -19.9452 12.0453 40
      vertex -19.9452 11 40
      vertex 19.7815 13.0791 40
    endloop
  endfacet
  facet normal -2.20828e-16 -0.104528 0.994522
    outer loop
      vertex -20 10 40
      vertex -20 7.92088 39.7815
      vertex 20 7.92088 39.7815
    endloop
  endfacet
  facet normal -2.20828e-16 -0.104528 0.994522
    outer loop
      vertex 4.95 10 40
      vertex -20 10 40
      vertex 20 10 40
    endloop
  endfacet
  facet normal -2.20828e-16 -0.104528 0.994522
    outer loop
      vertex 20 10 40
      vertex -20 10 40
      vertex 20 7.92088 39.7815
    endloop
  endfacet
  facet normal -2.11177e-16 -0.309017 0.951057
    outer loop
      vertex -20 7.92088 39.7815
      vertex -20 5.93263 39.1355
      vertex 20 5.93263 39.1355
    endloop
  endfacet
  facet normal -2.11177e-16 -0.309017 0.951057
    outer loop
      vertex 20 7.92088 39.7815
      vertex -20 7.92088 39.7815
      vertex 20 5.93263 39.1355
    endloop
  endfacet
  facet normal -1.92296e-16 -0.5 0.866025
    outer loop
      vertex -20 5.93263 39.1355
      vertex -20 4.12215 38.0902
      vertex -2.78626 4.12215 38.0902
    endloop
  endfacet
  facet normal -1.92296e-16 -0.5 0.866025
    outer loop
      vertex -1.54508 4.75528 38.4557
      vertex -20 5.93263 39.1355
      vertex -2.5 4.33013 38.2102
    endloop
  endfacet
  facet normal -1.92296e-16 -0.5 0.866025
    outer loop
      vertex -2.5 4.33013 38.2102
      vertex -20 5.93263 39.1355
      vertex -2.78626 4.12215 38.0902
    endloop
  endfacet
  facet normal -1.92296e-16 -0.5 0.866025
    outer loop
      vertex -0.522642 4.97261 38.5812
      vertex -20 5.93263 39.1355
      vertex -1.54508 4.75528 38.4557
    endloop
  endfacet
  facet normal -1.92296e-16 -0.5 0.866025
    outer loop
      vertex 0.522642 4.97261 38.5812
      vertex -20 5.93263 39.1355
      vertex -0.522642 4.97261 38.5812
    endloop
  endfacet
  facet normal -1.92296e-16 -0.5 0.866025
    outer loop
      vertex 20 4.12215 38.0902
      vertex -20 5.93263 39.1355
      vertex 0.522642 4.97261 38.5812
    endloop
  endfacet
  facet normal -1.92296e-16 -0.5 0.866025
    outer loop
      vertex 20 4.12215 38.0902
      vertex 0.522642 4.97261 38.5812
      vertex 1.54508 4.75528 38.4557
    endloop
  endfacet
  facet normal -1.92296e-16 -0.5 0.866025
    outer loop
      vertex 20 4.12215 38.0902
      vertex 1.54508 4.75528 38.4557
      vertex 2.5 4.33013 38.2102
    endloop
  endfacet
  facet normal -1.92296e-16 -0.5 0.866025
    outer loop
      vertex 20 4.12215 38.0902
      vertex 2.5 4.33013 38.2102
      vertex 2.78626 4.12215 38.0902
    endloop
  endfacet
  facet normal -1.92296e-16 -0.5 0.866025
    outer loop
      vertex 20 5.93263 39.1355
      vertex -20 5.93263 39.1355
      vertex 20 4.12215 38.0902
    endloop
  endfacet
  facet normal -1.65011e-16 -0.669131 0.743145
    outer loop
      vertex -20 4.12215 38.0902
      vertex -20 2.56855 36.6913
      vertex -4.25892 2.56855 36.6913
    endloop
  endfacet
  facet normal -1.65011e-16 -0.669131 0.743145
    outer loop
      vertex -3.34565 3.71572 37.7242
      vertex -20 4.12215 38.0902
      vertex -4.04508 2.93893 37.0248
    endloop
  endfacet
  facet normal -1.65011e-16 -0.669131 0.743145
    outer loop
      vertex -4.04508 2.93893 37.0248
      vertex -20 4.12215 38.0902
      vertex -4.25892 2.56855 36.6913
    endloop
  endfacet
  facet normal -1.65011e-16 -0.669131 0.743145
    outer loop
      vertex -2.78626 4.12215 38.0902
      vertex -20 4.12215 38.0902
      vertex -3.34565 3.71572 37.7242
    endloop
  endfacet
  facet normal -1.30515e-16 -0.809017 0.587785
    outer loop
      vertex -20 2.56855 36.6913
      vertex -20 1.33975 35
      vertex -4.7932 1.33975 35
    endloop
  endfacet
  facet normal -1.30515e-16 -0.809017 0.587785
    outer loop
      vertex -4.25892 2.56855 36.6913
      vertex -20 2.56855 36.6913
      vertex -4.56773 2.03368 35.9551
    endloop
  endfacet
  facet normal -1.30515e-16 -0.809017 0.587785
    outer loop
      vertex -4.56773 2.03368 35.9551
      vertex -20 2.56855 36.6913
      vertex -4.7932 1.33975 35
    endloop
  endfacet
  facet normal -9.03137e-17 -0.913545 0.406737
    outer loop
      vertex -20 1.33975 35
      vertex -20 0.489435 33.0902
      vertex -4.94856 0.489435 33.0902
    endloop
  endfacet
  facet normal -9.03137e-17 -0.913545 0.406737
    outer loop
      vertex -4.7932 1.33975 35
      vertex -20 1.33975 35
      vertex -4.89074 1.03956 34.3258
    endloop
  endfacet
  facet normal -9.03137e-17 -0.913545 0.406737
    outer loop
      vertex -4.89074 1.03956 34.3258
      vertex -20 1.33975 35
      vertex -4.94856 0.489435 33.0902
    endloop
  endfacet
  facet normal -4.61657e-17 -0.978148 0.207912
    outer loop
      vertex -20 0.489435 33.0902
      vertex -20 0.2 31.7285
      vertex -4.97898 0.2 31.7285
    endloop
  endfacet
  facet normal -4.61657e-17 -0.978148 0.207912
    outer loop
      vertex -4.94856 0.489435 33.0902
      vertex -20 0.489435 33.0902
      vertex -4.97898 0.2 31.7285
    endloop
  endfacet
  facet normal -2.21121e-32 -1 9.9584e-17
    outer loop
      vertex -4.97898 0.2 30
      vertex -4.97898 0.2 31.7285
      vertex -20 0.2 31.7285
    endloop
  endfacet
  facet normal -2.21121e-32 -1 9.9584e-17
    outer loop
      vertex -20 0.2 30
      vertex -4.97898 0.2 30
      vertex -20 0.2 31.7285
    endloop
  endfacet
  facet normal -2.22045e-16 9.9584e-17 1
    outer loop
      vertex -4.98949 0.1 30
      vertex -4.97898 0.2 30
      vertex -20 0.2 30
    endloop
  endfacet
  facet normal -2.22045e-16 9.9584e-17 1
    outer loop
      vertex -20 0.1 30
      vertex -4.98949 0.1 30
      vertex -20 0.2 30
    endloop
  endfacet
  facet normal -2.321e-17 0.994522 0.104528
    outer loop
      vertex -20 0.054781 30.4302
      vertex -4.99424 0.054781 30.4302
      vertex -20 0.1 30
    endloop
  endfacet
  facet normal -2.321e-17 0.994522 0.104528
    outer loop
      vertex -20 0.1 30
      vertex -4.99424 0.054781 30.4302
      vertex -4.98949 0.1 30
    endloop
  endfacet
  facet normal 0 -1 0
    outer loop
      vertex -20 0.054781 30.4302
      vertex -20 0.054781 30
      vertex -4.99424 0.054781 30
    endloop
  endfacet
  facet normal 0 -1 0
    outer loop
      vertex -4.99424 0.054781 30.4302
      vertex -20 0.054781 30.4302
      vertex -4.99424 0.054781 30
    endloop
  endfacet
  facet normal -2.22045e-16 0 1
    outer loop
      vertex -4.98949 -0.1 30
      vertex -5 0 30
      vertex -20 0.054781 30
    endloop
  endfacet
  facet normal -2.22045e-16 0 1
    outer loop
      vertex -20 0.054781 30
      vertex -5 0 30
      vertex -4.99424 0.054781 30
    endloop
  endfacet
  facet normal -2.22045e-16 0 1
    outer loop
      vertex -4.98949 -0.1 30
      vertex -20 0.054781 30
      vertex -20 -0.1 30
    endloop
  endfacet
  facet normal 0 1 0
    outer loop
      vertex -4.98949 -0.1 31.9029
      vertex -4.98949 -0.1 30
      vertex -20 -0.1 31.9029
    endloop
  endfacet
  facet normal 0 1 0
    outer loop
      vertex -20 -0.1 31.9029
      vertex -4.98949 -0.1 30
      vertex -20 -0.1 30
    endloop
  endfacet
  facet normal -2.321e-17 0.994522 0.104528
    outer loop
      vertex -20 -0.118524 32.0791
      vertex -4.98754 -0.118524 32.0791
      vertex -20 -0.1 31.9029
    endloop
  endfacet
  facet normal -2.321e-17 0.994522 0.104528
    outer loop
      vertex -20 -0.1 31.9029
      vertex -4.98754 -0.118524 32.0791
      vertex -4.98949 -0.1 31.9029
    endloop
  endfacet
  facet normal -6.86155e-17 0.951057 0.309017
    outer loop
      vertex -20 -0.764545 34.0674
      vertex -4.91964 -0.764545 34.0674
      vertex -20 -0.118524 32.0791
    endloop
  endfacet
  facet normal -6.86155e-17 0.951057 0.309017
    outer loop
      vertex -20 -0.118524 32.0791
      vertex -4.91964 -0.764545 34.0674
      vertex -4.98754 -0.118524 32.0791
    endloop
  endfacet
  facet normal -1.11022e-16 0.866025 0.5
    outer loop
      vertex -20 -1.80983 35.8779
      vertex -4.64046 -1.80983 35.8779
      vertex -20 -0.764545 34.0674
    endloop
  endfacet
  facet normal -1.11022e-16 0.866025 0.5
    outer loop
      vertex -20 -0.764545 34.0674
      vertex -4.64046 -1.80983 35.8779
      vertex -4.89074 -1.03956 34.5437
    endloop
  endfacet
  facet normal -1.11022e-16 0.866025 0.5
    outer loop
      vertex -20 -0.764545 34.0674
      vertex -4.89074 -1.03956 34.5437
      vertex -4.91964 -0.764545 34.0674
    endloop
  endfacet
  facet normal -1.48577e-16 0.743145 0.669131
    outer loop
      vertex -20 -3.20869 37.4314
      vertex -3.80218 -3.20869 37.4314
      vertex -20 -1.80983 35.8779
    endloop
  endfacet
  facet normal -1.48577e-16 0.743145 0.669131
    outer loop
      vertex -20 -1.80983 35.8779
      vertex -3.80218 -3.20869 37.4314
      vertex -4.04508 -2.93893 37.1318
    endloop
  endfacet
  facet normal -1.48577e-16 0.743145 0.669131
    outer loop
      vertex -20 -1.80983 35.8779
      vertex -4.04508 -2.93893 37.1318
      vertex -4.56773 -2.03368 36.1265
    endloop
  endfacet
  facet normal -1.48577e-16 0.743145 0.669131
    outer loop
      vertex -4.56773 -2.03368 36.1265
      vertex -4.64046 -1.80983 35.8779
      vertex -20 -1.80983 35.8779
    endloop
  endfacet
  facet normal -1.79638e-16 0.587785 0.809017
    outer loop
      vertex -20 -3.20869 37.4314
      vertex -20 -4.9 38.6603
      vertex -0.864242 -4.9 38.6603
    endloop
  endfacet
  facet normal -1.79638e-16 0.587785 0.809017
    outer loop
      vertex -2.5 -4.33013 38.2462
      vertex -20 -3.20869 37.4314
      vertex -1.54508 -4.75528 38.5551
    endloop
  endfacet
  facet normal -1.79638e-16 0.587785 0.809017
    outer loop
      vertex -1.54508 -4.75528 38.5551
      vertex -20 -3.20869 37.4314
      vertex -0.864242 -4.9 38.6603
    endloop
  endfacet
  facet normal -1.79638e-16 0.587785 0.809017
    outer loop
      vertex -3.34565 -3.71572 37.7998
      vertex -20 -3.20869 37.4314
      vertex -2.5 -4.33013 38.2462
    endloop
  endfacet
  facet normal -1.79638e-16 0.587785 0.809017
    outer loop
      vertex -3.80218 -3.20869 37.4314
      vertex -20 -3.20869 37.4314
      vertex -3.34565 -3.71572 37.7998
    endloop
  endfacet
  facet normal -2.02848e-16 0.406737 0.913545
    outer loop
      vertex -20 -4.9 38.6603
      vertex -20 -6.80983 39.5106
      vertex 20 -6.80983 39.5106
    endloop
  endfacet
  facet normal -2.02848e-16 0.406737 0.913545
    outer loop
      vertex -0.522642 -4.97261 38.6926
      vertex -20 -4.9 38.6603
      vertex 20 -6.80983 39.5106
    endloop
  endfacet
  facet normal -2.02848e-16 0.406737 0.913545
    outer loop
      vertex 20 -4.9 38.6603
      vertex 0.864242 -4.9 38.6603
      vertex 20 -6.80983 39.5106
    endloop
  endfacet
  facet normal -2.02848e-16 0.406737 0.913545
    outer loop
      vertex 0.864242 -4.9 38.6603
      vertex 0.522642 -4.97261 38.6926
      vertex 20 -6.80983 39.5106
    endloop
  endfacet
  facet normal -2.02848e-16 0.406737 0.913545
    outer loop
      vertex 0.522642 -4.97261 38.6926
      vertex -0.522642 -4.97261 38.6926
      vertex 20 -6.80983 39.5106
    endloop
  endfacet
  facet normal -2.02848e-16 0.406737 0.913545
    outer loop
      vertex -0.522642 -4.97261 38.6926
      vertex -0.864242 -4.9 38.6603
      vertex -20 -4.9 38.6603
    endloop
  endfacet
  facet normal -2.17192e-16 0.207912 0.978148
    outer loop
      vertex -20 -6.80983 39.5106
      vertex -20 -8.85471 39.9452
      vertex 20 -8.85471 39.9452
    endloop
  endfacet
  facet normal -2.17192e-16 0.207912 0.978148
    outer loop
      vertex 20 -6.80983 39.5106
      vertex -20 -6.80983 39.5106
      vertex 20 -8.85471 39.9452
    endloop
  endfacet
  facet normal -2.22045e-16 9.9584e-17 1
    outer loop
      vertex -20 -8.85471 39.9452
      vertex -20 -9.9 39.9452
      vertex 20 -9.9 39.9452
    endloop
  endfacet
  facet normal -2.22045e-16 9.9584e-17 1
    outer loop
      vertex 20 -8.85471 39.9452
      vertex -20 -8.85471 39.9452
      vertex 20 -9.9 39.9452
    endloop
  endfacet
  facet normal 2.21121e-32 1 -9.9584e-17
    outer loop
      vertex 20 -9.9 40
      vertex 20 -9.9 39.9452
      vertex -20 -9.9 40
    endloop
  endfacet
  facet normal 2.21121e-32 1 -9.9584e-17
    outer loop
      vertex -20 -9.9 40
      vertex 20 -9.9 39.9452
      vertex -20 -9.9 39.9452
    endloop
  endfacet
  facet normal 1 0 0
    outer loop
      vertex 20 0.2 30
      vertex 20 -10 25
      vertex 20 11 25
    endloop
  endfacet
  facet normal 1 0 0
    outer loop
      vertex 20 -0.1 30
      vertex 20 -0.1 31.9029
      vertex 20 -10 25
    endloop
  endfacet
  facet normal 1 0 0
    outer loop
      vertex 20 11 40
      vertex 20 10 40
      vertex 20 11 25
    endloop
  endfacet
  facet normal 1 0 0
    outer loop
      vertex 20 10 40
      vertex 20 7.92088 39.7815
      vertex 20 11 25
    endloop
  endfacet
  facet normal 1 0 0
    outer loop
      vertex 20 7.92088 39.7815
      vertex 20 5.93263 39.1355
      vertex 20 11 25
    endloop
  endfacet
  facet normal 1 0 0
    outer loop
      vertex 20 5.93263 39.1355
      vertex 20 4.12215 38.0902
      vertex 20 11 25
    endloop
  endfacet
  facet normal 1 0 0
    outer loop
      vertex 20 -8.85471 39.9452
      vertex 20 -4.9 38.6603
      vertex 20 -6.80983 39.5106
    endloop
  endfacet
  facet normal 1 0 0
    outer loop
      vertex 20 4.12215 38.0902
      vertex 20 2.56855 36.6913
      vertex 20 11 25
    endloop
  endfacet
  facet normal 1 0 0
    outer loop
      vertex 20 2.56855 36.6913
      vertex 20 1.33975 35
      vertex 20 11 25
    endloop
  endfacet
  facet normal 1 0 0
    outer loop
      vertex 20 1.33975 35
      vertex 20 0.489435 33.0902
      vertex 20 11 25
    endloop
  endfacet
  facet normal 1 0 0
    outer loop
      vertex 20 0.2 31.7285
      vertex 20 0.2 30
      vertex 20 11 25
    endloop
  endfacet
  facet normal 1 0 0
    outer loop
      vertex 20 0.1 30
      vertex 20 -10 25
      vertex 20 0.2 30
    endloop
  endfacet
  facet normal 1 0 0
    outer loop
      vertex 20 0.054781 30
      vertex 20 -10 25
      vertex 20 0.1 30
    endloop
  endfacet
  facet normal 1 0 0
    outer loop
      vertex 20 -0.1 31.9029
      vertex 20 -0.118524 32.0791
      vertex 20 -10 40
    endloop
  endfacet
  facet normal 1 0 0
    outer loop
      vertex 20 0.054781 30.4302
      vertex 20 0.054781 30
      vertex 20 0.1 30
    endloop
  endfacet
  facet normal 1 0 0
    outer loop
      vertex 20 -0.1 30
      vertex 20 -10 25
      vertex 20 0.054781 30
    endloop
  endfacet
  facet normal 1 0 0
    outer loop
      vertex 20 -0.118524 32.0791
      vertex 20 -0.764545 34.0674
      vertex 20 -10 40
    endloop
  endfacet
  facet normal 1 0 0
    outer loop
      vertex 20 -10 40
      vertex 20 -10 25
      vertex 20 -0.1 31.9029
    endloop
  endfacet
  facet normal 1 0 0
    outer loop
      vertex 20 -9.9 39.9452
      vertex 20 -10 40
      vertex 20 -0.764545 34.0674
    endloop
  endfacet
  facet normal 1 0 0
    outer loop
      vertex 20 -9.9 39.9452
      vertex 20 -9.9 40
      vertex 20 -10 40
    endloop
  endfacet
  facet normal 1 0 0
    outer loop
      vertex 20 -8.85471 39.9452
      vertex 20 -3.20869 37.4314
      vertex 20 -4.9 38.6603
    endloop
  endfacet
  facet normal 1 0 0
    outer loop
      vertex 20 -1.80983 35.8779
      vertex 20 -9.9 39.9452
      vertex 20 -0.764545 34.0674
    endloop
  endfacet
  facet normal 1 0 0
    outer loop
      vertex 20 0.489435 33.0902
      vertex 20 0.2 31.7285
      vertex 20 11 25
    endloop
  endfacet
  facet normal 1 0 0
    outer loop
      vertex 20 -8.85471 39.9452
      vertex 20 -1.80983 35.8779
      vertex 20 -3.20869 37.4314
    endloop
  endfacet
  facet normal 1 0 0
    outer loop
      vertex 20 -8.85471 39.9452
      vertex 20 -9.9 39.9452
      vertex 20 -1.80983 35.8779
    endloop
  endfacet
  facet normal 2.22045e-16 -1 0
    outer loop
      vertex 20 -10 25
      vertex 20 -10 40
      vertex 19.9452 -10 40
    endloop
  endfacet
  facet normal 2.22045e-16 -1 0
    outer loop
      vertex 19.9452 -10 25
      vertex 20 -10 25
      vertex 19.9452 -10 40
    endloop
  endfacet
  facet normal 1 2.22045e-16 0
    outer loop
      vertex 19.9452 -11.0453 25
      vertex 19.9452 -10 25
      vertex 19.9452 -10 40
    endloop
  endfacet
  facet normal 1 2.22045e-16 0
    outer loop
      vertex 19.9452 -11.0453 40
      vertex 19.9452 -11.0453 25
      vertex 19.9452 -10 40
    endloop
  endfacet
  facet normal 0.978148 -0.207912 0
    outer loop
      vertex 19.5106 -13.0902 40
      vertex 19.5106 -13.0902 25
      vertex 19.9452 -11.0453 25
    endloop
  endfacet
  facet normal 0.978148 -0.207912 0
    outer loop
      vertex 19.9452 -11.0453 40
      vertex 19.5106 -13.0902 40
      vertex 19.9452 -11.0453 25
    endloop
  endfacet
  facet normal 0.913545 -0.406737 0
    outer loop
      vertex 18.6603 -15 39.597
      vertex 18.6603 -15 25
      vertex 19.5106 -13.0902 25
    endloop
  endfacet
  facet normal 0.913545 -0.406737 0
    outer loop
      vertex 18.971 -14.302 40
      vertex 18.6603 -15 39.597
      vertex 19.5106 -13.0902 40
    endloop
  endfacet
  facet normal 0.913545 -0.406737 0
    outer loop
      vertex 19.5106 -13.0902 40
      vertex 18.6603 -15 39.597
      vertex 19.5106 -13.0902 25
    endloop
  endfacet
  facet normal -1.92296e-16 -0.5 0.866025
    outer loop
      vertex 18.971 -14.302 40
      vertex -19 -14.302 40
      vertex -18.0902 -15.8779 39.0902
    endloop
  endfacet
  facet normal -1.92296e-16 -0.5 0.866025
    outer loop
      vertex 18.6603 -15 39.597
      vertex 18.971 -14.302 40
      vertex 18.0225 -15.8779 39.0902
    endloop
  endfacet
  facet normal -1.92296e-16 -0.5 0.866025
    outer loop
      vertex 18.0225 -15.8779 39.0902
      vertex 18.971 -14.302 40
      vertex -18.0902 -15.8779 39.0902
    endloop
  endfacet
  facet normal -1.65011e-16 -0.669131 0.743145
    outer loop
      vertex 16.6094 -17.4314 37.6913
      vertex 18.0225 -15.8779 39.0902
      vertex -16.6913 -17.4314 37.6913
    endloop
  endfacet
  facet normal -1.65011e-16 -0.669131 0.743145
    outer loop
      vertex -16.6913 -17.4314 37.6913
      vertex 18.0225 -15.8779 39.0902
      vertex -18.0902 -15.8779 39.0902
    endloop
  endfacet
  facet normal -1.65011e-16 -0.669131 0.743145
    outer loop
      vertex 17.4314 -16.6913 38.3577
      vertex 18.0225 -15.8779 39.0902
      vertex 16.6094 -17.4314 37.6913
    endloop
  endfacet
  facet normal -1.30515e-16 -0.809017 0.587785
    outer loop
      vertex 14.8904 -18.6603 36
      vertex 16.6094 -17.4314 37.6913
      vertex -15 -18.6603 36
    endloop
  endfacet
  facet normal -1.30515e-16 -0.809017 0.587785
    outer loop
      vertex -15 -18.6603 36
      vertex 16.6094 -17.4314 37.6913
      vertex -16.6913 -17.4314 37.6913
    endloop
  endfacet
  facet normal -1.30515e-16 -0.809017 0.587785
    outer loop
      vertex 15.8779 -18.0902 36.7847
      vertex 16.6094 -17.4314 37.6913
      vertex 14.8904 -18.6603 36
    endloop
  endfacet
  facet normal -9.03137e-17 -0.913545 0.406737
    outer loop
      vertex 12.9129 -19.5106 34.0902
      vertex 14.8904 -18.6603 36
      vertex -13.0902 -19.5106 34.0902
    endloop
  endfacet
  facet normal -9.03137e-17 -0.913545 0.406737
    outer loop
      vertex -13.0902 -19.5106 34.0902
      vertex 14.8904 -18.6603 36
      vertex -15 -18.6603 36
    endloop
  endfacet
  facet normal -9.03137e-17 -0.913545 0.406737
    outer loop
      vertex 14.0674 -19.1355 34.9327
      vertex 14.8904 -18.6603 36
      vertex 12.9129 -19.5106 34.0902
    endloop
  endfacet
  facet normal -4.61657e-17 -0.978148 0.207912
    outer loop
      vertex 10.5212 -19.9452 32.0453
      vertex 12.9129 -19.5106 34.0902
      vertex -11.0453 -19.9452 32.0453
    endloop
  endfacet
  facet normal -4.61657e-17 -0.978148 0.207912
    outer loop
      vertex -11.0453 -19.9452 32.0453
      vertex 12.9129 -19.5106 34.0902
      vertex -13.0902 -19.5106 34.0902
    endloop
  endfacet
  facet normal -4.61657e-17 -0.978148 0.207912
    outer loop
      vertex 12.0791 -19.7815 32.8156
      vertex 12.9129 -19.5106 34.0902
      vertex 10.5212 -19.9452 32.0453
    endloop
  endfacet
  facet normal 0 -1 0
    outer loop
      vertex -11.0453 -19.9452 32.0453
      vertex -11.0453 -19.9452 31
      vertex 10.5212 -19.9452 31
    endloop
  endfacet
  facet normal 0 -1 0
    outer loop
      vertex 10.5212 -19.9452 32.0453
      vertex -11.0453 -19.9452 32.0453
      vertex 10.5212 -19.9452 31
    endloop
  endfacet
  facet normal -2.22045e-16 0 1
    outer loop
      vertex 10 -20 31
      vertex -10 -19.9452 31
      vertex -10 -20 31
    endloop
  endfacet
  facet normal -2.22045e-16 0 1
    outer loop
      vertex 10.5212 -19.9452 31
      vertex -10 -19.9452 31
      vertex 10 -20 31
    endloop
  endfacet
  facet normal -2.22045e-16 0 1
    outer loop
      vertex -11.0453 -19.9452 31
      vertex -10 -19.9452 31
      vertex 10.5212 -19.9452 31
    endloop
  endfacet
  facet normal 0 -1 0
    outer loop
      vertex -10 -20 31
      vertex -10 -20 0
      vertex 10 -20 0
    endloop
  endfacet
  facet normal 0 -1 0
    outer loop
      vertex 10 -20 25
      vertex -10 -20 31
      vertex 10 -20 0
    endloop
  endfacet
  facet normal 0 -1 0
    outer loop
      vertex 10 -20 31
      vertex -10 -20 31
      vertex 10 -20 25
    endloop
  endfacet
  facet normal 0 0 -1
    outer loop
      vertex -10 -20 0
      vertex -10 -10 0
      vertex 10 -20 0
    endloop
  endfacet
  facet normal 0 0 -1
    outer loop
      vertex 10 -20 0
      vertex -10 -10 0
      vertex 10 -10 0
    endloop
  endfacet
  facet normal 4.93038e-32 1 -2.22045e-16
    outer loop
      vertex 10 -10 10
      vertex 10 -10 0
      vertex -10 -10 10
    endloop
  endfacet
  facet normal 4.93038e-32 1 -2.22045e-16
    outer loop
      vertex -10 -10 10
      vertex 10 -10 0
      vertex -10 -10 0
    endloop
  endfacet
  facet normal 2.22045e-16 -2.22045e-16 -1
    outer loop
      vertex 10 -5 10
      vertex 10 -10 10
      vertex -10 -5 10
    endloop
  endfacet
  facet normal 2.22045e-16 -2.22045e-16 -1
    outer loop
      vertex -10 -5 10
      vertex 10 -10 10
      vertex -10 -10 10
    endloop
  endfacet
  facet normal -4.93038e-32 -1 2.22045e-16
    outer loop
      vertex 10 -5 0
      vertex 10 -5 10
      vertex -10 -5 10
    endloop
  endfacet
  facet normal -4.93038e-32 -1 2.22045e-16
    outer loop
      vertex -10 -5 0
      vertex 10 -5 0
      vertex -10 -5 10
    endloop
  endfacet
  facet normal 0 0 -1
    outer loop
      vertex 0.522642 4.97261 0
      vertex -10 5 0
      vertex 10 5 0
    endloop
  endfacet
  facet normal 0 0 -1
    outer loop
      vertex -10 -5 0
      vertex -10 5 0
      vertex -5 0 0
    endloop
  endfacet
  facet normal 0 0 -1
    outer loop
      vertex -4.89074 1.03956 0
      vertex -10 5 0
      vertex -4.56773 2.03368 0
    endloop
  endfacet
  facet normal 0 0 -1
    outer loop
      vertex -10 -5 0
      vertex -5 0 0
      vertex -4.89074 -1.03956 0
    endloop
  endfacet
  facet normal 0 0 -1
    outer loop
      vertex -10 -5 0
      vertex -4.89074 -1.03956 0
      vertex -4.56773 -2.03368 0
    endloop
  endfacet
  facet normal 0 0 -1
    outer loop
      vertex -10 -5 0
      vertex -4.56773 -2.03368 0
      vertex -4.04508 -2.93893 0
    endloop
  endfacet
  facet normal 0 0 -1
    outer loop
      vertex -10 -5 0
      vertex -4.04508 -2.93893 0
      vertex -3.34565 -3.71572 0
    endloop
  endfacet
  facet normal 0 0 -1
    outer loop
      vertex -10 -5 0
      vertex -3.34565 -3.71572 0
      vertex -2.5 -4.33013 0
    endloop
  endfacet
  facet normal 0 0 -1
    outer loop
      vertex -10 -5 0
      vertex -2.5 -4.33013 0
      vertex -1.54508 -4.75528 0
    endloop
  endfacet
  facet normal 0 0 -1
    outer loop
      vertex -10 -5 0
      vertex -1.54508 -4.75528 0
      vertex -0.522642 -4.97261 0
    endloop
  endfacet
  facet normal 0 0 -1
    outer loop
      vertex -10 -5 0
      vertex -0.522642 -4.97261 0
      vertex 10 -5 0
    endloop
  endfacet
  facet normal 0 0 -1
    outer loop
      vertex -0.522642 -4.97261 0
      vertex 0.522642 -4.97261 0
      vertex 10 -5 0
    endloop
  endfacet
  facet normal 0 0 -1
    outer loop
      vertex 2.5 -4.33013 0
      vertex 10 -5 0
      vertex 1.54508 -4.75528 0
    endloop
  endfacet
  facet normal 0 0 -1
    outer loop
      vertex 3.34565 -3.71572 0
      vertex 10 -5 0
      vertex 2.5 -4.33013 0
    endloop
  endfacet
  facet normal 0 0 -1
    outer loop
      vertex 4.04508 -2.93893 0
      vertex 10 -5 0
      vertex 3.34565 -3.71572 0
    endloop
  endfacet
  facet normal 0 0 -1
    outer loop
      vertex 4.56773 -2.03368 0
      vertex 10 -5 0
      vertex 4.04508 -2.93893 0
    endloop
  endfacet
  facet normal 0 0 -1
    outer loop
      vertex -1.54508 4.75528 0
      vertex -10 5 0
      vertex -0.522642 4.97261 0
    endloop
  endfacet
  facet normal 0 0 -1
    outer loop
      vertex 10 -5 0
      vertex 4.56773 -2.03368 0
      vertex 10 5 0
    endloop
  endfacet
  facet normal 0 0 -1
    outer loop
      vertex 4.56773 -2.03368 0
      vertex 4.89074 -1.03956 0
      vertex 10 5 0
    endloop
  endfacet
  facet normal 0 0 -1
    outer loop
      vertex -4.56773 2.03368 0
      vertex -10 5 0
      vertex -4.04508 2.93893 0
    endloop
  endfacet
  facet normal 0 0 -1
    outer loop
      vertex 4.89074 -1.03956 0
      vertex 5 0 0
      vertex 10 5 0
    endloop
  endfacet
  facet normal 0 0 -1
    outer loop
      vertex 5 0 0
      vertex 4.89074 1.03956 0
      vertex 10 5 0
    endloop
  endfacet
  facet normal 0 0 -1
    outer loop
      vertex 4.89074 1.03956 0
      vertex 4.56773 2.03368 0
      vertex 10 5 0
    endloop
  endfacet
  facet normal 0 0 -1
    outer loop
      vertex -4.04508 2.93893 0
      vertex -10 5 0
      vertex -3.34565 3.71572 0
    endloop
  endfacet
  facet normal 0 0 -1
    outer loop
      vertex 4.56773 2.03368 0
      vertex 4.04508 2.93893 0
      vertex 10 5 0
    endloop
  endfacet
  facet normal 0 0 -1
    outer loop
      vertex 4.04508 2.93893 0
      vertex 3.34565 3.71572 0
      vertex 10 5 0
    endloop
  endfacet
  facet normal 0 0 -1
    outer loop
      vertex -3.34565 3.71572 0
      vertex -10 5 0
      vertex -2.5 4.33013 0
    endloop
  endfacet
  facet normal 0 0 -1
    outer loop
      vertex 3.34565 3.71572 0
      vertex 2.5 4.33013 0
      vertex 10 5 0
    endloop
  endfacet
  facet normal 0 0 -1
    outer loop
      vertex -2.5 4.33013 0
      vertex -10 5 0
      vertex -1.54508 4.75528 0
    endloop
  endfacet
  facet normal 0 0 -1
    outer loop
      vertex 2.5 4.33013 0
      vertex 1.54508 4.75528 0
      vertex 10 5 0
    endloop
  endfacet
  facet normal 0 0 -1
    outer loop
      vertex -0.522642 4.97261 0
      vertex -10 5 0
      vertex 0.522642 4.97261 0
    endloop
  endfacet
  facet normal 0 0 -1
    outer loop
      vertex 1.54508 4.75528 0
      vertex 0.522642 4.97261 0
      vertex 10 5 0
    endloop
  endfacet
  facet normal 0 0 -1
    outer loop
      vertex -5 0 0
      vertex -10 5 0
      vertex -4.89074 1.03956 0
    endloop
  endfacet
  facet normal 0 0 -1
    outer loop
      vertex 1.54508 -4.75528 0
      vertex 10 -5 0
      vertex 0.522642 -4.97261 0
    endloop
  endfacet
  facet normal 4.93038e-32 1 -2.22045e-16
    outer loop
      vertex 10 5 10
      vertex 10 5 0
      vertex -10 5 10
    endloop
  endfacet
  facet normal 4.93038e-32 1 -2.22045e-16
    outer loop
      vertex -10 5 10
      vertex 10 5 0
      vertex -10 5 0
    endloop
  endfacet
  facet normal 2.22045e-16 -2.22045e-16 -1
    outer loop
      vertex 10 10 10
      vertex 10 5 10
      vertex -10 10 10
    endloop
  endfacet
  facet normal 2.22045e-16 -2.22045e-16 -1
    outer loop
      vertex -10 10 10
      vertex 10 5 10
      vertex -10 5 10
    endloop
  endfacet
  facet normal -4.93038e-32 -1 2.22045e-16
    outer loop
      vertex 10 10 0
      vertex 10 10 10
      vertex -10 10 10
    endloop
  endfacet
  facet normal -4.93038e-32 -1 2.22045e-16
    outer loop
      vertex -10 10 0
      vertex 10 10 0
      vertex -10 10 10
    endloop
  endfacet
  facet normal 0 0 -1
    outer loop
      vertex -10 10 0
      vertex -10 20 0
      vertex 10 10 0
    endloop
  endfacet
  facet normal 0 0 -1
    outer loop
      vertex 10 10 0
      vertex -10 20 0
      vertex 10 20 0
    endloop
  endfacet
  facet normal 1 0 0
    outer loop
      vertex 10 20 25
      vertex 10 -10 10
      vertex 10 -5 10
    endloop
  endfacet
  facet normal 1 0 0
    outer loop
      vertex 10 5 10
      vertex 10 20 25
      vertex 10 -5 10
    endloop
  endfacet
  facet normal 1 0 0
    outer loop
      vertex 10 -10 0
      vertex 10 -10 10
      vertex 10 -20 25
    endloop
  endfacet
  facet normal 1 0 0
    outer loop
      vertex 10 -5 0
      vertex 10 5 0
      vertex 10 -5 10
    endloop
  endfacet
  facet normal 1 0 0
    outer loop
      vertex 10 5 0
      vertex 10 5 10
      vertex 10 -5 10
    endloop
  endfacet
  facet normal 1 0 0
    outer loop
      vertex 10 10 10
      vertex 10 20 25
      vertex 10 5 10
    endloop
  endfacet
  facet normal 1 0 0
    outer loop
      vertex 10 10 0
      vertex 10 20 0
      vertex 10 10 10
    endloop
  endfacet
  facet normal 1 0 0
    outer loop
      vertex 10 20 0
      vertex 10 20 25
      vertex 10 10 10
    endloop
  endfacet
  facet normal 1 0 0
    outer loop
      vertex 10 20 25
      vertex 10 -20 25
      vertex 10 -10 10
    endloop
  endfacet
  facet normal 1 0 0
    outer loop
      vertex 10 -20 25
      vertex 10 -20 0
      vertex 10 -10 0
    endloop
  endfacet
  facet normal 0 -2.22045e-16 -1
    outer loop
      vertex 14.2369 20 25
      vertex 15 19.6603 25
      vertex 10 20 25
    endloop
  endfacet
  facet normal 0 -2.22045e-16 -1
    outer loop
      vertex 10 20 25
      vertex 15 19.6603 25
      vertex 16.6913 18.4314 25
    endloop
  endfacet
  facet normal 0 -2.22045e-16 -1
    outer loop
      vertex 10 20 25
      vertex 16.6913 18.4314 25
      vertex 18.0902 16.8779 25
    endloop
  endfacet
  facet normal 0 -2.22045e-16 -1
    outer loop
      vertex 10 20 25
      vertex 18.0902 16.8779 25
      vertex 19.1355 15.0674 25
    endloop
  endfacet
  facet normal 0 -2.22045e-16 -1
    outer loop
      vertex 10 20 25
      vertex 19.1355 15.0674 25
      vertex 19.7815 13.0791 25
    endloop
  endfacet
  facet normal 0 -2.22045e-16 -1
    outer loop
      vertex 10 20 25
      vertex 19.7815 13.0791 25
      vertex 20 11 25
    endloop
  endfacet
  facet normal 0 -2.22045e-16 -1
    outer loop
      vertex 10 20 25
      vertex 20 11 25
      vertex 20 -10 25
    endloop
  endfacet
  facet normal 0 -2.22045e-16 -1
    outer loop
      vertex 10 20 25
      vertex 20 -10 25
      vertex 19.9452 -10 25
    endloop
  endfacet
  facet normal 0 -2.22045e-16 -1
    outer loop
      vertex 10 20 25
      vertex 19.9452 -10 25
      vertex 19.9452 -11.0453 25
    endloop
  endfacet
  facet normal 0 -2.22045e-16 -1
    outer loop
      vertex 10 20 25
      vertex 19.9452 -11.0453 25
      vertex 19.5106 -13.0902 25
    endloop
  endfacet
  facet normal 0 -2.22045e-16 -1
    outer loop
      vertex 10 20 25
      vertex 19.5106 -13.0902 25
      vertex 18.6603 -15 25
    endloop
  endfacet
  facet normal 0 -2.22045e-16 -1
    outer loop
      vertex 10 20 25
      vertex 18.6603 -15 25
      vertex 17.4314 -16.6913 25
    endloop
  endfacet
  facet normal 0 -2.22045e-16 -1
    outer loop
      vertex 10 20 25
      vertex 17.4314 -16.6913 25
      vertex 15.8779 -18.0902 25
    endloop
  endfacet
  facet normal 0 -2.22045e-16 -1
    outer loop
      vertex 10 20 25
      vertex 15.8779 -18.0902 25
      vertex 14.0674 -19.1355 25
    endloop
  endfacet
  facet normal 0 -2.22045e-16 -1
    outer loop
      vertex 10 20 25
      vertex 14.0674 -19.1355 25
      vertex 12.0791 -19.7815 25
    endloop
  endfacet
  facet normal 0 -2.22045e-16 -1
    outer loop
      vertex 10 20 25
      vertex 12.0791 -19.7815 25
      vertex 10 -20 25
    endloop
  endfacet
  facet normal 0.406737 0.913545 0
    outer loop
      vertex 14.2369 20 25
      vertex 14.2369 20 31
      vertex 15 19.6603 25
    endloop
  endfacet
  facet normal 0.406737 0.913545 0
    outer loop
      vertex 15 19.6603 25
      vertex 14.2369 20 31
      vertex 14.7277 19.7815 33.0791
    endloop
  endfacet
  facet normal 0.406737 0.913545 0
    outer loop
      vertex 15 19.6603 25
      vertex 14.7277 19.7815 33.0791
      vertex 15 19.6603 33.4522
    endloop
  endfacet
  facet normal -2.321e-17 0.994522 0.104528
    outer loop
      vertex -14.6805 19.7815 33.0791
      vertex 14.7277 19.7815 33.0791
      vertex -14.302 20 31
    endloop
  endfacet
  facet normal -2.321e-17 0.994522 0.104528
    outer loop
      vertex -14.302 20 31
      vertex 14.7277 19.7815 33.0791
      vertex 14.2369 20 31
    endloop
  endfacet
  facet normal -6.86155e-17 0.951057 0.309017
    outer loop
      vertex -15.7994 19.1355 35.0674
      vertex 15.7223 19.1355 35.0674
      vertex -14.6805 19.7815 33.0791
    endloop
  endfacet
  facet normal -6.86155e-17 0.951057 0.309017
    outer loop
      vertex -14.6805 19.7815 33.0791
      vertex 15.7223 19.1355 35.0674
      vertex 15 19.6603 33.4522
    endloop
  endfacet
  facet normal -6.86155e-17 0.951057 0.309017
    outer loop
      vertex -14.6805 19.7815 33.0791
      vertex 15 19.6603 33.4522
      vertex 14.7277 19.7815 33.0791
    endloop
  endfacet
  facet normal -1.11022e-16 0.866025 0.5
    outer loop
      vertex -16.9885 18.0902 36.8779
      vertex 16.9986 18.0902 36.8779
      vertex -15.8779 19.0902 35.1458
    endloop
  endfacet
  facet normal -1.11022e-16 0.866025 0.5
    outer loop
      vertex -15.8779 19.0902 35.1458
      vertex 16.9986 18.0902 36.8779
      vertex 16.6913 18.4314 36.2867
    endloop
  endfacet
  facet normal -1.11022e-16 0.866025 0.5
    outer loop
      vertex -15.8779 19.0902 35.1458
      vertex 16.6913 18.4314 36.2867
      vertex 15.7223 19.1355 35.0674
    endloop
  endfacet
  facet normal -1.11022e-16 0.866025 0.5
    outer loop
      vertex -15.8779 19.0902 35.1458
      vertex 15.7223 19.1355 35.0674
      vertex -15.7994 19.1355 35.0674
    endloop
  endfacet
  facet normal -1.48577e-16 0.743145 0.669131
    outer loop
      vertex -18.158 16.6913 38.4314
      vertex 18.1979 16.6913 38.4314
      vertex -17.4314 17.6913 37.3208
    endloop
  endfacet
  facet normal -1.48577e-16 0.743145 0.669131
    outer loop
      vertex -17.4314 17.6913 37.3208
      vertex 18.1979 16.6913 38.4314
      vertex 18.0902 16.8779 38.2243
    endloop
  endfacet
  facet normal -1.48577e-16 0.743145 0.669131
    outer loop
      vertex -17.4314 17.6913 37.3208
      vertex 18.0902 16.8779 38.2243
      vertex 16.9986 18.0902 36.8779
    endloop
  endfacet
  facet normal -1.48577e-16 0.743145 0.669131
    outer loop
      vertex -17.4314 17.6913 37.3208
      vertex 16.9986 18.0902 36.8779
      vertex -16.9885 18.0902 36.8779
    endloop
  endfacet
  facet normal -1.79638e-16 0.587785 0.809017
    outer loop
      vertex -18.6603 16 38.9337
      vertex -19.1055 15 39.6603
      vertex 19.1573 15 39.6603
    endloop
  endfacet
  facet normal -1.79638e-16 0.587785 0.809017
    outer loop
      vertex 18.1979 16.6913 38.4314
      vertex -18.6603 16 38.9337
      vertex 19.1355 15.0674 39.6113
    endloop
  endfacet
  facet normal -1.79638e-16 0.587785 0.809017
    outer loop
      vertex 19.1355 15.0674 39.6113
      vertex -18.6603 16 38.9337
      vertex 19.1573 15 39.6603
    endloop
  endfacet
  facet normal -1.79638e-16 0.587785 0.809017
    outer loop
      vertex -18.158 16.6913 38.4314
      vertex -18.6603 16 38.9337
      vertex 18.1979 16.6913 38.4314
    endloop
  endfacet
  facet normal -2.02848e-16 0.406737 0.913545
    outer loop
      vertex -19.1055 15 39.6603
      vertex -19.4452 14.2369 40
      vertex 19.4053 14.2369 40
    endloop
  endfacet
  facet normal -2.02848e-16 0.406737 0.913545
    outer loop
      vertex 19.1573 15 39.6603
      vertex -19.1055 15 39.6603
      vertex 19.4053 14.2369 40
    endloop
  endfacet
  facet normal 0.951057 0.309017 0
    outer loop
      vertex 19.7815 13.0791 25
      vertex 19.1355 15.0674 25
      vertex 19.1355 15.0674 39.6113
    endloop
  endfacet
  facet normal 0.951057 0.309017 0
    outer loop
      vertex 19.4053 14.2369 40
      vertex 19.7815 13.0791 25
      vertex 19.1573 15 39.6603
    endloop
  endfacet
  facet normal 0.951057 0.309017 0
    outer loop
      vertex 19.1573 15 39.6603
      vertex 19.7815 13.0791 25
      vertex 19.1355 15.0674 39.6113
    endloop
  endfacet
  facet normal 0.951057 0.309017 0
    outer loop
      vertex 19.7815 13.0791 40
      vertex 19.7815 13.0791 25
      vertex 19.4053 14.2369 40
    endloop
  endfacet
  facet normal 0.994522 0.104528 0
    outer loop
      vertex 20 11 25
      vertex 19.7815 13.0791 25
      vertex 19.7815 13.0791 40
    endloop
  endfacet
  facet normal 0.994522 0.104528 0
    outer loop
      vertex 20 11 40
      vertex 20 11 25
      vertex 19.7815 13.0791 40
    endloop
  endfacet
  facet normal -1.65011e-16 -0.669131 0.743145
    outer loop
      vertex 20 4.12215 38.0902
      vertex 2.78626 4.12215 38.0902
      vertex 3.34565 3.71572 37.7242
    endloop
  endfacet
  facet normal -1.65011e-16 -0.669131 0.743145
    outer loop
      vertex 4.04508 2.93893 37.0248
      vertex 20 4.12215 38.0902
      vertex 3.34565 3.71572 37.7242
    endloop
  endfacet
  facet normal -1.65011e-16 -0.669131 0.743145
    outer loop
      vertex 4.04508 2.93893 37.0248
      vertex 4.25892 2.56855 36.6913
      vertex 20 4.12215 38.0902
    endloop
  endfacet
  facet normal -1.65011e-16 -0.669131 0.743145
    outer loop
      vertex 4.25892 2.56855 36.6913
      vertex 20 2.56855 36.6913
      vertex 20 4.12215 38.0902
    endloop
  endfacet
  facet normal -0.587785 -0.809017 0
    outer loop
      vertex 3.34565 3.71572 0
      vertex 3.34565 3.71572 37.7242
      vertex 2.78626 4.12215 38.0902
    endloop
  endfacet
  facet normal -0.587785 -0.809017 0
    outer loop
      vertex 2.5 4.33013 0
      vertex 3.34565 3.71572 0
      vertex 2.5 4.33013 38.2102
    endloop
  endfacet
  facet normal -0.587785 -0.809017 0
    outer loop
      vertex 2.5 4.33013 38.2102
      vertex 3.34565 3.71572 0
      vertex 2.78626 4.12215 38.0902
    endloop
  endfacet
  facet normal -0.406737 -0.913545 0
    outer loop
      vertex 2.5 4.33013 0
      vertex 2.5 4.33013 38.2102
      vertex 1.54508 4.75528 38.4557
    endloop
  endfacet
  facet normal -0.406737 -0.913545 0
    outer loop
      vertex 1.54508 4.75528 0
      vertex 2.5 4.33013 0
      vertex 1.54508 4.75528 38.4557
    endloop
  endfacet
  facet normal -0.207911 -0.978148 0
    outer loop
      vertex 1.54508 4.75528 0
      vertex 1.54508 4.75528 38.4557
      vertex 0.522642 4.97261 38.5812
    endloop
  endfacet
  facet normal -0.207911 -0.978148 0
    outer loop
      vertex 0.522642 4.97261 0
      vertex 1.54508 4.75528 0
      vertex 0.522642 4.97261 38.5812
    endloop
  endfacet
  facet normal 0 -1 0
    outer loop
      vertex 0.522642 4.97261 0
      vertex 0.522642 4.97261 38.5812
      vertex -0.522642 4.97261 38.5812
    endloop
  endfacet
  facet normal 0 -1 0
    outer loop
      vertex -0.522642 4.97261 0
      vertex 0.522642 4.97261 0
      vertex -0.522642 4.97261 38.5812
    endloop
  endfacet
  facet normal 0.207911 -0.978148 0
    outer loop
      vertex -0.522642 4.97261 0
      vertex -0.522642 4.97261 38.5812
      vertex -1.54508 4.75528 38.4557
    endloop
  endfacet
  facet normal 0.207911 -0.978148 0
    outer loop
      vertex -1.54508 4.75528 0
      vertex -0.522642 4.97261 0
      vertex -1.54508 4.75528 38.4557
    endloop
  endfacet
  facet normal 0.406737 -0.913545 0
    outer loop
      vertex -1.54508 4.75528 0
      vertex -1.54508 4.75528 38.4557
      vertex -2.5 4.33013 38.2102
    endloop
  endfacet
  facet normal 0.406737 -0.913545 0
    outer loop
      vertex -2.5 4.33013 0
      vertex -1.54508 4.75528 0
      vertex -2.5 4.33013 38.2102
    endloop
  endfacet
  facet normal 0.587785 -0.809017 0
    outer loop
      vertex -2.5 4.33013 0
      vertex -2.5 4.33013 38.2102
      vertex -2.78626 4.12215 38.0902
    endloop
  endfacet
  facet normal 0.587785 -0.809017 0
    outer loop
      vertex -3.34565 3.71572 0
      vertex -2.5 4.33013 0
      vertex -3.34565 3.71572 37.7242
    endloop
  endfacet
  facet normal 0.587785 -0.809017 0
    outer loop
      vertex -3.34565 3.71572 37.7242
      vertex -2.5 4.33013 0
      vertex -2.78626 4.12215 38.0902
    endloop
  endfacet
  facet normal 0.743145 -0.669131 0
    outer loop
      vertex -3.34565 3.71572 0
      vertex -3.34565 3.71572 37.7242
      vertex -4.04508 2.93893 37.0248
    endloop
  endfacet
  facet normal 0.743145 -0.669131 0
    outer loop
      vertex -4.04508 2.93893 0
      vertex -3.34565 3.71572 0
      vertex -4.04508 2.93893 37.0248
    endloop
  endfacet
  facet normal 0.866026 -0.5 0
    outer loop
      vertex -4.04508 2.93893 0
      vertex -4.04508 2.93893 37.0248
      vertex -4.25892 2.56855 36.6913
    endloop
  endfacet
  facet normal 0.866026 -0.5 0
    outer loop
      vertex -4.56773 2.03368 0
      vertex -4.04508 2.93893 0
      vertex -4.56773 2.03368 35.9551
    endloop
  endfacet
  facet normal 0.866026 -0.5 0
    outer loop
      vertex -4.56773 2.03368 35.9551
      vertex -4.04508 2.93893 0
      vertex -4.25892 2.56855 36.6913
    endloop
  endfacet
  facet normal 0.951056 -0.309017 0
    outer loop
      vertex -4.56773 2.03368 0
      vertex -4.56773 2.03368 35.9551
      vertex -4.7932 1.33975 35
    endloop
  endfacet
  facet normal 0.951056 -0.309017 0
    outer loop
      vertex -4.89074 1.03956 0
      vertex -4.56773 2.03368 0
      vertex -4.89074 1.03956 34.3258
    endloop
  endfacet
  facet normal 0.951056 -0.309017 0
    outer loop
      vertex -4.89074 1.03956 34.3258
      vertex -4.56773 2.03368 0
      vertex -4.7932 1.33975 35
    endloop
  endfacet
  facet normal 0.994522 -0.104529 0
    outer loop
      vertex -4.89074 1.03956 0
      vertex -4.89074 1.03956 34.3258
      vertex -4.94856 0.489435 33.0902
    endloop
  endfacet
  facet normal 0.994522 -0.104529 0
    outer loop
      vertex -4.97898 0.2 30
      vertex -4.89074 1.03956 0
      vertex -4.97898 0.2 31.7285
    endloop
  endfacet
  facet normal 0.994522 -0.104529 0
    outer loop
      vertex -4.97898 0.2 31.7285
      vertex -4.89074 1.03956 0
      vertex -4.94856 0.489435 33.0902
    endloop
  endfacet
  facet normal 0.994522 -0.104529 0
    outer loop
      vertex -4.98949 0.1 30
      vertex -4.89074 1.03956 0
      vertex -4.97898 0.2 30
    endloop
  endfacet
  facet normal 0.994522 -0.104529 0
    outer loop
      vertex -4.99424 0.054781 30.4302
      vertex -4.89074 1.03956 0
      vertex -4.98949 0.1 30
    endloop
  endfacet
  facet normal 0.994522 -0.104529 0
    outer loop
      vertex -4.99424 0.054781 30
      vertex -4.89074 1.03956 0
      vertex -4.99424 0.054781 30.4302
    endloop
  endfacet
  facet normal 0.994522 -0.104529 0
    outer loop
      vertex -5 0 30
      vertex -4.89074 1.03956 0
      vertex -4.99424 0.054781 30
    endloop
  endfacet
  facet normal 0.994522 -0.104529 0
    outer loop
      vertex -5 0 0
      vertex -4.89074 1.03956 0
      vertex -5 0 30
    endloop
  endfacet
  facet normal 0.994522 0.104529 0
    outer loop
      vertex -4.98754 -0.118524 32.0791
      vertex -4.98949 -0.1 30
      vertex -4.98949 -0.1 31.9029
    endloop
  endfacet
  facet normal 0.994522 0.104529 0
    outer loop
      vertex -4.91964 -0.764545 34.0674
      vertex -4.98949 -0.1 30
      vertex -4.98754 -0.118524 32.0791
    endloop
  endfacet
  facet normal 0.994522 0.104529 0
    outer loop
      vertex -5 0 30
      vertex -4.98949 -0.1 30
      vertex -4.89074 -1.03956 0
    endloop
  endfacet
  facet normal 0.994522 0.104529 0
    outer loop
      vertex -4.89074 -1.03956 34.5437
      vertex -4.98949 -0.1 30
      vertex -4.91964 -0.764545 34.0674
    endloop
  endfacet
  facet normal 0.994522 0.104529 0
    outer loop
      vertex -4.89074 -1.03956 0
      vertex -4.98949 -0.1 30
      vertex -4.89074 -1.03956 34.5437
    endloop
  endfacet
  facet normal 0.994522 0.104529 0
    outer loop
      vertex -5 0 0
      vertex -5 0 30
      vertex -4.89074 -1.03956 0
    endloop
  endfacet
  facet normal 0.951056 0.309017 0
    outer loop
      vertex -4.89074 -1.03956 34.5437
      vertex -4.64046 -1.80983 35.8779
      vertex -4.56773 -2.03368 36.1265
    endloop
  endfacet
  facet normal 0.951056 0.309017 0
    outer loop
      vertex -4.89074 -1.03956 0
      vertex -4.89074 -1.03956 34.5437
      vertex -4.56773 -2.03368 0
    endloop
  endfacet
  facet normal 0.951056 0.309017 0
    outer loop
      vertex -4.56773 -2.03368 0
      vertex -4.89074 -1.03956 34.5437
      vertex -4.56773 -2.03368 36.1265
    endloop
  endfacet
  facet normal 0.866026 0.5 0
    outer loop
      vertex -4.56773 -2.03368 36.1265
      vertex -4.04508 -2.93893 37.1318
      vertex -4.04508 -2.93893 0
    endloop
  endfacet
  facet normal 0.866026 0.5 0
    outer loop
      vertex -4.56773 -2.03368 0
      vertex -4.56773 -2.03368 36.1265
      vertex -4.04508 -2.93893 0
    endloop
  endfacet
  facet normal 0.743145 0.669131 0
    outer loop
      vertex -4.04508 -2.93893 37.1318
      vertex -3.80218 -3.20869 37.4314
      vertex -3.34565 -3.71572 37.7998
    endloop
  endfacet
  facet normal 0.743145 0.669131 0
    outer loop
      vertex -4.04508 -2.93893 0
      vertex -4.04508 -2.93893 37.1318
      vertex -3.34565 -3.71572 0
    endloop
  endfacet
  facet normal 0.743145 0.669131 0
    outer loop
      vertex -3.34565 -3.71572 0
      vertex -4.04508 -2.93893 37.1318
      vertex -3.34565 -3.71572 37.7998
    endloop
  endfacet
  facet normal 0.587785 0.809017 0
    outer loop
      vertex -2.5 -4.33013 38.2462
      vertex -2.5 -4.33013 0
      vertex -3.34565 -3.71572 37.7998
    endloop
  endfacet
  facet normal 0.587785 0.809017 0
    outer loop
      vertex -3.34565 -3.71572 37.7998
      vertex -2.5 -4.33013 0
      vertex -3.34565 -3.71572 0
    endloop
  endfacet
  facet normal 0.406737 0.913545 0
    outer loop
      vertex -1.54508 -4.75528 38.5551
      vertex -1.54508 -4.75528 0
      vertex -2.5 -4.33013 38.2462
    endloop
  endfacet
  facet normal 0.406737 0.913545 0
    outer loop
      vertex -2.5 -4.33013 38.2462
      vertex -1.54508 -4.75528 0
      vertex -2.5 -4.33013 0
    endloop
  endfacet
  facet normal 0.207911 0.978148 0
    outer loop
      vertex -0.864242 -4.9 38.6603
      vertex -0.522642 -4.97261 38.6926
      vertex -1.54508 -4.75528 38.5551
    endloop
  endfacet
  facet normal 0.207911 0.978148 0
    outer loop
      vertex -1.54508 -4.75528 38.5551
      vertex -0.522642 -4.97261 38.6926
      vertex -0.522642 -4.97261 0
    endloop
  endfacet
  facet normal 0.207911 0.978148 0
    outer loop
      vertex -1.54508 -4.75528 38.5551
      vertex -0.522642 -4.97261 0
      vertex -1.54508 -4.75528 0
    endloop
  endfacet
  facet normal 0 1 0
    outer loop
      vertex 0.522642 -4.97261 38.6926
      vertex 0.522642 -4.97261 0
      vertex -0.522642 -4.97261 38.6926
    endloop
  endfacet
  facet normal 0 1 0
    outer loop
      vertex -0.522642 -4.97261 38.6926
      vertex 0.522642 -4.97261 0
      vertex -0.522642 -4.97261 0
    endloop
  endfacet
  facet normal -0.207911 0.978148 0
    outer loop
      vertex 0.864242 -4.9 38.6603
      vertex 1.54508 -4.75528 38.5551
      vertex 0.522642 -4.97261 38.6926
    endloop
  endfacet
  facet normal -0.207911 0.978148 0
    outer loop
      vertex 0.522642 -4.97261 38.6926
      vertex 1.54508 -4.75528 38.5551
      vertex 1.54508 -4.75528 0
    endloop
  endfacet
  facet normal -0.207911 0.978148 0
    outer loop
      vertex 0.522642 -4.97261 38.6926
      vertex 1.54508 -4.75528 0
      vertex 0.522642 -4.97261 0
    endloop
  endfacet
  facet normal -1.79638e-16 0.587785 0.809017
    outer loop
      vertex 1.54508 -4.75528 38.5551
      vertex 0.864242 -4.9 38.6603
      vertex 20 -4.9 38.6603
    endloop
  endfacet
  facet normal -1.79638e-16 0.587785 0.809017
    outer loop
      vertex 2.5 -4.33013 38.2462
      vertex 1.54508 -4.75528 38.5551
      vertex 20 -3.20869 37.4314
    endloop
  endfacet
  facet normal -1.79638e-16 0.587785 0.809017
    outer loop
      vertex 20 -3.20869 37.4314
      vertex 1.54508 -4.75528 38.5551
      vertex 20 -4.9 38.6603
    endloop
  endfacet
  facet normal -1.79638e-16 0.587785 0.809017
    outer loop
      vertex 3.80218 -3.20869 37.4314
      vertex 3.34565 -3.71572 37.7998
      vertex 20 -3.20869 37.4314
    endloop
  endfacet
  facet normal -1.79638e-16 0.587785 0.809017
    outer loop
      vertex 3.34565 -3.71572 37.7998
      vertex 2.5 -4.33013 38.2462
      vertex 20 -3.20869 37.4314
    endloop
  endfacet
  facet normal -1.48577e-16 0.743145 0.669131
    outer loop
      vertex 3.80218 -3.20869 37.4314
      vertex 20 -3.20869 37.4314
      vertex 4.04508 -2.93893 37.1318
    endloop
  endfacet
  facet normal -1.48577e-16 0.743145 0.669131
    outer loop
      vertex 4.04508 -2.93893 37.1318
      vertex 20 -3.20869 37.4314
      vertex 20 -1.80983 35.8779
    endloop
  endfacet
  facet normal -1.48577e-16 0.743145 0.669131
    outer loop
      vertex 4.56773 -2.03368 36.1265
      vertex 20 -1.80983 35.8779
      vertex 4.64046 -1.80983 35.8779
    endloop
  endfacet
  facet normal -1.48577e-16 0.743145 0.669131
    outer loop
      vertex 4.04508 -2.93893 37.1318
      vertex 20 -1.80983 35.8779
      vertex 4.56773 -2.03368 36.1265
    endloop
  endfacet
  facet normal -1.11022e-16 0.866025 0.5
    outer loop
      vertex 4.64046 -1.80983 35.8779
      vertex 20 -1.80983 35.8779
      vertex 4.89074 -1.03956 34.5437
    endloop
  endfacet
  facet normal -1.11022e-16 0.866025 0.5
    outer loop
      vertex 4.89074 -1.03956 34.5437
      vertex 20 -1.80983 35.8779
      vertex 20 -0.764545 34.0674
    endloop
  endfacet
  facet normal -1.11022e-16 0.866025 0.5
    outer loop
      vertex 4.89074 -1.03956 34.5437
      vertex 20 -0.764545 34.0674
      vertex 4.91964 -0.764545 34.0674
    endloop
  endfacet
  facet normal -6.86155e-17 0.951057 0.309017
    outer loop
      vertex 4.91964 -0.764545 34.0674
      vertex 20 -0.764545 34.0674
      vertex 4.98754 -0.118524 32.0791
    endloop
  endfacet
  facet normal -6.86155e-17 0.951057 0.309017
    outer loop
      vertex 4.98754 -0.118524 32.0791
      vertex 20 -0.764545 34.0674
      vertex 20 -0.118524 32.0791
    endloop
  endfacet
  facet normal -2.321e-17 0.994522 0.104528
    outer loop
      vertex 4.98754 -0.118524 32.0791
      vertex 20 -0.118524 32.0791
      vertex 4.98949 -0.1 31.9029
    endloop
  endfacet
  facet normal -2.321e-17 0.994522 0.104528
    outer loop
      vertex 4.98949 -0.1 31.9029
      vertex 20 -0.118524 32.0791
      vertex 20 -0.1 31.9029
    endloop
  endfacet
  facet normal 0 1 0
    outer loop
      vertex 20 -0.1 31.9029
      vertex 20 -0.1 30
      vertex 4.98949 -0.1 31.9029
    endloop
  endfacet
  facet normal 0 1 0
    outer loop
      vertex 4.98949 -0.1 31.9029
      vertex 20 -0.1 30
      vertex 4.98949 -0.1 30
    endloop
  endfacet
  facet normal -2.22045e-16 0 1
    outer loop
      vertex 20 -0.1 30
      vertex 20 0.054781 30
      vertex 4.99424 0.054781 30
    endloop
  endfacet
  facet normal -2.22045e-16 0 1
    outer loop
      vertex 4.98949 -0.1 30
      vertex 20 -0.1 30
      vertex 5 0 30
    endloop
  endfacet
  facet normal -2.22045e-16 0 1
    outer loop
      vertex 5 0 30
      vertex 20 -0.1 30
      vertex 4.99424 0.054781 30
    endloop
  endfacet
  facet normal 0 -1 0
    outer loop
      vertex 4.99424 0.054781 30.4302
      vertex 4.99424 0.054781 30
      vertex 20 0.054781 30
    endloop
  endfacet
  facet normal 0 -1 0
    outer loop
      vertex 20 0.054781 30.4302
      vertex 4.99424 0.054781 30.4302
      vertex 20 0.054781 30
    endloop
  endfacet
  facet normal -2.321e-17 0.994522 0.104528
    outer loop
      vertex 4.98949 0.1 30
      vertex 4.99424 0.054781 30.4302
      vertex 20 0.1 30
    endloop
  endfacet
  facet normal -2.321e-17 0.994522 0.104528
    outer loop
      vertex 20 0.1 30
      vertex 4.99424 0.054781 30.4302
      vertex 20 0.054781 30.4302
    endloop
  endfacet
  facet normal -2.22045e-16 9.9584e-17 1
    outer loop
      vertex 4.98949 0.1 30
      vertex 20 0.1 30
      vertex 20 0.2 30
    endloop
  endfacet
  facet normal -2.22045e-16 9.9584e-17 1
    outer loop
      vertex 4.97898 0.2 30
      vertex 4.98949 0.1 30
      vertex 20 0.2 30
    endloop
  endfacet
  facet normal -2.21121e-32 -1 9.9584e-17
    outer loop
      vertex 4.97898 0.2 30
      vertex 20 0.2 30
      vertex 20 0.2 31.7285
    endloop
  endfacet
  facet normal -2.21121e-32 -1 9.9584e-17
    outer loop
      vertex 4.97898 0.2 31.7285
      vertex 4.97898 0.2 30
      vertex 20 0.2 31.7285
    endloop
  endfacet
  facet normal -4.61657e-17 -0.978148 0.207912
    outer loop
      vertex 20 0.489435 33.0902
      vertex 4.94856 0.489435 33.0902
      vertex 4.97898 0.2 31.7285
    endloop
  endfacet
  facet normal -4.61657e-17 -0.978148 0.207912
    outer loop
      vertex 20 0.2 31.7285
      vertex 20 0.489435 33.0902
      vertex 4.97898 0.2 31.7285
    endloop
  endfacet
  facet normal -9.03137e-17 -0.913545 0.406737
    outer loop
      vertex 20 1.33975 35
      vertex 4.7932 1.33975 35
      vertex 4.89074 1.03956 34.3258
    endloop
  endfacet
  facet normal -9.03137e-17 -0.913545 0.406737
    outer loop
      vertex 4.94856 0.489435 33.0902
      vertex 20 1.33975 35
      vertex 4.89074 1.03956 34.3258
    endloop
  endfacet
  facet normal -9.03137e-17 -0.913545 0.406737
    outer loop
      vertex 4.94856 0.489435 33.0902
      vertex 20 0.489435 33.0902
      vertex 20 1.33975 35
    endloop
  endfacet
  facet normal -1.30515e-16 -0.809017 0.587785
    outer loop
      vertex 20 2.56855 36.6913
      vertex 4.25892 2.56855 36.6913
      vertex 4.56773 2.03368 35.9551
    endloop
  endfacet
  facet normal -1.30515e-16 -0.809017 0.587785
    outer loop
      vertex 4.7932 1.33975 35
      vertex 20 2.56855 36.6913
      vertex 4.56773 2.03368 35.9551
    endloop
  endfacet
  facet normal -1.30515e-16 -0.809017 0.587785
    outer loop
      vertex 4.7932 1.33975 35
      vertex 20 1.33975 35
      vertex 20 2.56855 36.6913
    endloop
  endfacet
  facet normal 0.809017 -0.587785 0
    outer loop
      vertex 17.4314 -16.6913 38.3577
      vertex 17.4314 -16.6913 25
      vertex 18.6603 -15 25
    endloop
  endfacet
  facet normal 0.809017 -0.587785 0
    outer loop
      vertex 18.0225 -15.8779 39.0902
      vertex 17.4314 -16.6913 38.3577
      vertex 18.6603 -15 39.597
    endloop
  endfacet
  facet normal 0.809017 -0.587785 0
    outer loop
      vertex 18.6603 -15 39.597
      vertex 17.4314 -16.6913 38.3577
      vertex 18.6603 -15 25
    endloop
  endfacet
  facet normal 0.669131 -0.743145 0
    outer loop
      vertex 15.8779 -18.0902 36.7847
      vertex 15.8779 -18.0902 25
      vertex 17.4314 -16.6913 25
    endloop
  endfacet
  facet normal 0.669131 -0.743145 0
    outer loop
      vertex 16.6094 -17.4314 37.6913
      vertex 15.8779 -18.0902 36.7847
      vertex 17.4314 -16.6913 38.3577
    endloop
  endfacet
  facet normal 0.669131 -0.743145 0
    outer loop
      vertex 17.4314 -16.6913 38.3577
      vertex 15.8779 -18.0902 36.7847
      vertex 17.4314 -16.6913 25
    endloop
  endfacet
  facet normal 0.5 -0.866025 0
    outer loop
      vertex 14.0674 -19.1355 34.9327
      vertex 14.0674 -19.1355 25
      vertex 15.8779 -18.0902 25
    endloop
  endfacet
  facet normal 0.5 -0.866025 0
    outer loop
      vertex 14.8904 -18.6603 36
      vertex 14.0674 -19.1355 34.9327
      vertex 15.8779 -18.0902 36.7847
    endloop
  endfacet
  facet normal 0.5 -0.866025 0
    outer loop
      vertex 15.8779 -18.0902 36.7847
      vertex 14.0674 -19.1355 34.9327
      vertex 15.8779 -18.0902 25
    endloop
  endfacet
  facet normal 0.309017 -0.951057 0
    outer loop
      vertex 12.0791 -19.7815 32.8156
      vertex 12.0791 -19.7815 25
      vertex 14.0674 -19.1355 25
    endloop
  endfacet
  facet normal 0.309017 -0.951057 0
    outer loop
      vertex 12.9129 -19.5106 34.0902
      vertex 12.0791 -19.7815 32.8156
      vertex 14.0674 -19.1355 34.9327
    endloop
  endfacet
  facet normal 0.309017 -0.951057 0
    outer loop
      vertex 14.0674 -19.1355 34.9327
      vertex 12.0791 -19.7815 32.8156
      vertex 14.0674 -19.1355 25
    endloop
  endfacet
  facet normal 0.104528 -0.994522 0
    outer loop
      vertex 10 -20 31
      vertex 10 -20 25
      vertex 12.0791 -19.7815 25
    endloop
  endfacet
  facet normal 0.104528 -0.994522 0
    outer loop
      vertex 10.5212 -19.9452 31
      vertex 10 -20 31
      vertex 12.0791 -19.7815 25
    endloop
  endfacet
  facet normal 0.104528 -0.994522 0
    outer loop
      vertex 12.0791 -19.7815 32.8156
      vertex 10.5212 -19.9452 31
      vertex 12.0791 -19.7815 25
    endloop
  endfacet
  facet normal 0.104528 -0.994522 0
    outer loop
      vertex 10.5212 -19.9452 32.0453
      vertex 10.5212 -19.9452 31
      vertex 12.0791 -19.7815 32.8156
    endloop
  endfacet
  facet normal -0.743145 -0.669131 0
    outer loop
      vertex 4.04508 2.93893 37.0248
      vertex 3.34565 3.71572 37.7242
      vertex 4.04508 2.93893 0
    endloop
  endfacet
  facet normal -0.743145 -0.669131 0
    outer loop
      vertex 4.04508 2.93893 0
      vertex 3.34565 3.71572 37.7242
      vertex 3.34565 3.71572 0
    endloop
  endfacet
  facet normal -0.866026 -0.5 0
    outer loop
      vertex 4.56773 2.03368 35.9551
      vertex 4.25892 2.56855 36.6913
      vertex 4.56773 2.03368 0
    endloop
  endfacet
  facet normal -0.866026 -0.5 0
    outer loop
      vertex 4.56773 2.03368 0
      vertex 4.25892 2.56855 36.6913
      vertex 4.04508 2.93893 37.0248
    endloop
  endfacet
  facet normal -0.866026 -0.5 0
    outer loop
      vertex 4.56773 2.03368 0
      vertex 4.04508 2.93893 37.0248
      vertex 4.04508 2.93893 0
    endloop
  endfacet
  facet normal -0.951056 -0.309017 0
    outer loop
      vertex 4.89074 1.03956 34.3258
      vertex 4.7932 1.33975 35
      vertex 4.89074 1.03956 0
    endloop
  endfacet
  facet normal -0.951056 -0.309017 0
    outer loop
      vertex 4.89074 1.03956 0
      vertex 4.7932 1.33975 35
      vertex 4.56773 2.03368 35.9551
    endloop
  endfacet
  facet normal -0.951056 -0.309017 0
    outer loop
      vertex 4.89074 1.03956 0
      vertex 4.56773 2.03368 35.9551
      vertex 4.56773 2.03368 0
    endloop
  endfacet
  facet normal -0.994522 -0.104529 0
    outer loop
      vertex 5 0 30
      vertex 4.99424 0.054781 30
      vertex 5 0 0
    endloop
  endfacet
  facet normal -0.994522 -0.104529 0
    outer loop
      vertex 4.98949 0.1 30
      vertex 4.99424 0.054781 30
      vertex 4.99424 0.054781 30.4302
    endloop
  endfacet
  facet normal -0.994522 -0.104529 0
    outer loop
      vertex 5 0 0
      vertex 4.99424 0.054781 30
      vertex 4.98949 0.1 30
    endloop
  endfacet
  facet normal -0.994522 -0.104529 0
    outer loop
      vertex 5 0 0
      vertex 4.98949 0.1 30
      vertex 4.97898 0.2 30
    endloop
  endfacet
  facet normal -0.994522 -0.104529 0
    outer loop
      vertex 4.97898 0.2 30
      vertex 4.97898 0.2 31.7285
      vertex 4.94856 0.489435 33.0902
    endloop
  endfacet
  facet normal -0.994522 -0.104529 0
    outer loop
      vertex 4.97898 0.2 30
      vertex 4.94856 0.489435 33.0902
      vertex 5 0 0
    endloop
  endfacet
  facet normal -0.994522 -0.104529 0
    outer loop
      vertex 5 0 0
      vertex 4.94856 0.489435 33.0902
      vertex 4.89074 1.03956 34.3258
    endloop
  endfacet
  facet normal -0.994522 -0.104529 0
    outer loop
      vertex 5 0 0
      vertex 4.89074 1.03956 34.3258
      vertex 4.89074 1.03956 0
    endloop
  endfacet
  facet normal -0.994522 0.104529 0
    outer loop
      vertex 4.91964 -0.764545 34.0674
      vertex 4.98754 -0.118524 32.0791
      vertex 4.89074 -1.03956 34.5437
    endloop
  endfacet
  facet normal -0.994522 0.104529 0
    outer loop
      vertex 4.89074 -1.03956 34.5437
      vertex 4.98754 -0.118524 32.0791
      vertex 4.98949 -0.1 31.9029
    endloop
  endfacet
  facet normal -0.994522 0.104529 0
    outer loop
      vertex 4.89074 -1.03956 34.5437
      vertex 4.98949 -0.1 31.9029
      vertex 4.98949 -0.1 30
    endloop
  endfacet
  facet normal -0.994522 0.104529 0
    outer loop
      vertex 4.98949 -0.1 30
      vertex 5 0 30
      vertex 5 0 0
    endloop
  endfacet
  facet normal -0.994522 0.104529 0
    outer loop
      vertex 4.98949 -0.1 30
      vertex 5 0 0
      vertex 4.89074 -1.03956 34.5437
    endloop
  endfacet
  facet normal -0.994522 0.104529 0
    outer loop
      vertex 4.89074 -1.03956 34.5437
      vertex 5 0 0
      vertex 4.89074 -1.03956 0
    endloop
  endfacet
  facet normal -0.951056 0.309017 0
    outer loop
      vertex 4.64046 -1.80983 35.8779
      vertex 4.89074 -1.03956 34.5437
      vertex 4.56773 -2.03368 36.1265
    endloop
  endfacet
  facet normal -0.951056 0.309017 0
    outer loop
      vertex 4.56773 -2.03368 36.1265
      vertex 4.89074 -1.03956 34.5437
      vertex 4.89074 -1.03956 0
    endloop
  endfacet
  facet normal -0.951056 0.309017 0
    outer loop
      vertex 4.56773 -2.03368 36.1265
      vertex 4.89074 -1.03956 0
      vertex 4.56773 -2.03368 0
    endloop
  endfacet
  facet normal -0.866026 0.5 0
    outer loop
      vertex 4.56773 -2.03368 36.1265
      vertex 4.56773 -2.03368 0
      vertex 4.04508 -2.93893 37.1318
    endloop
  endfacet
  facet normal -0.866026 0.5 0
    outer loop
      vertex 4.04508 -2.93893 37.1318
      vertex 4.56773 -2.03368 0
      vertex 4.04508 -2.93893 0
    endloop
  endfacet
  facet normal -0.743145 0.669131 0
    outer loop
      vertex 3.80218 -3.20869 37.4314
      vertex 4.04508 -2.93893 37.1318
      vertex 3.34565 -3.71572 37.7998
    endloop
  endfacet
  facet normal -0.743145 0.669131 0
    outer loop
      vertex 3.34565 -3.71572 37.7998
      vertex 4.04508 -2.93893 37.1318
      vertex 4.04508 -2.93893 0
    endloop
  endfacet
  facet normal -0.743145 0.669131 0
    outer loop
      vertex 3.34565 -3.71572 37.7998
      vertex 4.04508 -2.93893 0
      vertex 3.34565 -3.71572 0
    endloop
  endfacet
  facet normal -0.587785 0.809017 0
    outer loop
      vertex 3.34565 -3.71572 37.7998
      vertex 3.34565 -3.71572 0
      vertex 2.5 -4.33013 38.2462
    endloop
  endfacet
  facet normal -0.587785 0.809017 0
    outer loop
      vertex 2.5 -4.33013 38.2462
      vertex 3.34565 -3.71572 0
      vertex 2.5 -4.33013 0
    endloop
  endfacet
  facet normal -0.406737 0.913545 0
    outer loop
      vertex 2.5 -4.33013 38.2462
      vertex 2.5 -4.33013 0
      vertex 1.54508 -4.75528 38.5551
    endloop
  endfacet
  facet normal -0.406737 0.913545 0
    outer loop
      vertex 1.54508 -4.75528 38.5551
      vertex 2.5 -4.33013 0
      vertex 1.54508 -4.75528 0
    endloop
  endfacet
  facet normal 0.866025 0.5 0
    outer loop
      vertex 19.1355 15.0674 25
      vertex 18.0902 16.8779 25
      vertex 18.0902 16.8779 38.2243
    endloop
  endfacet
  facet normal 0.866025 0.5 0
    outer loop
      vertex 19.1355 15.0674 39.6113
      vertex 19.1355 15.0674 25
      vertex 18.1979 16.6913 38.4314
    endloop
  endfacet
  facet normal 0.866025 0.5 0
    outer loop
      vertex 18.1979 16.6913 38.4314
      vertex 19.1355 15.0674 25
      vertex 18.0902 16.8779 38.2243
    endloop
  endfacet
  facet normal 0.743145 0.669131 0
    outer loop
      vertex 18.0902 16.8779 25
      vertex 16.6913 18.4314 25
      vertex 16.6913 18.4314 36.2867
    endloop
  endfacet
  facet normal 0.743145 0.669131 0
    outer loop
      vertex 18.0902 16.8779 38.2243
      vertex 18.0902 16.8779 25
      vertex 16.9986 18.0902 36.8779
    endloop
  endfacet
  facet normal 0.743145 0.669131 0
    outer loop
      vertex 16.9986 18.0902 36.8779
      vertex 18.0902 16.8779 25
      vertex 16.6913 18.4314 36.2867
    endloop
  endfacet
  facet normal 0.587785 0.809017 0
    outer loop
      vertex 15 19.6603 25
      vertex 15 19.6603 33.4522
      vertex 16.6913 18.4314 25
    endloop
  endfacet
  facet normal 0.587785 0.809017 0
    outer loop
      vertex 16.6913 18.4314 25
      vertex 15 19.6603 33.4522
      vertex 15.7223 19.1355 35.0674
    endloop
  endfacet
  facet normal 0.587785 0.809017 0
    outer loop
      vertex 16.6913 18.4314 25
      vertex 15.7223 19.1355 35.0674
      vertex 16.6913 18.4314 36.2867
    endloop
  endfacet
endsolid OpenSCAD_Model
