solid bracket
facet normal 2.6416487726518794e-31 0.9238795325112854 0.38268343236509356
  outer loop
    vertex 1567.8193776270318 -23.601236420368355 50.67342754437926
    vertex 1644.6193776270309 -23.401435575359102 50.19106563458431
    vertex 1567.8193776270318 -23.401435575359102 50.19106563458431
  endloop
endfacet
facet normal 2.6416487726518794e-31 0.9238795325112854 0.38268343236509356
  outer loop
    vertex 1644.6193776270309 -23.401435575359102 50.19106563458431
    vertex 1567.8193776270318 -23.601236420368355 50.67342754437926
    vertex 1644.6193776270309 -23.601236420368355 50.67342754437926
  endloop
endfacet
facet normal -1.0 -4.977138046034772e-15 2.2041072591705058e-14
  outer loop
    vertex 1567.8193776270318 -25.90321738430524 53.67342754437929
    vertex 1567.8193776270318 -29.333287227937202 51.62907647627042
    vertex 1567.8193776270318 -29.333287227937202 53.67342754437929
  endloop
endfacet
facet normal -1.0 -4.977138046034772e-15 2.2041072591705058e-14
  outer loop
    vertex 1567.8193776270318 -29.333287227937202 51.62907647627042
    vertex 1567.8193776270318 -25.90321738430524 53.67342754437929
    vertex 1567.8193776270318 -27.333287227937117 49.02262573058787
  endloop
endfacet
facet normal -1.0 -4.977138046034772e-15 2.2041072591705058e-14
  outer loop
    vertex 1567.8193776270318 -27.333287227937117 49.02262573058787
    vertex 1567.8193776270318 -25.90321738430524 53.67342754437929
    vertex 1567.8193776270318 -27.06533803550601 48.67342754437933
  endloop
endfacet
facet normal -1.0 -4.977138046034772e-15 2.2041072591705058e-14
  outer loop
    vertex 1567.8193776270318 -27.06533803550601 48.67342754437933
    vertex 1567.8193776270318 -25.90321738430524 53.67342754437929
    vertex 1567.8193776270318 -26.74750079031023 48.25921398200624
  endloop
endfacet
facet normal -1.0 -4.977138046034772e-15 2.2041072591705058e-14
  outer loop
    vertex 1567.8193776270318 -26.74750079031023 48.25921398200624
    vertex 1567.8193776270318 -25.90321738430524 53.67342754437929
    vertex 1567.8193776270318 -26.333287227937152 47.94137673681047
  endloop
endfacet
facet normal -1.0 -4.977138046034772e-15 2.2041072591705058e-14
  outer loop
    vertex 1567.8193776270318 -26.333287227937152 47.94137673681047
    vertex 1567.8193776270318 -25.90321738430524 53.67342754437929
    vertex 1567.8193776270318 -25.85092531814221 47.74157589180122
  endloop
endfacet
facet normal -1.0 -4.977138046034772e-15 2.2041072591705058e-14
  outer loop
    vertex 1567.8193776270318 -25.85092531814221 47.74157589180122
    vertex 1567.8193776270318 -25.90321738430524 53.67342754437929
    vertex 1567.8193776270318 -23.919073665564127 51.08764110675234
  endloop
endfacet
facet normal -1.0 -4.977138046034772e-15 2.2041072591705058e-14
  outer loop
    vertex 1567.8193776270318 -25.85092531814221 47.74157589180122
    vertex 1567.8193776270318 -23.919073665564127 51.08764110675234
    vertex 1567.8193776270318 -25.333287227937177 47.67342754437935
  endloop
endfacet
facet normal -1.0 -4.977138046034772e-15 2.2041072591705058e-14
  outer loop
    vertex 1567.8193776270318 -25.333287227937177 47.67342754437935
    vertex 1567.8193776270318 -23.919073665564127 51.08764110675234
    vertex 1567.8193776270318 -24.815649137732155 47.74157589180122
  endloop
endfacet
facet normal -1.0 -4.977138046034772e-15 2.2041072591705058e-14
  outer loop
    vertex 1567.8193776270318 -24.815649137732155 47.74157589180122
    vertex 1567.8193776270318 -23.919073665564127 51.08764110675234
    vertex 1567.8193776270318 -24.333287227937213 47.94137673681047
  endloop
endfacet
facet normal -1.0 -4.977138046034772e-15 2.2041072591705058e-14
  outer loop
    vertex 1567.8193776270318 -24.333287227937213 47.94137673681047
    vertex 1567.8193776270318 -23.919073665564127 51.08764110675234
    vertex 1567.8193776270318 -23.919073665564127 48.25921398200624
  endloop
endfacet
facet normal -1.0 -4.977138046034772e-15 2.2041072591705058e-14
  outer loop
    vertex 1567.8193776270318 -23.919073665564127 48.25921398200624
    vertex 1567.8193776270318 -23.919073665564127 51.08764110675234
    vertex 1567.8193776270318 -23.601236420368355 50.67342754437926
  endloop
endfacet
facet normal -1.0 -4.977138046034772e-15 2.2041072591705058e-14
  outer loop
    vertex 1567.8193776270318 -23.919073665564127 48.25921398200624
    vertex 1567.8193776270318 -23.601236420368355 50.67342754437926
    vertex 1567.8193776270318 -23.601236420368355 48.67342754437933
  endloop
endfacet
facet normal -1.0 -4.977138046034772e-15 2.2041072591705058e-14
  outer loop
    vertex 1567.8193776270318 -23.601236420368355 48.67342754437933
    vertex 1567.8193776270318 -23.601236420368355 50.67342754437926
    vertex 1567.8193776270318 -23.401435575359102 50.19106563458431
  endloop
endfacet
facet normal -1.0 -4.977138046034772e-15 2.2041072591705058e-14
  outer loop
    vertex 1567.8193776270318 -23.601236420368355 48.67342754437933
    vertex 1567.8193776270318 -23.401435575359102 50.19106563458431
    vertex 1567.8193776270318 -23.401435575359102 49.15578945417427
  endloop
endfacet
facet normal -1.0 -4.977138046034772e-15 2.2041072591705058e-14
  outer loop
    vertex 1567.8193776270318 -23.401435575359102 49.15578945417427
    vertex 1567.8193776270318 -23.401435575359102 50.19106563458431
    vertex 1567.8193776270318 -23.33328722793724 49.673427544379294
  endloop
endfacet
facet normal 0.0 0.0 1.0
  outer loop
    vertex 1653.6193776270313 -29.33328722793721 53.67342754437929
    vertex 1644.6193776270306 -25.90321738430524 53.67342754437929
    vertex 1644.6193776270306 -29.333287227937202 53.67342754437929
  endloop
endfacet
facet normal 0.0 0.0 1.0
  outer loop
    vertex 1567.8193776270318 -29.333287227937202 53.67342754437929
    vertex 1558.8193776270311 -21.333287227937223 53.67342754437929
    vertex 1558.8193776270311 -29.33328722793721 53.67342754437929
  endloop
endfacet
facet normal 0.0 0.0 1.0
  outer loop
    vertex 1558.8193776270311 -21.333287227937223 53.67342754437929
    vertex 1567.8193776270318 -29.333287227937202 53.67342754437929
    vertex 1567.8193776270318 -25.90321738430524 53.67342754437929
  endloop
endfacet
facet normal 0.0 0.0 1.0
  outer loop
    vertex 1558.8193776270311 -21.333287227937223 53.67342754437929
    vertex 1567.8193776270318 -25.90321738430524 53.67342754437929
    vertex 1653.6193776270313 -21.333287227937223 53.67342754437929
  endloop
endfacet
facet normal 0.0 0.0 1.0
  outer loop
    vertex 1653.6193776270313 -21.333287227937223 53.67342754437929
    vertex 1567.8193776270318 -25.90321738430524 53.67342754437929
    vertex 1644.6193776270306 -25.90321738430524 53.67342754437929
  endloop
endfacet
facet normal 0.0 0.0 1.0
  outer loop
    vertex 1653.6193776270313 -21.333287227937223 53.67342754437929
    vertex 1644.6193776270306 -25.90321738430524 53.67342754437929
    vertex 1653.6193776270313 -29.33328722793721 53.67342754437929
  endloop
endfacet
facet normal -1.0 0.0 0.0
  outer loop
    vertex 1572.8193776270311 -23.401435575359102 49.15578945417427
    vertex 1572.8193776270311 -21.333287227937216 33.67342754437929
    vertex 1572.8193776270311 -25.33328722793721 33.67342754437929
  endloop
endfacet
facet normal -1.0 0.0 0.0
  outer loop
    vertex 1572.8193776270311 -21.333287227937216 33.67342754437929
    vertex 1572.8193776270311 -23.401435575359102 49.15578945417427
    vertex 1572.8193776270311 -23.33328722793724 49.673427544379294
  endloop
endfacet
facet normal -1.0 0.0 0.0
  outer loop
    vertex 1572.8193776270311 -21.333287227937216 33.67342754437929
    vertex 1572.8193776270311 -23.33328722793724 49.673427544379294
    vertex 1572.8193776270311 -21.333287227937216 49.673427544379294
  endloop
endfacet
facet normal 0.0 0.0 1.0
  outer loop
    vertex 1639.6193776270313 -23.33328722793724 49.673427544379294
    vertex 1572.8193776270311 -21.333287227937216 49.673427544379294
    vertex 1572.8193776270311 -23.33328722793724 49.673427544379294
  endloop
endfacet
facet normal 0.0 0.0 1.0
  outer loop
    vertex 1572.8193776270311 -21.333287227937216 49.673427544379294
    vertex 1639.6193776270313 -23.33328722793724 49.673427544379294
    vertex 1639.6193776270318 -21.333287227937216 49.673427544379294
  endloop
endfacet
facet normal -2.0165256889712114e-29 0.9914448613738105 -0.13052619222005102
  outer loop
    vertex 1567.8193776270318 -23.33328722793724 49.673427544379294
    vertex 1570.3193776270311 -23.401435575359116 49.15578945417427
    vertex 1567.8193776270318 -23.401435575359102 49.15578945417427
  endloop
endfacet
facet normal -2.0165256889712114e-29 0.9914448613738105 -0.13052619222005102
  outer loop
    vertex 1570.3193776270311 -23.401435575359116 49.15578945417427
    vertex 1567.8193776270318 -23.33328722793724 49.673427544379294
    vertex 1572.8193776270311 -23.401435575359102 49.15578945417427
  endloop
endfacet
facet normal -2.0165256889712114e-29 0.9914448613738105 -0.13052619222005102
  outer loop
    vertex 1572.8193776270311 -23.401435575359102 49.15578945417427
    vertex 1567.8193776270318 -23.33328722793724 49.673427544379294
    vertex 1572.8193776270311 -23.33328722793724 49.673427544379294
  endloop
endfacet
facet normal 0.0 -0.6087614290087148 -0.7933533402912397
  outer loop
    vertex 1570.3193776270311 -26.333287227937145 47.94137673681047
    vertex 1567.8193776270318 -26.74750079031023 48.25921398200624
    vertex 1567.8193776270318 -26.333287227937152 47.94137673681047
  endloop
endfacet
facet normal 0.0 -0.6087614290087148 -0.7933533402912397
  outer loop
    vertex 1567.8193776270318 -26.74750079031023 48.25921398200624
    vertex 1570.3193776270311 -26.333287227937145 47.94137673681047
    vertex 1570.3193776270311 -26.74750079031023 48.25921398200624
  endloop
endfacet
facet normal -1.0 0.0 0.0
  outer loop
    vertex 1570.3193776270311 -27.065338035506002 48.67342754437933
    vertex 1570.3193776270311 -29.333287227937202 33.67342754437929
    vertex 1570.3193776270311 -29.333287227937202 51.62907647627042
  endloop
endfacet
facet normal -1.0 0.0 0.0
  outer loop
    vertex 1570.3193776270311 -29.333287227937202 33.67342754437929
    vertex 1570.3193776270311 -27.065338035506002 48.67342754437933
    vertex 1570.3193776270311 -25.33328722793721 33.67342754437929
  endloop
endfacet
facet normal -1.0 0.0 0.0
  outer loop
    vertex 1570.3193776270311 -25.33328722793721 33.67342754437929
    vertex 1570.3193776270311 -27.065338035506002 48.67342754437933
    vertex 1570.3193776270311 -26.74750079031023 48.25921398200624
  endloop
endfacet
facet normal -1.0 0.0 0.0
  outer loop
    vertex 1570.3193776270311 -25.33328722793721 33.67342754437929
    vertex 1570.3193776270311 -26.74750079031023 48.25921398200624
    vertex 1570.3193776270311 -26.333287227937145 47.94137673681047
  endloop
endfacet
facet normal -1.0 0.0 0.0
  outer loop
    vertex 1570.3193776270311 -25.33328722793721 33.67342754437929
    vertex 1570.3193776270311 -26.333287227937145 47.94137673681047
    vertex 1570.3193776270311 -25.850925318142203 47.74157589180122
  endloop
endfacet
facet normal -1.0 0.0 0.0
  outer loop
    vertex 1570.3193776270311 -25.33328722793721 33.67342754437929
    vertex 1570.3193776270311 -25.850925318142203 47.74157589180122
    vertex 1570.3193776270311 -25.33328722793718 47.67342754437935
  endloop
endfacet
facet normal -1.0 0.0 0.0
  outer loop
    vertex 1570.3193776270311 -25.33328722793721 33.67342754437929
    vertex 1570.3193776270311 -25.33328722793718 47.67342754437935
    vertex 1570.3193776270311 -24.81564913773216 47.74157589180122
  endloop
endfacet
facet normal -1.0 0.0 0.0
  outer loop
    vertex 1570.3193776270311 -25.33328722793721 33.67342754437929
    vertex 1570.3193776270311 -24.81564913773216 47.74157589180122
    vertex 1570.3193776270311 -24.333287227937227 47.94137673681047
  endloop
endfacet
facet normal -1.0 0.0 0.0
  outer loop
    vertex 1570.3193776270311 -25.33328722793721 33.67342754437929
    vertex 1570.3193776270311 -24.333287227937227 47.94137673681047
    vertex 1570.3193776270311 -23.91907366556414 48.25921398200624
  endloop
endfacet
facet normal -1.0 0.0 0.0
  outer loop
    vertex 1570.3193776270311 -25.33328722793721 33.67342754437929
    vertex 1570.3193776270311 -23.91907366556414 48.25921398200624
    vertex 1570.3193776270311 -23.60123642036837 48.67342754437933
  endloop
endfacet
facet normal -1.0 0.0 0.0
  outer loop
    vertex 1570.3193776270311 -25.33328722793721 33.67342754437929
    vertex 1570.3193776270311 -23.60123642036837 48.67342754437933
    vertex 1570.3193776270311 -23.401435575359116 49.15578945417427
  endloop
endfacet
facet normal 9.73885519473585e-20 0.7933533402912376 0.6087614290087178
  outer loop
    vertex 1567.8193776270318 -23.919073665564127 51.08764110675234
    vertex 1644.6193776270309 -23.601236420368355 50.67342754437926
    vertex 1567.8193776270318 -23.601236420368355 50.67342754437926
  endloop
endfacet
facet normal 9.73885519473585e-20 0.7933533402912376 0.6087614290087178
  outer loop
    vertex 1644.6193776270309 -23.601236420368355 50.67342754437926
    vertex 1567.8193776270318 -23.919073665564127 51.08764110675234
    vertex 1644.6193776270309 -23.919073665564127 51.08764110675234
  endloop
endfacet
facet normal 9.73885519473585e-20 0.7933533402912376 0.6087614290087178
  outer loop
    vertex 1644.6193776270309 -23.919073665564127 51.08764110675234
    vertex 1567.8193776270318 -23.919073665564127 51.08764110675234
    vertex 1567.8193776270318 -25.90321738430524 53.67342754437929
  endloop
endfacet
facet normal 9.73885519473585e-20 0.7933533402912376 0.6087614290087178
  outer loop
    vertex 1644.6193776270309 -23.919073665564127 51.08764110675234
    vertex 1567.8193776270318 -25.90321738430524 53.67342754437929
    vertex 1644.6193776270306 -25.90321738430524 53.67342754437929
  endloop
endfacet
facet normal 0.0 0.13052619222005635 -0.9914448613738099
  outer loop
    vertex 1570.3193776270311 -24.81564913773216 47.74157589180122
    vertex 1567.8193776270318 -25.333287227937177 47.67342754437935
    vertex 1567.8193776270318 -24.815649137732155 47.74157589180122
  endloop
endfacet
facet normal 0.0 0.13052619222005635 -0.9914448613738099
  outer loop
    vertex 1567.8193776270318 -25.333287227937177 47.67342754437935
    vertex 1570.3193776270311 -24.81564913773216 47.74157589180122
    vertex 1570.3193776270311 -25.33328722793718 47.67342754437935
  endloop
endfacet
facet normal 0.0 0.3826834323650916 -0.923879532511286
  outer loop
    vertex 1570.3193776270311 -24.333287227937227 47.94137673681047
    vertex 1567.8193776270318 -24.815649137732155 47.74157589180122
    vertex 1567.8193776270318 -24.333287227937213 47.94137673681047
  endloop
endfacet
facet normal 0.0 0.3826834323650916 -0.923879532511286
  outer loop
    vertex 1567.8193776270318 -24.815649137732155 47.74157589180122
    vertex 1570.3193776270311 -24.333287227937227 47.94137673681047
    vertex 1570.3193776270311 -24.81564913773216 47.74157589180122
  endloop
endfacet
facet normal 0.0 -0.13052619222005565 -0.9914448613738099
  outer loop
    vertex 1570.3193776270311 -25.33328722793718 47.67342754437935
    vertex 1567.8193776270318 -25.85092531814221 47.74157589180122
    vertex 1567.8193776270318 -25.333287227937177 47.67342754437935
  endloop
endfacet
facet normal 0.0 -0.13052619222005565 -0.9914448613738099
  outer loop
    vertex 1567.8193776270318 -25.85092531814221 47.74157589180122
    vertex 1570.3193776270311 -25.33328722793718 47.67342754437935
    vertex 1570.3193776270311 -25.850925318142203 47.74157589180122
  endloop
endfacet
facet normal 8.967795940436336e-16 -0.7933533402912358 -0.6087614290087197
  outer loop
    vertex 1570.3193776270311 -27.065338035506002 48.67342754437933
    vertex 1567.8193776270318 -26.74750079031023 48.25921398200624
    vertex 1570.3193776270311 -26.74750079031023 48.25921398200624
  endloop
endfacet
facet normal 8.967795940436336e-16 -0.7933533402912358 -0.6087614290087197
  outer loop
    vertex 1567.8193776270318 -26.74750079031023 48.25921398200624
    vertex 1570.3193776270311 -27.065338035506002 48.67342754437933
    vertex 1567.8193776270318 -27.06533803550601 48.67342754437933
  endloop
endfacet
facet normal -1.2755656480629883e-15 -1.0 6.710290203047109e-16
  outer loop
    vertex 1570.3193776270311 -29.333287227937202 51.62907647627042
    vertex 1564.3686060149748 -29.33328722793721 33.67342754437929
    vertex 1570.3193776270311 -29.333287227937202 33.67342754437929
  endloop
endfacet
facet normal -1.2755656480629883e-15 -1.0 6.710290203047109e-16
  outer loop
    vertex 1564.3686060149748 -29.33328722793721 33.67342754437929
    vertex 1570.3193776270311 -29.333287227937202 51.62907647627042
    vertex 1564.3686060149748 -29.333287227937145 51.47665149776314
  endloop
endfacet
facet normal -1.2755656480629883e-15 -1.0 6.710290203047109e-16
  outer loop
    vertex 1564.3686060149748 -29.333287227937145 51.47665149776314
    vertex 1570.3193776270311 -29.333287227937202 51.62907647627042
    vertex 1562.3686060149748 -29.333287227937145 51.47665149776314
  endloop
endfacet
facet normal -1.2755656480629883e-15 -1.0 6.710290203047109e-16
  outer loop
    vertex 1562.3686060149748 -29.333287227937145 51.47665149776314
    vertex 1558.8193776270311 -29.33328722793721 33.67342754437929
    vertex 1562.3686060149748 -29.33328722793718 33.67342754437929
  endloop
endfacet
facet normal -1.2755656480629883e-15 -1.0 6.710290203047109e-16
  outer loop
    vertex 1558.8193776270311 -29.33328722793721 33.67342754437929
    vertex 1562.3686060149748 -29.333287227937145 51.47665149776314
    vertex 1558.8193776270311 -29.33328722793721 53.67342754437929
  endloop
endfacet
facet normal -1.2755656480629883e-15 -1.0 6.710290203047109e-16
  outer loop
    vertex 1558.8193776270311 -29.33328722793721 53.67342754437929
    vertex 1562.3686060149748 -29.333287227937145 51.47665149776314
    vertex 1567.8193776270318 -29.333287227937202 51.62907647627042
  endloop
endfacet
facet normal -1.2755656480629883e-15 -1.0 6.710290203047109e-16
  outer loop
    vertex 1567.8193776270318 -29.333287227937202 51.62907647627042
    vertex 1562.3686060149748 -29.333287227937145 51.47665149776314
    vertex 1570.3193776270311 -29.333287227937202 51.62907647627042
  endloop
endfacet
facet normal -1.2755656480629883e-15 -1.0 6.710290203047109e-16
  outer loop
    vertex 1558.8193776270311 -29.33328722793721 53.67342754437929
    vertex 1567.8193776270318 -29.333287227937202 51.62907647627042
    vertex 1567.8193776270318 -29.333287227937202 53.67342754437929
  endloop
endfacet
facet normal 6.2253785175171075e-16 -0.7933533402912386 -0.6087614290087162
  outer loop
    vertex 1570.3193776270311 -29.333287227937202 51.62907647627042
    vertex 1567.8193776270318 -27.06533803550601 48.67342754437933
    vertex 1570.3193776270311 -27.065338035506002 48.67342754437933
  endloop
endfacet
facet normal 6.2253785175171075e-16 -0.7933533402912386 -0.6087614290087162
  outer loop
    vertex 1567.8193776270318 -27.06533803550601 48.67342754437933
    vertex 1570.3193776270311 -29.333287227937202 51.62907647627042
    vertex 1567.8193776270318 -27.333287227937117 49.02262573058787
  endloop
endfacet
facet normal 6.2253785175171075e-16 -0.7933533402912386 -0.6087614290087162
  outer loop
    vertex 1567.8193776270318 -27.333287227937117 49.02262573058787
    vertex 1570.3193776270311 -29.333287227937202 51.62907647627042
    vertex 1567.8193776270318 -29.333287227937202 51.62907647627042
  endloop
endfacet
facet normal 1.089622018782624e-20 0.9914448613738105 0.13052619222005102
  outer loop
    vertex 1567.8193776270318 -23.401435575359102 50.19106563458431
    vertex 1572.8193776270311 -23.33328722793724 49.673427544379294
    vertex 1567.8193776270318 -23.33328722793724 49.673427544379294
  endloop
endfacet
facet normal 1.089622018782624e-20 0.9914448613738105 0.13052619222005102
  outer loop
    vertex 1572.8193776270311 -23.33328722793724 49.673427544379294
    vertex 1567.8193776270318 -23.401435575359102 50.19106563458431
    vertex 1639.6193776270313 -23.33328722793724 49.673427544379294
  endloop
endfacet
facet normal 1.089622018782624e-20 0.9914448613738105 0.13052619222005102
  outer loop
    vertex 1639.6193776270313 -23.33328722793724 49.673427544379294
    vertex 1567.8193776270318 -23.401435575359102 50.19106563458431
    vertex 1644.6193776270309 -23.33328722793724 49.673427544379294
  endloop
endfacet
facet normal 1.089622018782624e-20 0.9914448613738105 0.13052619222005102
  outer loop
    vertex 1644.6193776270309 -23.33328722793724 49.673427544379294
    vertex 1567.8193776270318 -23.401435575359102 50.19106563458431
    vertex 1644.6193776270309 -23.401435575359102 50.19106563458431
  endloop
endfacet
facet normal -1.1549451364371603e-15 0.9923050170320765 -0.12381741869773576
  outer loop
    vertex 1570.3193776270311 -23.401435575359116 49.15578945417427
    vertex 1572.8193776270311 -25.33328722793721 33.67342754437929
    vertex 1570.3193776270311 -25.33328722793721 33.67342754437929
  endloop
endfacet
facet normal -1.1549451364371603e-15 0.9923050170320765 -0.12381741869773576
  outer loop
    vertex 1572.8193776270311 -25.33328722793721 33.67342754437929
    vertex 1570.3193776270311 -23.401435575359116 49.15578945417427
    vertex 1572.8193776270311 -23.401435575359102 49.15578945417427
  endloop
endfacet
facet normal 0.0 -0.38268343236509356 -0.9238795325112852
  outer loop
    vertex 1570.3193776270311 -25.850925318142203 47.74157589180122
    vertex 1567.8193776270318 -26.333287227937152 47.94137673681047
    vertex 1567.8193776270318 -25.85092531814221 47.74157589180122
  endloop
endfacet
facet normal 0.0 -0.38268343236509356 -0.9238795325112852
  outer loop
    vertex 1567.8193776270318 -26.333287227937152 47.94137673681047
    vertex 1570.3193776270311 -25.850925318142203 47.74157589180122
    vertex 1570.3193776270311 -26.333287227937145 47.94137673681047
  endloop
endfacet
facet normal -1.0 -4.163336342344338e-16 0.0
  outer loop
    vertex 1558.8193776270311 -21.333287227937223 53.67342754437929
    vertex 1558.8193776270311 -29.33328722793721 33.67342754437929
    vertex 1558.8193776270311 -29.33328722793721 53.67342754437929
  endloop
endfacet
facet normal -1.0 -4.163336342344338e-16 0.0
  outer loop
    vertex 1558.8193776270311 -29.33328722793721 33.67342754437929
    vertex 1558.8193776270311 -21.333287227937223 53.67342754437929
    vertex 1558.8193776270311 -21.333287227937223 33.67342754437929
  endloop
endfacet
facet normal 0.0 0.6087614290087148 -0.7933533402912397
  outer loop
    vertex 1570.3193776270311 -23.91907366556414 48.25921398200624
    vertex 1567.8193776270318 -24.333287227937213 47.94137673681047
    vertex 1567.8193776270318 -23.919073665564127 48.25921398200624
  endloop
endfacet
facet normal 0.0 0.6087614290087148 -0.7933533402912397
  outer loop
    vertex 1567.8193776270318 -24.333287227937213 47.94137673681047
    vertex 1570.3193776270311 -23.91907366556414 48.25921398200624
    vertex 1570.3193776270311 -24.333287227937227 47.94137673681047
  endloop
endfacet
facet normal 0.0 0.0 -1.0
  outer loop
    vertex 1560.8193776270311 -21.333287227937223 33.67342754437929
    vertex 1558.8193776270311 -29.33328722793721 33.67342754437929
    vertex 1558.8193776270311 -21.333287227937223 33.67342754437929
  endloop
endfacet
facet normal 0.0 0.0 -1.0
  outer loop
    vertex 1558.8193776270311 -29.33328722793721 33.67342754437929
    vertex 1560.8193776270311 -21.333287227937223 33.67342754437929
    vertex 1562.3686060149748 -29.33328722793718 33.67342754437929
  endloop
endfacet
facet normal 0.9817605845072516 0.19012142096034287 1.3412855611647916e-16
  outer loop
    vertex 1560.8193776270311 -21.333287227937223 33.67342754437929
    vertex 1562.3686060149748 -29.333287227937145 51.47665149776314
    vertex 1562.3686060149748 -29.33328722793718 33.67342754437929
  endloop
endfacet
facet normal 0.9817605845072516 0.19012142096034287 1.3412855611647916e-16
  outer loop
    vertex 1562.3686060149748 -29.333287227937145 51.47665149776314
    vertex 1560.8193776270311 -21.333287227937223 33.67342754437929
    vertex 1560.8193776270311 -21.33328722793728 51.6734275443793
  endloop
endfacet
facet normal 2.643413455306314e-15 0.02458956845123112 -0.9996976308481391
  outer loop
    vertex 1562.8193776270314 -21.333287227937276 51.67342754437931
    vertex 1562.3686060149748 -29.333287227937145 51.47665149776314
    vertex 1560.8193776270311 -21.33328722793728 51.6734275443793
  endloop
endfacet
facet normal 2.643413455306314e-15 0.02458956845123112 -0.9996976308481391
  outer loop
    vertex 1562.3686060149748 -29.333287227937145 51.47665149776314
    vertex 1562.8193776270314 -21.333287227937276 51.67342754437931
    vertex 1564.3686060149748 -29.333287227937145 51.47665149776314
  endloop
endfacet
facet normal -0.9817605845072526 -0.19012142096033793 -1.8408081153983988e-15
  outer loop
    vertex 1564.3686060149748 -29.333287227937145 51.47665149776314
    vertex 1562.8193776270314 -21.3332872279378 33.67342754437929
    vertex 1564.3686060149748 -29.33328722793721 33.67342754437929
  endloop
endfacet
facet normal -0.9817605845072526 -0.19012142096033793 -1.8408081153983988e-15
  outer loop
    vertex 1562.8193776270314 -21.3332872279378 33.67342754437929
    vertex 1564.3686060149748 -29.333287227937145 51.47665149776314
    vertex 1562.8193776270314 -21.333287227937276 51.67342754437931
  endloop
endfacet
facet normal 2.083474001272957e-15 0.9238795325112852 -0.38268343236509345
  outer loop
    vertex 1567.8193776270318 -23.401435575359102 49.15578945417427
    vertex 1570.3193776270311 -23.60123642036837 48.67342754437933
    vertex 1567.8193776270318 -23.601236420368355 48.67342754437933
  endloop
endfacet
facet normal 2.083474001272957e-15 0.9238795325112852 -0.38268343236509345
  outer loop
    vertex 1570.3193776270311 -23.60123642036837 48.67342754437933
    vertex 1567.8193776270318 -23.401435575359102 49.15578945417427
    vertex 1570.3193776270311 -23.401435575359116 49.15578945417427
  endloop
endfacet
facet normal -2.465190328815662e-31 0.793353340291241 -0.6087614290087129
  outer loop
    vertex 1567.8193776270318 -23.601236420368355 48.67342754437933
    vertex 1570.3193776270311 -23.91907366556414 48.25921398200624
    vertex 1567.8193776270318 -23.919073665564127 48.25921398200624
  endloop
endfacet
facet normal -2.465190328815662e-31 0.793353340291241 -0.6087614290087129
  outer loop
    vertex 1570.3193776270311 -23.91907366556414 48.25921398200624
    vertex 1567.8193776270318 -23.601236420368355 48.67342754437933
    vertex 1570.3193776270311 -23.60123642036837 48.67342754437933
  endloop
endfacet
facet normal 1.0 -7.457523893199587e-16 -5.85702683962629e-14
  outer loop
    vertex 1567.8193776270311 -27.265138880515284 40.155789454174275
    vertex 1567.8193776270318 -27.333287227937117 49.02262573058787
    vertex 1567.8193776270311 -27.333287227937117 40.67342754437929
  endloop
endfacet
facet normal 1.0 -7.457523893199587e-16 -5.85702683962629e-14
  outer loop
    vertex 1567.8193776270318 -27.333287227937117 49.02262573058787
    vertex 1567.8193776270311 -27.265138880515284 40.155789454174275
    vertex 1567.8193776270318 -27.06533803550601 48.67342754437933
  endloop
endfacet
facet normal 1.0 -7.457523893199587e-16 -5.85702683962629e-14
  outer loop
    vertex 1567.8193776270318 -27.06533803550601 48.67342754437933
    vertex 1567.8193776270311 -27.265138880515284 40.155789454174275
    vertex 1567.8193776270311 -27.065338035505984 39.67342754437934
  endloop
endfacet
facet normal 1.0 -7.457523893199587e-16 -5.85702683962629e-14
  outer loop
    vertex 1567.8193776270318 -27.06533803550601 48.67342754437933
    vertex 1567.8193776270311 -27.065338035505984 39.67342754437934
    vertex 1567.8193776270318 -26.74750079031023 48.25921398200624
  endloop
endfacet
facet normal 1.0 -7.457523893199587e-16 -5.85702683962629e-14
  outer loop
    vertex 1567.8193776270318 -26.74750079031023 48.25921398200624
    vertex 1567.8193776270311 -27.065338035505984 39.67342754437934
    vertex 1567.8193776270311 -26.747500790310216 39.259213982006266
  endloop
endfacet
facet normal 1.0 -7.457523893199587e-16 -5.85702683962629e-14
  outer loop
    vertex 1567.8193776270318 -26.74750079031023 48.25921398200624
    vertex 1567.8193776270311 -26.747500790310216 39.259213982006266
    vertex 1567.8193776270318 -26.333287227937152 47.94137673681047
  endloop
endfacet
facet normal 1.0 -7.457523893199587e-16 -5.85702683962629e-14
  outer loop
    vertex 1567.8193776270318 -26.333287227937152 47.94137673681047
    vertex 1567.8193776270311 -26.747500790310216 39.259213982006266
    vertex 1567.8193776270311 -26.333287227937163 38.9413767368105
  endloop
endfacet
facet normal 1.0 -7.457523893199587e-16 -5.85702683962629e-14
  outer loop
    vertex 1567.8193776270318 -26.333287227937152 47.94137673681047
    vertex 1567.8193776270311 -26.333287227937163 38.9413767368105
    vertex 1567.8193776270311 -25.850925318142277 38.74157589180124
  endloop
endfacet
facet normal 1.0 -7.457523893199587e-16 -5.85702683962629e-14
  outer loop
    vertex 1567.8193776270318 -26.333287227937152 47.94137673681047
    vertex 1567.8193776270311 -25.850925318142277 38.74157589180124
    vertex 1567.8193776270318 -25.85092531814221 47.74157589180122
  endloop
endfacet
facet normal 1.0 -7.457523893199587e-16 -5.85702683962629e-14
  outer loop
    vertex 1567.8193776270318 -25.85092531814221 47.74157589180122
    vertex 1567.8193776270311 -25.850925318142277 38.74157589180124
    vertex 1567.8193776270311 -25.333287227937213 38.67342754437938
  endloop
endfacet
facet normal 1.0 -7.457523893199587e-16 -5.85702683962629e-14
  outer loop
    vertex 1567.8193776270318 -25.85092531814221 47.74157589180122
    vertex 1567.8193776270311 -25.333287227937213 38.67342754437938
    vertex 1567.8193776270318 -25.333287227937177 47.67342754437935
  endloop
endfacet
facet normal 1.0 -7.457523893199587e-16 -5.85702683962629e-14
  outer loop
    vertex 1567.8193776270318 -25.333287227937177 47.67342754437935
    vertex 1567.8193776270311 -25.333287227937213 38.67342754437938
    vertex 1567.8193776270311 -24.815649137732144 38.74157589180124
  endloop
endfacet
facet normal 1.0 -7.457523893199587e-16 -5.85702683962629e-14
  outer loop
    vertex 1567.8193776270318 -25.333287227937177 47.67342754437935
    vertex 1567.8193776270311 -24.815649137732144 38.74157589180124
    vertex 1567.8193776270318 -24.815649137732155 47.74157589180122
  endloop
endfacet
facet normal 1.0 -7.457523893199587e-16 -5.85702683962629e-14
  outer loop
    vertex 1567.8193776270318 -24.815649137732155 47.74157589180122
    vertex 1567.8193776270311 -24.815649137732144 38.74157589180124
    vertex 1567.8193776270318 -24.333287227937213 47.94137673681047
  endloop
endfacet
facet normal 1.0 -7.457523893199587e-16 -5.85702683962629e-14
  outer loop
    vertex 1567.8193776270318 -24.333287227937213 47.94137673681047
    vertex 1567.8193776270311 -24.815649137732144 38.74157589180124
    vertex 1567.8193776270311 -24.33328722793726 38.9413767368105
  endloop
endfacet
facet normal 1.0 -7.457523893199587e-16 -5.85702683962629e-14
  outer loop
    vertex 1567.8193776270318 -24.333287227937213 47.94137673681047
    vertex 1567.8193776270311 -24.33328722793726 38.9413767368105
    vertex 1567.8193776270311 -23.919073665564202 39.259213982006266
  endloop
endfacet
facet normal 1.0 -7.457523893199587e-16 -5.85702683962629e-14
  outer loop
    vertex 1567.8193776270318 -24.333287227937213 47.94137673681047
    vertex 1567.8193776270311 -23.919073665564202 39.259213982006266
    vertex 1567.8193776270318 -23.919073665564127 48.25921398200624
  endloop
endfacet
facet normal 1.0 -7.457523893199587e-16 -5.85702683962629e-14
  outer loop
    vertex 1567.8193776270318 -23.919073665564127 48.25921398200624
    vertex 1567.8193776270311 -23.919073665564202 39.259213982006266
    vertex 1567.8193776270311 -23.601236420368433 39.67342754437934
  endloop
endfacet
facet normal 1.0 -7.457523893199587e-16 -5.85702683962629e-14
  outer loop
    vertex 1567.8193776270318 -23.919073665564127 48.25921398200624
    vertex 1567.8193776270311 -23.601236420368433 39.67342754437934
    vertex 1567.8193776270318 -23.601236420368355 48.67342754437933
  endloop
endfacet
facet normal 1.0 -7.457523893199587e-16 -5.85702683962629e-14
  outer loop
    vertex 1567.8193776270318 -23.601236420368355 48.67342754437933
    vertex 1567.8193776270311 -23.601236420368433 39.67342754437934
    vertex 1567.8193776270311 -23.401435575359137 40.155789454174275
  endloop
endfacet
facet normal 1.0 -7.457523893199587e-16 -5.85702683962629e-14
  outer loop
    vertex 1567.8193776270318 -23.601236420368355 48.67342754437933
    vertex 1567.8193776270311 -23.401435575359137 40.155789454174275
    vertex 1567.8193776270318 -23.401435575359102 49.15578945417427
  endloop
endfacet
facet normal 1.0 -7.457523893199587e-16 -5.85702683962629e-14
  outer loop
    vertex 1567.8193776270318 -23.401435575359102 49.15578945417427
    vertex 1567.8193776270311 -23.401435575359137 40.155789454174275
    vertex 1567.8193776270311 -23.333287227937305 40.67342754437929
  endloop
endfacet
facet normal 1.0 -7.457523893199587e-16 -5.85702683962629e-14
  outer loop
    vertex 1567.8193776270318 -23.401435575359102 49.15578945417427
    vertex 1567.8193776270311 -23.333287227937305 40.67342754437929
    vertex 1567.8193776270318 -23.33328722793724 49.673427544379294
  endloop
endfacet
facet normal 0.0 0.0 -1.0
  outer loop
    vertex 1572.8193776270311 -21.333287227937216 33.67342754437929
    vertex 1564.3686060149748 -29.33328722793721 33.67342754437929
    vertex 1562.8193776270314 -21.3332872279378 33.67342754437929
  endloop
endfacet
facet normal 0.0 0.0 -1.0
  outer loop
    vertex 1564.3686060149748 -29.33328722793721 33.67342754437929
    vertex 1572.8193776270311 -21.333287227937216 33.67342754437929
    vertex 1570.3193776270311 -25.33328722793721 33.67342754437929
  endloop
endfacet
facet normal 0.0 0.0 -1.0
  outer loop
    vertex 1570.3193776270311 -25.33328722793721 33.67342754437929
    vertex 1572.8193776270311 -21.333287227937216 33.67342754437929
    vertex 1572.8193776270311 -25.33328722793721 33.67342754437929
  endloop
endfacet
facet normal 0.0 0.0 -1.0
  outer loop
    vertex 1570.3193776270311 -29.333287227937202 33.67342754437929
    vertex 1564.3686060149748 -29.33328722793721 33.67342754437929
    vertex 1570.3193776270311 -25.33328722793721 33.67342754437929
  endloop
endfacet
facet normal 6.217238773384261e-31 1.0 -6.695494189437485e-15
  outer loop
    vertex 1562.8193776270314 -21.333287227937276 51.67342754437931
    vertex 1572.8193776270311 -21.333287227937216 33.67342754437929
    vertex 1562.8193776270314 -21.3332872279378 33.67342754437929
  endloop
endfacet
facet normal 6.217238773384261e-31 1.0 -6.695494189437485e-15
  outer loop
    vertex 1572.8193776270311 -21.333287227937216 33.67342754437929
    vertex 1562.8193776270314 -21.333287227937276 51.67342754437931
    vertex 1572.8193776270311 -21.333287227937216 49.673427544379294
  endloop
endfacet
facet normal 6.217238773384261e-31 1.0 -6.695494189437485e-15
  outer loop
    vertex 1572.8193776270311 -21.333287227937216 49.673427544379294
    vertex 1562.8193776270314 -21.333287227937276 51.67342754437931
    vertex 1639.6193776270318 -21.333287227937216 49.673427544379294
  endloop
endfacet
facet normal 6.217238773384261e-31 1.0 -6.695494189437485e-15
  outer loop
    vertex 1558.8193776270311 -21.333287227937223 53.67342754437929
    vertex 1560.8193776270311 -21.333287227937223 33.67342754437929
    vertex 1558.8193776270311 -21.333287227937223 33.67342754437929
  endloop
endfacet
facet normal 6.217238773384261e-31 1.0 -6.695494189437485e-15
  outer loop
    vertex 1560.8193776270311 -21.333287227937223 33.67342754437929
    vertex 1558.8193776270311 -21.333287227937223 53.67342754437929
    vertex 1560.8193776270311 -21.33328722793728 51.6734275443793
  endloop
endfacet
facet normal 6.217238773384261e-31 1.0 -6.695494189437485e-15
  outer loop
    vertex 1560.8193776270311 -21.33328722793728 51.6734275443793
    vertex 1558.8193776270311 -21.333287227937223 53.67342754437929
    vertex 1562.8193776270314 -21.333287227937276 51.67342754437931
  endloop
endfacet
facet normal 6.217238773384261e-31 1.0 -6.695494189437485e-15
  outer loop
    vertex 1562.8193776270314 -21.333287227937276 51.67342754437931
    vertex 1558.8193776270311 -21.333287227937223 53.67342754437929
    vertex 1649.6193776270316 -21.333287227937276 51.67342754437931
  endloop
endfacet
facet normal 6.217238773384261e-31 1.0 -6.695494189437485e-15
  outer loop
    vertex 1651.6193776270316 -21.33328722793728 51.6734275443793
    vertex 1653.6193776270313 -21.333287227937223 33.67342754437929
    vertex 1651.6193776270316 -21.333287227937223 33.67342754437929
  endloop
endfacet
facet normal 6.217238773384261e-31 1.0 -6.695494189437485e-15
  outer loop
    vertex 1653.6193776270313 -21.333287227937223 33.67342754437929
    vertex 1651.6193776270316 -21.33328722793728 51.6734275443793
    vertex 1653.6193776270313 -21.333287227937223 53.67342754437929
  endloop
endfacet
facet normal 6.217238773384261e-31 1.0 -6.695494189437485e-15
  outer loop
    vertex 1653.6193776270313 -21.333287227937223 53.67342754437929
    vertex 1651.6193776270316 -21.33328722793728 51.6734275443793
    vertex 1649.6193776270316 -21.333287227937276 51.67342754437931
  endloop
endfacet
facet normal 6.217238773384261e-31 1.0 -6.695494189437485e-15
  outer loop
    vertex 1653.6193776270313 -21.333287227937223 53.67342754437929
    vertex 1649.6193776270316 -21.333287227937276 51.67342754437931
    vertex 1558.8193776270311 -21.333287227937223 53.67342754437929
  endloop
endfacet
facet normal 6.217238773384261e-31 1.0 -6.695494189437485e-15
  outer loop
    vertex 1639.6193776270318 -21.333287227937216 49.673427544379294
    vertex 1649.619377627031 -21.3332872279378 33.67342754437929
    vertex 1639.6193776270318 -21.333287227937216 33.67342754437929
  endloop
endfacet
facet normal 6.217238773384261e-31 1.0 -6.695494189437485e-15
  outer loop
    vertex 1649.619377627031 -21.3332872279378 33.67342754437929
    vertex 1639.6193776270318 -21.333287227937216 49.673427544379294
    vertex 1649.6193776270316 -21.333287227937276 51.67342754437931
  endloop
endfacet
facet normal 6.217238773384261e-31 1.0 -6.695494189437485e-15
  outer loop
    vertex 1649.6193776270316 -21.333287227937276 51.67342754437931
    vertex 1639.6193776270318 -21.333287227937216 49.673427544379294
    vertex 1562.8193776270314 -21.333287227937276 51.67342754437931
  endloop
endfacet
facet normal 0.0 0.0 -1.0
  outer loop
    vertex 1639.6193776270318 -21.333287227937216 33.67342754437929
    vertex 1642.1193776270316 -25.33328722793721 33.67342754437929
    vertex 1639.6193776270313 -25.33328722793721 33.67342754437929
  endloop
endfacet
facet normal 0.0 0.0 -1.0
  outer loop
    vertex 1642.1193776270316 -25.33328722793721 33.67342754437929
    vertex 1639.6193776270318 -21.333287227937216 33.67342754437929
    vertex 1649.619377627031 -21.3332872279378 33.67342754437929
  endloop
endfacet
facet normal 0.0 0.0 -1.0
  outer loop
    vertex 1642.1193776270316 -25.33328722793721 33.67342754437929
    vertex 1649.619377627031 -21.3332872279378 33.67342754437929
    vertex 1642.1193776270316 -29.333287227937202 33.67342754437929
  endloop
endfacet
facet normal 0.0 0.0 -1.0
  outer loop
    vertex 1642.1193776270316 -29.333287227937202 33.67342754437929
    vertex 1649.619377627031 -21.3332872279378 33.67342754437929
    vertex 1648.0701492390879 -29.33328722793721 33.67342754437929
  endloop
endfacet
facet normal -0.9817605845072516 0.19012142096034287 1.3412855611647916e-16
  outer loop
    vertex 1650.0701492390876 -29.333287227937145 51.47665149776314
    vertex 1651.6193776270316 -21.333287227937223 33.67342754437929
    vertex 1650.0701492390876 -29.33328722793718 33.67342754437929
  endloop
endfacet
facet normal -0.9817605845072516 0.19012142096034287 1.3412855611647916e-16
  outer loop
    vertex 1651.6193776270316 -21.333287227937223 33.67342754437929
    vertex 1650.0701492390876 -29.333287227937145 51.47665149776314
    vertex 1651.6193776270316 -21.33328722793728 51.6734275443793
  endloop
endfacet
facet normal 0.9817605845072526 -0.19012142096033793 -1.8408081153983988e-15
  outer loop
    vertex 1649.619377627031 -21.3332872279378 33.67342754437929
    vertex 1648.0701492390879 -29.333287227937145 51.47665149776314
    vertex 1648.0701492390879 -29.33328722793721 33.67342754437929
  endloop
endfacet
facet normal 0.9817605845072526 -0.19012142096033793 -1.8408081153983988e-15
  outer loop
    vertex 1648.0701492390879 -29.333287227937145 51.47665149776314
    vertex 1649.619377627031 -21.3332872279378 33.67342754437929
    vertex 1649.6193776270316 -21.333287227937276 51.67342754437931
  endloop
endfacet
facet normal -1.0 -7.457523893199587e-16 -5.85702683962629e-14
  outer loop
    vertex 1644.6193776270309 -27.06533803550601 48.67342754437933
    vertex 1644.6193776270313 -27.333287227937117 40.67342754437929
    vertex 1644.6193776270309 -27.333287227937117 49.02262573058787
  endloop
endfacet
facet normal -1.0 -7.457523893199587e-16 -5.85702683962629e-14
  outer loop
    vertex 1644.6193776270313 -27.333287227937117 40.67342754437929
    vertex 1644.6193776270309 -27.06533803550601 48.67342754437933
    vertex 1644.6193776270313 -27.265138880515284 40.155789454174275
  endloop
endfacet
facet normal -1.0 -7.457523893199587e-16 -5.85702683962629e-14
  outer loop
    vertex 1644.6193776270313 -27.265138880515284 40.155789454174275
    vertex 1644.6193776270309 -27.06533803550601 48.67342754437933
    vertex 1644.6193776270313 -27.065338035505984 39.67342754437934
  endloop
endfacet
facet normal -1.0 -7.457523893199587e-16 -5.85702683962629e-14
  outer loop
    vertex 1644.6193776270313 -27.065338035505984 39.67342754437934
    vertex 1644.6193776270309 -27.06533803550601 48.67342754437933
    vertex 1644.6193776270309 -26.74750079031023 48.25921398200624
  endloop
endfacet
facet normal -1.0 -7.457523893199587e-16 -5.85702683962629e-14
  outer loop
    vertex 1644.6193776270313 -27.065338035505984 39.67342754437934
    vertex 1644.6193776270309 -26.74750079031023 48.25921398200624
    vertex 1644.6193776270313 -26.747500790310216 39.259213982006266
  endloop
endfacet
facet normal -1.0 -7.457523893199587e-16 -5.85702683962629e-14
  outer loop
    vertex 1644.6193776270313 -26.747500790310216 39.259213982006266
    vertex 1644.6193776270309 -26.74750079031023 48.25921398200624
    vertex 1644.6193776270309 -26.333287227937152 47.94137673681047
  endloop
endfacet
facet normal -1.0 -7.457523893199587e-16 -5.85702683962629e-14
  outer loop
    vertex 1644.6193776270313 -26.747500790310216 39.259213982006266
    vertex 1644.6193776270309 -26.333287227937152 47.94137673681047
    vertex 1644.6193776270313 -26.333287227937163 38.9413767368105
  endloop
endfacet
facet normal -1.0 -7.457523893199587e-16 -5.85702683962629e-14
  outer loop
    vertex 1644.6193776270313 -26.333287227937163 38.9413767368105
    vertex 1644.6193776270309 -26.333287227937152 47.94137673681047
    vertex 1644.6193776270313 -25.850925318142277 38.74157589180124
  endloop
endfacet
facet normal -1.0 -7.457523893199587e-16 -5.85702683962629e-14
  outer loop
    vertex 1644.6193776270313 -25.850925318142277 38.74157589180124
    vertex 1644.6193776270309 -26.333287227937152 47.94137673681047
    vertex 1644.6193776270309 -25.85092531814221 47.74157589180122
  endloop
endfacet
facet normal -1.0 -7.457523893199587e-16 -5.85702683962629e-14
  outer loop
    vertex 1644.6193776270313 -25.850925318142277 38.74157589180124
    vertex 1644.6193776270309 -25.85092531814221 47.74157589180122
    vertex 1644.6193776270313 -25.333287227937213 38.67342754437938
  endloop
endfacet
facet normal -1.0 -7.457523893199587e-16 -5.85702683962629e-14
  outer loop
    vertex 1644.6193776270313 -25.333287227937213 38.67342754437938
    vertex 1644.6193776270309 -25.85092531814221 47.74157589180122
    vertex 1644.6193776270309 -25.333287227937177 47.67342754437935
  endloop
endfacet
facet normal -1.0 -7.457523893199587e-16 -5.85702683962629e-14
  outer loop
    vertex 1644.6193776270313 -25.333287227937213 38.67342754437938
    vertex 1644.6193776270309 -25.333287227937177 47.67342754437935
    vertex 1644.6193776270313 -24.815649137732144 38.74157589180124
  endloop
endfacet
facet normal -1.0 -7.457523893199587e-16 -5.85702683962629e-14
  outer loop
    vertex 1644.6193776270313 -24.815649137732144 38.74157589180124
    vertex 1644.6193776270309 -25.333287227937177 47.67342754437935
    vertex 1644.6193776270309 -24.815649137732155 47.74157589180122
  endloop
endfacet
facet normal -1.0 -7.457523893199587e-16 -5.85702683962629e-14
  outer loop
    vertex 1644.6193776270313 -24.815649137732144 38.74157589180124
    vertex 1644.6193776270309 -24.815649137732155 47.74157589180122
    vertex 1644.6193776270309 -24.333287227937213 47.94137673681047
  endloop
endfacet
facet normal -1.0 -7.457523893199587e-16 -5.85702683962629e-14
  outer loop
    vertex 1644.6193776270313 -24.815649137732144 38.74157589180124
    vertex 1644.6193776270309 -24.333287227937213 47.94137673681047
    vertex 1644.6193776270313 -24.33328722793726 38.9413767368105
  endloop
endfacet
facet normal -1.0 -7.457523893199587e-16 -5.85702683962629e-14
  outer loop
    vertex 1644.6193776270313 -24.33328722793726 38.9413767368105
    vertex 1644.6193776270309 -24.333287227937213 47.94137673681047
    vertex 1644.6193776270313 -23.919073665564202 39.259213982006266
  endloop
endfacet
facet normal -1.0 -7.457523893199587e-16 -5.85702683962629e-14
  outer loop
    vertex 1644.6193776270313 -23.919073665564202 39.259213982006266
    vertex 1644.6193776270309 -24.333287227937213 47.94137673681047
    vertex 1644.6193776270309 -23.919073665564127 48.25921398200624
  endloop
endfacet
facet normal -1.0 -7.457523893199587e-16 -5.85702683962629e-14
  outer loop
    vertex 1644.6193776270313 -23.919073665564202 39.259213982006266
    vertex 1644.6193776270309 -23.919073665564127 48.25921398200624
    vertex 1644.6193776270313 -23.601236420368433 39.67342754437934
  endloop
endfacet
facet normal -1.0 -7.457523893199587e-16 -5.85702683962629e-14
  outer loop
    vertex 1644.6193776270313 -23.601236420368433 39.67342754437934
    vertex 1644.6193776270309 -23.919073665564127 48.25921398200624
    vertex 1644.6193776270309 -23.601236420368355 48.67342754437933
  endloop
endfacet
facet normal -1.0 -7.457523893199587e-16 -5.85702683962629e-14
  outer loop
    vertex 1644.6193776270313 -23.601236420368433 39.67342754437934
    vertex 1644.6193776270309 -23.601236420368355 48.67342754437933
    vertex 1644.6193776270313 -23.401435575359137 40.155789454174275
  endloop
endfacet
facet normal -1.0 -7.457523893199587e-16 -5.85702683962629e-14
  outer loop
    vertex 1644.6193776270313 -23.401435575359137 40.155789454174275
    vertex 1644.6193776270309 -23.601236420368355 48.67342754437933
    vertex 1644.6193776270309 -23.401435575359102 49.15578945417427
  endloop
endfacet
facet normal -1.0 -7.457523893199587e-16 -5.85702683962629e-14
  outer loop
    vertex 1644.6193776270313 -23.401435575359137 40.155789454174275
    vertex 1644.6193776270309 -23.401435575359102 49.15578945417427
    vertex 1644.6193776270313 -23.333287227937305 40.67342754437929
  endloop
endfacet
facet normal -1.0 -7.457523893199587e-16 -5.85702683962629e-14
  outer loop
    vertex 1644.6193776270313 -23.333287227937305 40.67342754437929
    vertex 1644.6193776270309 -23.401435575359102 49.15578945417427
    vertex 1644.6193776270309 -23.33328722793724 49.673427544379294
  endloop
endfacet
facet normal 0.0 0.0 -1.0
  outer loop
    vertex 1651.6193776270316 -21.333287227937223 33.67342754437929
    vertex 1653.6193776270313 -29.33328722793721 33.67342754437929
    vertex 1650.0701492390876 -29.33328722793718 33.67342754437929
  endloop
endfacet
facet normal 0.0 0.0 -1.0
  outer loop
    vertex 1653.6193776270313 -29.33328722793721 33.67342754437929
    vertex 1651.6193776270316 -21.333287227937223 33.67342754437929
    vertex 1653.6193776270313 -21.333287227937223 33.67342754437929
  endloop
endfacet
facet normal 1.0 -4.163336342344338e-16 0.0
  outer loop
    vertex 1653.6193776270313 -21.333287227937223 33.67342754437929
    vertex 1653.6193776270313 -29.33328722793721 53.67342754437929
    vertex 1653.6193776270313 -29.33328722793721 33.67342754437929
  endloop
endfacet
facet normal 1.0 -4.163336342344338e-16 0.0
  outer loop
    vertex 1653.6193776270313 -29.33328722793721 53.67342754437929
    vertex 1653.6193776270313 -21.333287227937223 33.67342754437929
    vertex 1653.6193776270313 -21.333287227937223 53.67342754437929
  endloop
endfacet
facet normal 2.465190328815662e-31 0.793353340291241 -0.6087614290087129
  outer loop
    vertex 1642.1193776270316 -23.60123642036837 48.67342754437933
    vertex 1644.6193776270309 -23.919073665564127 48.25921398200624
    vertex 1642.1193776270316 -23.91907366556414 48.25921398200624
  endloop
endfacet
facet normal 2.465190328815662e-31 0.793353340291241 -0.6087614290087129
  outer loop
    vertex 1644.6193776270309 -23.919073665564127 48.25921398200624
    vertex 1642.1193776270316 -23.60123642036837 48.67342754437933
    vertex 1644.6193776270309 -23.601236420368355 48.67342754437933
  endloop
endfacet
facet normal 0.0 0.3826834323650916 -0.923879532511286
  outer loop
    vertex 1644.6193776270309 -24.333287227937213 47.94137673681047
    vertex 1642.1193776270316 -24.81564913773216 47.74157589180122
    vertex 1642.1193776270316 -24.333287227937227 47.94137673681047
  endloop
endfacet
facet normal 0.0 0.3826834323650916 -0.923879532511286
  outer loop
    vertex 1642.1193776270316 -24.81564913773216 47.74157589180122
    vertex 1644.6193776270309 -24.333287227937213 47.94137673681047
    vertex 1644.6193776270309 -24.815649137732155 47.74157589180122
  endloop
endfacet
facet normal 2.0165256889712114e-29 0.9914448613738105 -0.13052619222005102
  outer loop
    vertex 1639.6193776270313 -23.33328722793724 49.673427544379294
    vertex 1642.1193776270316 -23.401435575359116 49.15578945417427
    vertex 1639.6193776270313 -23.401435575359102 49.15578945417427
  endloop
endfacet
facet normal 2.0165256889712114e-29 0.9914448613738105 -0.13052619222005102
  outer loop
    vertex 1642.1193776270316 -23.401435575359116 49.15578945417427
    vertex 1639.6193776270313 -23.33328722793724 49.673427544379294
    vertex 1644.6193776270309 -23.401435575359102 49.15578945417427
  endloop
endfacet
facet normal 2.0165256889712114e-29 0.9914448613738105 -0.13052619222005102
  outer loop
    vertex 1644.6193776270309 -23.401435575359102 49.15578945417427
    vertex 1639.6193776270313 -23.33328722793724 49.673427544379294
    vertex 1644.6193776270309 -23.33328722793724 49.673427544379294
  endloop
endfacet
facet normal 0.0 0.13052619222005635 -0.9914448613738099
  outer loop
    vertex 1644.6193776270309 -24.815649137732155 47.74157589180122
    vertex 1642.1193776270316 -25.33328722793718 47.67342754437935
    vertex 1642.1193776270316 -24.81564913773216 47.74157589180122
  endloop
endfacet
facet normal 0.0 0.13052619222005635 -0.9914448613738099
  outer loop
    vertex 1642.1193776270316 -25.33328722793718 47.67342754437935
    vertex 1644.6193776270309 -24.815649137732155 47.74157589180122
    vertex 1644.6193776270309 -25.333287227937177 47.67342754437935
  endloop
endfacet
facet normal -2.083474001272957e-15 0.9238795325112852 -0.38268343236509345
  outer loop
    vertex 1642.1193776270316 -23.401435575359116 49.15578945417427
    vertex 1644.6193776270309 -23.601236420368355 48.67342754437933
    vertex 1642.1193776270316 -23.60123642036837 48.67342754437933
  endloop
endfacet
facet normal -2.083474001272957e-15 0.9238795325112852 -0.38268343236509345
  outer loop
    vertex 1644.6193776270309 -23.601236420368355 48.67342754437933
    vertex 1642.1193776270316 -23.401435575359116 49.15578945417427
    vertex 1644.6193776270309 -23.401435575359102 49.15578945417427
  endloop
endfacet
facet normal 0.0 -0.13052619222005565 -0.9914448613738099
  outer loop
    vertex 1644.6193776270309 -25.333287227937177 47.67342754437935
    vertex 1642.1193776270316 -25.850925318142203 47.74157589180122
    vertex 1642.1193776270316 -25.33328722793718 47.67342754437935
  endloop
endfacet
facet normal 0.0 -0.13052619222005565 -0.9914448613738099
  outer loop
    vertex 1642.1193776270316 -25.850925318142203 47.74157589180122
    vertex 1644.6193776270309 -25.333287227937177 47.67342754437935
    vertex 1644.6193776270309 -25.85092531814221 47.74157589180122
  endloop
endfacet
facet normal 0.0 -0.6087614290087148 -0.7933533402912397
  outer loop
    vertex 1644.6193776270309 -26.333287227937152 47.94137673681047
    vertex 1642.1193776270316 -26.74750079031023 48.25921398200624
    vertex 1642.1193776270316 -26.333287227937145 47.94137673681047
  endloop
endfacet
facet normal 0.0 -0.6087614290087148 -0.7933533402912397
  outer loop
    vertex 1642.1193776270316 -26.74750079031023 48.25921398200624
    vertex 1644.6193776270309 -26.333287227937152 47.94137673681047
    vertex 1644.6193776270309 -26.74750079031023 48.25921398200624
  endloop
endfacet
facet normal 0.0 0.6087614290087148 -0.7933533402912397
  outer loop
    vertex 1644.6193776270309 -23.919073665564127 48.25921398200624
    vertex 1642.1193776270316 -24.333287227937227 47.94137673681047
    vertex 1642.1193776270316 -23.91907366556414 48.25921398200624
  endloop
endfacet
facet normal 0.0 0.6087614290087148 -0.7933533402912397
  outer loop
    vertex 1642.1193776270316 -24.333287227937227 47.94137673681047
    vertex 1644.6193776270309 -23.919073665564127 48.25921398200624
    vertex 1644.6193776270309 -24.333287227937213 47.94137673681047
  endloop
endfacet
facet normal 0.0 -0.38268343236509356 -0.9238795325112852
  outer loop
    vertex 1644.6193776270309 -25.85092531814221 47.74157589180122
    vertex 1642.1193776270316 -26.333287227937145 47.94137673681047
    vertex 1642.1193776270316 -25.850925318142203 47.74157589180122
  endloop
endfacet
facet normal 0.0 -0.38268343236509356 -0.9238795325112852
  outer loop
    vertex 1642.1193776270316 -26.333287227937145 47.94137673681047
    vertex 1644.6193776270309 -25.85092531814221 47.74157589180122
    vertex 1644.6193776270309 -26.333287227937152 47.94137673681047
  endloop
endfacet
facet normal -8.967795940436336e-16 -0.7933533402912358 -0.6087614290087197
  outer loop
    vertex 1644.6193776270309 -27.06533803550601 48.67342754437933
    vertex 1642.1193776270316 -26.74750079031023 48.25921398200624
    vertex 1644.6193776270309 -26.74750079031023 48.25921398200624
  endloop
endfacet
facet normal -8.967795940436336e-16 -0.7933533402912358 -0.6087614290087197
  outer loop
    vertex 1642.1193776270316 -26.74750079031023 48.25921398200624
    vertex 1644.6193776270309 -27.06533803550601 48.67342754437933
    vertex 1642.1193776270316 -27.065338035506002 48.67342754437933
  endloop
endfacet
facet normal -2.643413455306314e-15 0.02458956845123112 -0.9996976308481391
  outer loop
    vertex 1649.6193776270316 -21.333287227937276 51.67342754437931
    vertex 1650.0701492390876 -29.333287227937145 51.47665149776314
    vertex 1648.0701492390879 -29.333287227937145 51.47665149776314
  endloop
endfacet
facet normal -2.643413455306314e-15 0.02458956845123112 -0.9996976308481391
  outer loop
    vertex 1650.0701492390876 -29.333287227937145 51.47665149776314
    vertex 1649.6193776270316 -21.333287227937276 51.67342754437931
    vertex 1651.6193776270316 -21.33328722793728 51.6734275443793
  endloop
endfacet
facet normal 1.0 0.0 0.0
  outer loop
    vertex 1642.1193776270316 -25.33328722793721 33.67342754437929
    vertex 1642.1193776270316 -29.333287227937202 51.62907647627042
    vertex 1642.1193776270316 -29.333287227937202 33.67342754437929
  endloop
endfacet
facet normal 1.0 0.0 0.0
  outer loop
    vertex 1642.1193776270316 -29.333287227937202 51.62907647627042
    vertex 1642.1193776270316 -25.33328722793721 33.67342754437929
    vertex 1642.1193776270316 -27.065338035506002 48.67342754437933
  endloop
endfacet
facet normal 1.0 0.0 0.0
  outer loop
    vertex 1642.1193776270316 -27.065338035506002 48.67342754437933
    vertex 1642.1193776270316 -25.33328722793721 33.67342754437929
    vertex 1642.1193776270316 -26.74750079031023 48.25921398200624
  endloop
endfacet
facet normal 1.0 0.0 0.0
  outer loop
    vertex 1642.1193776270316 -26.74750079031023 48.25921398200624
    vertex 1642.1193776270316 -25.33328722793721 33.67342754437929
    vertex 1642.1193776270316 -26.333287227937145 47.94137673681047
  endloop
endfacet
facet normal 1.0 0.0 0.0
  outer loop
    vertex 1642.1193776270316 -26.333287227937145 47.94137673681047
    vertex 1642.1193776270316 -25.33328722793721 33.67342754437929
    vertex 1642.1193776270316 -25.850925318142203 47.74157589180122
  endloop
endfacet
facet normal 1.0 0.0 0.0
  outer loop
    vertex 1642.1193776270316 -25.850925318142203 47.74157589180122
    vertex 1642.1193776270316 -25.33328722793721 33.67342754437929
    vertex 1642.1193776270316 -25.33328722793718 47.67342754437935
  endloop
endfacet
facet normal 1.0 0.0 0.0
  outer loop
    vertex 1642.1193776270316 -25.33328722793718 47.67342754437935
    vertex 1642.1193776270316 -25.33328722793721 33.67342754437929
    vertex 1642.1193776270316 -24.81564913773216 47.74157589180122
  endloop
endfacet
facet normal 1.0 0.0 0.0
  outer loop
    vertex 1642.1193776270316 -24.81564913773216 47.74157589180122
    vertex 1642.1193776270316 -25.33328722793721 33.67342754437929
    vertex 1642.1193776270316 -24.333287227937227 47.94137673681047
  endloop
endfacet
facet normal 1.0 0.0 0.0
  outer loop
    vertex 1642.1193776270316 -24.333287227937227 47.94137673681047
    vertex 1642.1193776270316 -25.33328722793721 33.67342754437929
    vertex 1642.1193776270316 -23.91907366556414 48.25921398200624
  endloop
endfacet
facet normal 1.0 0.0 0.0
  outer loop
    vertex 1642.1193776270316 -23.91907366556414 48.25921398200624
    vertex 1642.1193776270316 -25.33328722793721 33.67342754437929
    vertex 1642.1193776270316 -23.60123642036837 48.67342754437933
  endloop
endfacet
facet normal 1.0 0.0 0.0
  outer loop
    vertex 1642.1193776270316 -23.60123642036837 48.67342754437933
    vertex 1642.1193776270316 -25.33328722793721 33.67342754437929
    vertex 1642.1193776270316 -23.401435575359116 49.15578945417427
  endloop
endfacet
facet normal -6.2253785175171075e-16 -0.7933533402912386 -0.6087614290087162
  outer loop
    vertex 1644.6193776270309 -27.333287227937117 49.02262573058787
    vertex 1642.1193776270316 -27.065338035506002 48.67342754437933
    vertex 1644.6193776270309 -27.06533803550601 48.67342754437933
  endloop
endfacet
facet normal -6.2253785175171075e-16 -0.7933533402912386 -0.6087614290087162
  outer loop
    vertex 1642.1193776270316 -27.065338035506002 48.67342754437933
    vertex 1644.6193776270309 -27.333287227937117 49.02262573058787
    vertex 1642.1193776270316 -29.333287227937202 51.62907647627042
  endloop
endfacet
facet normal -6.2253785175171075e-16 -0.7933533402912386 -0.6087614290087162
  outer loop
    vertex 1642.1193776270316 -29.333287227937202 51.62907647627042
    vertex 1644.6193776270309 -27.333287227937117 49.02262573058787
    vertex 1644.6193776270309 -29.333287227937202 51.62907647627042
  endloop
endfacet
facet normal 1.0 0.0 0.0
  outer loop
    vertex 1639.6193776270318 -21.333287227937216 33.67342754437929
    vertex 1639.6193776270313 -23.401435575359102 49.15578945417427
    vertex 1639.6193776270313 -25.33328722793721 33.67342754437929
  endloop
endfacet
facet normal 1.0 0.0 0.0
  outer loop
    vertex 1639.6193776270313 -23.401435575359102 49.15578945417427
    vertex 1639.6193776270318 -21.333287227937216 33.67342754437929
    vertex 1639.6193776270313 -23.33328722793724 49.673427544379294
  endloop
endfacet
facet normal 1.0 0.0 0.0
  outer loop
    vertex 1639.6193776270313 -23.33328722793724 49.673427544379294
    vertex 1639.6193776270318 -21.333287227937216 33.67342754437929
    vertex 1639.6193776270318 -21.333287227937216 49.673427544379294
  endloop
endfacet
facet normal 1.2755656480629883e-15 -1.0 6.710290203047109e-16
  outer loop
    vertex 1653.6193776270313 -29.33328722793721 53.67342754437929
    vertex 1650.0701492390876 -29.33328722793718 33.67342754437929
    vertex 1653.6193776270313 -29.33328722793721 33.67342754437929
  endloop
endfacet
facet normal 1.2755656480629883e-15 -1.0 6.710290203047109e-16
  outer loop
    vertex 1650.0701492390876 -29.33328722793718 33.67342754437929
    vertex 1653.6193776270313 -29.33328722793721 53.67342754437929
    vertex 1650.0701492390876 -29.333287227937145 51.47665149776314
  endloop
endfacet
facet normal 1.2755656480629883e-15 -1.0 6.710290203047109e-16
  outer loop
    vertex 1650.0701492390876 -29.333287227937145 51.47665149776314
    vertex 1653.6193776270313 -29.33328722793721 53.67342754437929
    vertex 1648.0701492390879 -29.333287227937145 51.47665149776314
  endloop
endfacet
facet normal 1.2755656480629883e-15 -1.0 6.710290203047109e-16
  outer loop
    vertex 1648.0701492390879 -29.333287227937145 51.47665149776314
    vertex 1653.6193776270313 -29.33328722793721 53.67342754437929
    vertex 1644.6193776270309 -29.333287227937202 51.62907647627042
  endloop
endfacet
facet normal 1.2755656480629883e-15 -1.0 6.710290203047109e-16
  outer loop
    vertex 1644.6193776270309 -29.333287227937202 51.62907647627042
    vertex 1653.6193776270313 -29.33328722793721 53.67342754437929
    vertex 1644.6193776270306 -29.333287227937202 53.67342754437929
  endloop
endfacet
facet normal 1.2755656480629883e-15 -1.0 6.710290203047109e-16
  outer loop
    vertex 1648.0701492390879 -29.333287227937145 51.47665149776314
    vertex 1642.1193776270316 -29.333287227937202 33.67342754437929
    vertex 1648.0701492390879 -29.33328722793721 33.67342754437929
  endloop
endfacet
facet normal 1.2755656480629883e-15 -1.0 6.710290203047109e-16
  outer loop
    vertex 1642.1193776270316 -29.333287227937202 33.67342754437929
    vertex 1648.0701492390879 -29.333287227937145 51.47665149776314
    vertex 1642.1193776270316 -29.333287227937202 51.62907647627042
  endloop
endfacet
facet normal 1.2755656480629883e-15 -1.0 6.710290203047109e-16
  outer loop
    vertex 1642.1193776270316 -29.333287227937202 51.62907647627042
    vertex 1648.0701492390879 -29.333287227937145 51.47665149776314
    vertex 1644.6193776270309 -29.333287227937202 51.62907647627042
  endloop
endfacet
facet normal 1.0 -4.977138046034772e-15 2.2041072591705058e-14
  outer loop
    vertex 1644.6193776270309 -27.333287227937117 49.02262573058787
    vertex 1644.6193776270306 -29.333287227937202 53.67342754437929
    vertex 1644.6193776270309 -29.333287227937202 51.62907647627042
  endloop
endfacet
facet normal 1.0 -4.977138046034772e-15 2.2041072591705058e-14
  outer loop
    vertex 1644.6193776270306 -29.333287227937202 53.67342754437929
    vertex 1644.6193776270309 -27.333287227937117 49.02262573058787
    vertex 1644.6193776270306 -25.90321738430524 53.67342754437929
  endloop
endfacet
facet normal 1.0 -4.977138046034772e-15 2.2041072591705058e-14
  outer loop
    vertex 1644.6193776270306 -25.90321738430524 53.67342754437929
    vertex 1644.6193776270309 -27.333287227937117 49.02262573058787
    vertex 1644.6193776270309 -27.06533803550601 48.67342754437933
  endloop
endfacet
facet normal 1.0 -4.977138046034772e-15 2.2041072591705058e-14
  outer loop
    vertex 1644.6193776270306 -25.90321738430524 53.67342754437929
    vertex 1644.6193776270309 -27.06533803550601 48.67342754437933
    vertex 1644.6193776270309 -26.74750079031023 48.25921398200624
  endloop
endfacet
facet normal 1.0 -4.977138046034772e-15 2.2041072591705058e-14
  outer loop
    vertex 1644.6193776270306 -25.90321738430524 53.67342754437929
    vertex 1644.6193776270309 -26.74750079031023 48.25921398200624
    vertex 1644.6193776270309 -26.333287227937152 47.94137673681047
  endloop
endfacet
facet normal 1.0 -4.977138046034772e-15 2.2041072591705058e-14
  outer loop
    vertex 1644.6193776270306 -25.90321738430524 53.67342754437929
    vertex 1644.6193776270309 -26.333287227937152 47.94137673681047
    vertex 1644.6193776270309 -25.85092531814221 47.74157589180122
  endloop
endfacet
facet normal 1.0 -4.977138046034772e-15 2.2041072591705058e-14
  outer loop
    vertex 1644.6193776270306 -25.90321738430524 53.67342754437929
    vertex 1644.6193776270309 -25.85092531814221 47.74157589180122
    vertex 1644.6193776270309 -23.919073665564127 51.08764110675234
  endloop
endfacet
facet normal 1.0 -4.977138046034772e-15 2.2041072591705058e-14
  outer loop
    vertex 1644.6193776270309 -23.919073665564127 51.08764110675234
    vertex 1644.6193776270309 -25.85092531814221 47.74157589180122
    vertex 1644.6193776270309 -25.333287227937177 47.67342754437935
  endloop
endfacet
facet normal 1.0 -4.977138046034772e-15 2.2041072591705058e-14
  outer loop
    vertex 1644.6193776270309 -23.919073665564127 51.08764110675234
    vertex 1644.6193776270309 -25.333287227937177 47.67342754437935
    vertex 1644.6193776270309 -24.815649137732155 47.74157589180122
  endloop
endfacet
facet normal 1.0 -4.977138046034772e-15 2.2041072591705058e-14
  outer loop
    vertex 1644.6193776270309 -23.919073665564127 51.08764110675234
    vertex 1644.6193776270309 -24.815649137732155 47.74157589180122
    vertex 1644.6193776270309 -24.333287227937213 47.94137673681047
  endloop
endfacet
facet normal 1.0 -4.977138046034772e-15 2.2041072591705058e-14
  outer loop
    vertex 1644.6193776270309 -23.919073665564127 51.08764110675234
    vertex 1644.6193776270309 -24.333287227937213 47.94137673681047
    vertex 1644.6193776270309 -23.919073665564127 48.25921398200624
  endloop
endfacet
facet normal 1.0 -4.977138046034772e-15 2.2041072591705058e-14
  outer loop
    vertex 1644.6193776270309 -23.919073665564127 51.08764110675234
    vertex 1644.6193776270309 -23.919073665564127 48.25921398200624
    vertex 1644.6193776270309 -23.601236420368355 48.67342754437933
  endloop
endfacet
facet normal 1.0 -4.977138046034772e-15 2.2041072591705058e-14
  outer loop
    vertex 1644.6193776270309 -23.919073665564127 51.08764110675234
    vertex 1644.6193776270309 -23.601236420368355 48.67342754437933
    vertex 1644.6193776270309 -23.601236420368355 50.67342754437926
  endloop
endfacet
facet normal 1.0 -4.977138046034772e-15 2.2041072591705058e-14
  outer loop
    vertex 1644.6193776270309 -23.601236420368355 50.67342754437926
    vertex 1644.6193776270309 -23.601236420368355 48.67342754437933
    vertex 1644.6193776270309 -23.401435575359102 49.15578945417427
  endloop
endfacet
facet normal 1.0 -4.977138046034772e-15 2.2041072591705058e-14
  outer loop
    vertex 1644.6193776270309 -23.601236420368355 50.67342754437926
    vertex 1644.6193776270309 -23.401435575359102 49.15578945417427
    vertex 1644.6193776270309 -23.401435575359102 50.19106563458431
  endloop
endfacet
facet normal 1.0 -4.977138046034772e-15 2.2041072591705058e-14
  outer loop
    vertex 1644.6193776270309 -23.401435575359102 50.19106563458431
    vertex 1644.6193776270309 -23.401435575359102 49.15578945417427
    vertex 1644.6193776270309 -23.33328722793724 49.673427544379294
  endloop
endfacet
facet normal 1.1549451364371603e-15 0.9923050170320765 -0.12381741869773576
  outer loop
    vertex 1639.6193776270313 -23.401435575359102 49.15578945417427
    vertex 1642.1193776270316 -25.33328722793721 33.67342754437929
    vertex 1639.6193776270313 -25.33328722793721 33.67342754437929
  endloop
endfacet
facet normal 1.1549451364371603e-15 0.9923050170320765 -0.12381741869773576
  outer loop
    vertex 1642.1193776270316 -25.33328722793721 33.67342754437929
    vertex 1639.6193776270313 -23.401435575359102 49.15578945417427
    vertex 1642.1193776270316 -23.401435575359116 49.15578945417427
  endloop
endfacet
endsolid bracket
