solid ramp
facet normal 0.9817605845072516 -0.19012142096034312 -8.9002219754453e-16
  outer loop
    vertex 1651.619377627031 -21.333287227937195 -1.3504853316862662
    vertex 1643.1773321724859 -64.92683622429149 50.60115676569546
    vertex 1643.1773321724859 -64.92683622429149 -4.398843234304544
  endloop
endfacet
facet normal 0.9817605845072516 -0.19012142096034312 -8.9002219754453e-16
  outer loop
    vertex 1643.1773321724859 -64.92683622429149 50.60115676569546
    vertex 1651.619377627031 -21.333287227937195 -1.3504853316862662
    vertex 1758.8924653520198 532.6100231828885 65.29877437839369
  endloop
endfacet
facet normal 0.9817605845072516 -0.19012142096034312 -8.9002219754453e-16
  outer loop
    vertex 1758.8924653520198 532.6100231828885 65.29877437839369
    vertex 1651.619377627031 -21.333287227937195 -1.3504853316862662
    vertex 1655.359377627031 -2.0204472149070067 0.0
  endloop
endfacet
facet normal 0.9817605845072516 -0.19012142096034312 -8.9002219754453e-16
  outer loop
    vertex 1758.8924653520198 532.6100231828885 65.29877437839369
    vertex 1655.359377627031 -2.0204472149070067 0.0
    vertex 1758.8924653520198 532.6100231828885 37.385004362777195
  endloop
endfacet
facet normal 0.0 0.06975647374412537 -0.9975640502598243
  outer loop
    vertex 1655.359377627031 -2.0204472149070067 0.0
    vertex 1560.819377627031 -21.333287227937195 -1.3504853316862662
    vertex 1557.0793776270311 -2.0204472149070067 0.0
  endloop
endfacet
facet normal 0.0 0.06975647374412537 -0.9975640502598243
  outer loop
    vertex 1560.819377627031 -21.333287227937195 -1.3504853316862662
    vertex 1655.359377627031 -2.0204472149070067 0.0
    vertex 1651.619377627031 -21.333287227937195 -1.3504853316862662
  endloop
endfacet
facet normal -1.680653949696692e-18 0.06975647374412534 -0.9975640502598243
  outer loop
    vertex 1758.8924653520198 532.6100231828885 37.385004362777195
    vertex 1557.0793776270311 -2.0204472149070067 0.0
    vertex 1453.5462899020426 532.6100231828885 37.385004362777195
  endloop
endfacet
facet normal -1.680653949696692e-18 0.06975647374412534 -0.9975640502598243
  outer loop
    vertex 1557.0793776270311 -2.0204472149070067 0.0
    vertex 1758.8924653520198 532.6100231828885 37.385004362777195
    vertex 1655.359377627031 -2.0204472149070067 0.0
  endloop
endfacet
facet normal -1.0315569805712992e-18 0.0697564737441254 -0.9975640502598243
  outer loop
    vertex 1651.619377627031 -21.333287227937195 -1.3504853316862662
    vertex 1569.2614230815764 -64.92683622429149 -4.398843234304544
    vertex 1560.819377627031 -21.333287227937195 -1.3504853316862662
  endloop
endfacet
facet normal -1.0315569805712992e-18 0.0697564737441254 -0.9975640502598243
  outer loop
    vertex 1569.2614230815764 -64.92683622429149 -4.398843234304544
    vertex 1651.619377627031 -21.333287227937195 -1.3504853316862662
    vertex 1643.1773321724859 -64.92683622429149 -4.398843234304544
  endloop
endfacet
facet normal -0.9817605845072516 -0.1901214209603425 1.599714682140269e-15
  outer loop
    vertex 1453.5462899020426 532.6100231828885 65.29877437839369
    vertex 1569.2614230815764 -64.92683622429149 -4.398843234304544
    vertex 1569.2614230815764 -64.92683622429149 50.60115676569546
  endloop
endfacet
facet normal -0.9817605845072516 -0.1901214209603425 1.599714682140269e-15
  outer loop
    vertex 1569.2614230815764 -64.92683622429149 -4.398843234304544
    vertex 1453.5462899020426 532.6100231828885 65.29877437839369
    vertex 1560.819377627031 -21.333287227937195 -1.3504853316862662
  endloop
endfacet
facet normal -0.9817605845072516 -0.1901214209603425 1.599714682140269e-15
  outer loop
    vertex 1560.819377627031 -21.333287227937195 -1.3504853316862662
    vertex 1453.5462899020426 532.6100231828885 65.29877437839369
    vertex 1557.0793776270311 -2.0204472149070067 0.0
  endloop
endfacet
facet normal -0.9817605845072516 -0.1901214209603425 1.599714682140269e-15
  outer loop
    vertex 1557.0793776270311 -2.0204472149070067 0.0
    vertex 1453.5462899020426 532.6100231828885 65.29877437839369
    vertex 1453.5462899020426 532.6100231828885 37.385004362777195
  endloop
endfacet
facet normal 0.0 -1.0 0.0
  outer loop
    vertex 1643.1773321724859 -64.92683622429149 -4.398843234304544
    vertex 1641.1773321724859 -64.92683622429149 -2.3988432343045445
    vertex 1569.2614230815764 -64.92683622429149 -4.398843234304544
  endloop
endfacet
facet normal 0.0 -1.0 0.0
  outer loop
    vertex 1641.1773321724859 -64.92683622429149 -2.3988432343045445
    vertex 1643.1773321724859 -64.92683622429149 -4.398843234304544
    vertex 1643.1773321724859 -64.92683622429149 50.60115676569546
  endloop
endfacet
facet normal 0.0 -1.0 0.0
  outer loop
    vertex 1641.1773321724859 -64.92683622429149 -2.3988432343045445
    vertex 1643.1773321724859 -64.92683622429149 50.60115676569546
    vertex 1641.1773321724859 -64.92683622429149 50.60115676569546
  endloop
endfacet
facet normal 0.0 -1.0 0.0
  outer loop
    vertex 1569.2614230815764 -64.92683622429149 -4.398843234304544
    vertex 1571.2614230815766 -64.92683622429149 -2.3988432343045445
    vertex 1569.2614230815764 -64.92683622429149 50.60115676569546
  endloop
endfacet
facet normal 0.0 -1.0 0.0
  outer loop
    vertex 1571.2614230815766 -64.92683622429149 -2.3988432343045445
    vertex 1569.2614230815764 -64.92683622429149 -4.398843234304544
    vertex 1641.1773321724859 -64.92683622429149 -2.3988432343045445
  endloop
endfacet
facet normal 0.0 -1.0 0.0
  outer loop
    vertex 1569.2614230815764 -64.92683622429149 50.60115676569546
    vertex 1571.2614230815766 -64.92683622429149 -2.3988432343045445
    vertex 1571.2614230815766 -64.92683622429149 50.60115676569546
  endloop
endfacet
facet normal 0.0 1.0 0.0
  outer loop
    vertex 1453.5462899020426 532.6100231828885 37.385004362777195
    vertex 1455.5462899020429 532.6100231828885 39.385004362777195
    vertex 1758.8924653520198 532.6100231828885 37.385004362777195
  endloop
endfacet
facet normal 0.0 1.0 0.0
  outer loop
    vertex 1455.5462899020429 532.6100231828885 39.385004362777195
    vertex 1453.5462899020426 532.6100231828885 37.385004362777195
    vertex 1453.5462899020426 532.6100231828885 65.29877437839369
  endloop
endfacet
facet normal 0.0 1.0 0.0
  outer loop
    vertex 1455.5462899020429 532.6100231828885 39.385004362777195
    vertex 1453.5462899020426 532.6100231828885 65.29877437839369
    vertex 1455.5462899020429 532.6100231828885 65.29877437839369
  endloop
endfacet
facet normal 0.0 1.0 0.0
  outer loop
    vertex 1758.8924653520198 532.6100231828885 37.385004362777195
    vertex 1756.89246535202 532.6100231828885 39.385004362777195
    vertex 1758.8924653520198 532.6100231828885 65.29877437839369
  endloop
endfacet
facet normal 0.0 1.0 0.0
  outer loop
    vertex 1756.89246535202 532.6100231828885 39.385004362777195
    vertex 1758.8924653520198 532.6100231828885 37.385004362777195
    vertex 1455.5462899020429 532.6100231828885 39.385004362777195
  endloop
endfacet
facet normal 0.0 1.0 0.0
  outer loop
    vertex 1758.8924653520198 532.6100231828885 65.29877437839369
    vertex 1756.89246535202 532.6100231828885 39.385004362777195
    vertex 1756.89246535202 532.6100231828885 65.29877437839369
  endloop
endfacet
facet normal 0.0 -0.02458956845123512 0.9996976308481391
  outer loop
    vertex 1643.1773321724859 -64.92683622429149 50.60115676569546
    vertex 1756.89246535202 532.6100231828885 65.29877437839369
    vertex 1641.1773321724859 -64.92683622429149 50.60115676569546
  endloop
endfacet
facet normal 0.0 -0.02458956845123512 0.9996976308481391
  outer loop
    vertex 1756.89246535202 532.6100231828885 65.29877437839369
    vertex 1643.1773321724859 -64.92683622429149 50.60115676569546
    vertex 1758.8924653520198 532.6100231828885 65.29877437839369
  endloop
endfacet
facet normal -0.9817605845072516 0.19012142096034315 0.0
  outer loop
    vertex 1756.89246535202 532.6100231828885 65.29877437839369
    vertex 1641.1773321724859 -64.92683622429149 -2.3988432343045445
    vertex 1641.1773321724859 -64.92683622429149 50.60115676569546
  endloop
endfacet
facet normal -0.9817605845072516 0.19012142096034315 0.0
  outer loop
    vertex 1641.1773321724859 -64.92683622429149 -2.3988432343045445
    vertex 1756.89246535202 532.6100231828885 65.29877437839369
    vertex 1756.89246535202 532.6100231828885 39.385004362777195
  endloop
endfacet
facet normal 0.0 -0.024589568451222094 0.9996976308481393
  outer loop
    vertex 1569.2614230815764 -64.92683622429149 50.60115676569546
    vertex 1455.5462899020429 532.6100231828885 65.29877437839369
    vertex 1453.5462899020426 532.6100231828885 65.29877437839369
  endloop
endfacet
facet normal 0.0 -0.024589568451222094 0.9996976308481393
  outer loop
    vertex 1455.5462899020429 532.6100231828885 65.29877437839369
    vertex 1569.2614230815764 -64.92683622429149 50.60115676569546
    vertex 1571.2614230815766 -64.92683622429149 50.60115676569546
  endloop
endfacet
facet normal 1.3921534538269393e-18 -0.06975647374412536 0.9975640502598243
  outer loop
    vertex 1571.2614230815766 -64.92683622429149 -2.3988432343045445
    vertex 1756.89246535202 532.6100231828885 39.385004362777195
    vertex 1455.5462899020429 532.6100231828885 39.385004362777195
  endloop
endfacet
facet normal 1.3921534538269393e-18 -0.06975647374412536 0.9975640502598243
  outer loop
    vertex 1756.89246535202 532.6100231828885 39.385004362777195
    vertex 1571.2614230815766 -64.92683622429149 -2.3988432343045445
    vertex 1641.1773321724859 -64.92683622429149 -2.3988432343045445
  endloop
endfacet
facet normal 0.9817605845072516 0.19012142096034254 0.0
  outer loop
    vertex 1455.5462899020429 532.6100231828885 39.385004362777195
    vertex 1571.2614230815766 -64.92683622429149 50.60115676569546
    vertex 1571.2614230815766 -64.92683622429149 -2.3988432343045445
  endloop
endfacet
facet normal 0.9817605845072516 0.19012142096034254 0.0
  outer loop
    vertex 1571.2614230815766 -64.92683622429149 50.60115676569546
    vertex 1455.5462899020429 532.6100231828885 39.385004362777195
    vertex 1455.5462899020429 532.6100231828885 65.29877437839369
  endloop
endfacet
endsolid ramp
