solid Untitled-56bd483d
facet normal 0.0 0.0 -1.0
  outer loop
    vertex 4170.308696417023 3029.726282902521 0.0
    vertex 632.3086964170242 1040.7262829025208 0.0
    vertex 632.3086964170242 3029.726282902521 0.0
  endloop
endfacet
facet normal 0.0 0.0 -1.0
  outer loop
    vertex 632.3086964170242 1040.7262829025208 0.0
    vertex 4170.308696417023 3029.726282902521 0.0
    vertex 4170.308696417023 1040.7262829025208 0.0
  endloop
endfacet
facet normal 0.0 0.0 1.0
  outer loop
    vertex 4170.308696417023 1040.7262829025208 1500.0
    vertex 632.3086964170242 3029.726282902521 1500.0
    vertex 632.3086964170242 1040.7262829025208 1500.0
  endloop
endfacet
facet normal 0.0 0.0 1.0
  outer loop
    vertex 632.3086964170242 3029.726282902521 1500.0
    vertex 4170.308696417023 1040.7262829025208 1500.0
    vertex 4170.308696417023 3029.726282902521 1500.0
  endloop
endfacet
facet normal -0.0 1.0 0.0
  outer loop
    vertex 632.3086964170242 3029.726282902521 1500.0
    vertex 4170.308696417023 3029.726282902521 0.0
    vertex 632.3086964170242 3029.726282902521 0.0
  endloop
endfacet
facet normal -0.0 1.0 0.0
  outer loop
    vertex 4170.308696417023 3029.726282902521 0.0
    vertex 632.3086964170242 3029.726282902521 1500.0
    vertex 4170.308696417023 3029.726282902521 1500.0
  endloop
endfacet
facet normal 1.0 0.0 0.0
  outer loop
    vertex 4170.308696417023 3029.726282902521 0.0
    vertex 4170.308696417023 1040.7262829025208 1500.0
    vertex 4170.308696417023 1040.7262829025208 0.0
  endloop
endfacet
facet normal 1.0 0.0 0.0
  outer loop
    vertex 4170.308696417023 1040.7262829025208 1500.0
    vertex 4170.308696417023 3029.726282902521 0.0
    vertex 4170.308696417023 3029.726282902521 1500.0
  endloop
endfacet
facet normal -0.0 -1.0 -0.0
  outer loop
    vertex 4170.308696417023 1040.7262829025208 1500.0
    vertex 632.3086964170242 1040.7262829025208 0.0
    vertex 4170.308696417023 1040.7262829025208 0.0
  endloop
endfacet
facet normal -0.0 -1.0 -0.0
  outer loop
    vertex 632.3086964170242 1040.7262829025208 0.0
    vertex 4170.308696417023 1040.7262829025208 1500.0
    vertex 632.3086964170242 1040.7262829025208 1500.0
  endloop
endfacet
facet normal -1.0 0.0 0.0
  outer loop
    vertex 632.3086964170242 3029.726282902521 1500.0
    vertex 632.3086964170242 1040.7262829025208 0.0
    vertex 632.3086964170242 1040.7262829025208 1500.0
  endloop
endfacet
facet normal -1.0 0.0 0.0
  outer loop
    vertex 632.3086964170242 1040.7262829025208 0.0
    vertex 632.3086964170242 3029.726282902521 1500.0
    vertex 632.3086964170242 3029.726282902521 0.0
  endloop
endfacet
endsolid Untitled-56bd483d
