solid Untitled-5345a07d
facet normal 0.0 0.0 -1.0
  outer loop
    vertex -23.182219830937637 6.211657082460503 0.0
    vertex -23.18221983093764 -6.211657082460495 0.0
    vertex -24.0 1.4695761589768238e-15 0.0
  endloop
endfacet
facet normal 0.0 0.0 -1.0
  outer loop
    vertex -23.18221983093764 -6.211657082460495 0.0
    vertex -23.182219830937637 6.211657082460503 0.0
    vertex -20.784609690826528 -11.999999999999993 0.0
  endloop
endfacet
facet normal 0.0 0.0 -1.0
  outer loop
    vertex -20.784609690826528 -11.999999999999993 0.0
    vertex -23.182219830937637 6.211657082460503 0.0
    vertex -20.784609690826525 12.000000000000002 0.0
  endloop
endfacet
facet normal 0.0 0.0 -1.0
  outer loop
    vertex -20.784609690826528 -11.999999999999993 0.0
    vertex -20.784609690826525 12.000000000000002 0.0
    vertex -16.97056274847714 -16.97056274847714 0.0
  endloop
endfacet
facet normal 0.0 0.0 -1.0
  outer loop
    vertex -16.97056274847714 -16.97056274847714 0.0
    vertex -20.784609690826525 12.000000000000002 0.0
    vertex -16.97056274847714 16.97056274847714 0.0
  endloop
endfacet
facet normal 0.0 0.0 -1.0
  outer loop
    vertex -16.97056274847714 -16.97056274847714 0.0
    vertex -16.97056274847714 16.97056274847714 0.0
    vertex -12.000000000000007 -20.784609690826525 0.0
  endloop
endfacet
facet normal 0.0 0.0 -1.0
  outer loop
    vertex -12.000000000000007 -20.784609690826525 0.0
    vertex -16.97056274847714 16.97056274847714 0.0
    vertex -11.999999999999998 20.784609690826528 0.0
  endloop
endfacet
facet normal 0.0 0.0 -1.0
  outer loop
    vertex -12.000000000000007 -20.784609690826525 0.0
    vertex -11.999999999999998 20.784609690826528 0.0
    vertex -6.211657082460504 -23.182219830937637 0.0
  endloop
endfacet
facet normal 0.0 0.0 -1.0
  outer loop
    vertex -6.211657082460504 -23.182219830937637 0.0
    vertex -11.999999999999998 20.784609690826528 0.0
    vertex -6.211657082460497 23.18221983093764 0.0
  endloop
endfacet
facet normal 0.0 0.0 -1.0
  outer loop
    vertex -6.211657082460504 -23.182219830937637 0.0
    vertex -6.211657082460497 23.18221983093764 0.0
    vertex -2.9391523179536475e-15 -24.0 0.0
  endloop
endfacet
facet normal 0.0 0.0 -1.0
  outer loop
    vertex -2.9391523179536475e-15 -24.0 0.0
    vertex -6.211657082460497 23.18221983093764 0.0
    vertex 0.0 24.0 0.0
  endloop
endfacet
facet normal 0.0 0.0 -1.0
  outer loop
    vertex -2.9391523179536475e-15 -24.0 0.0
    vertex 0.0 24.0 0.0
    vertex 6.211657082460488 -23.18221983093764 0.0
  endloop
endfacet
facet normal 0.0 0.0 -1.0
  outer loop
    vertex 6.211657082460488 -23.18221983093764 0.0
    vertex 0.0 24.0 0.0
    vertex 6.211657082460517 23.182219830937633 0.0
  endloop
endfacet
facet normal 0.0 0.0 -1.0
  outer loop
    vertex 6.211657082460488 -23.18221983093764 0.0
    vertex 6.211657082460517 23.182219830937633 0.0
    vertex 11.999999999999993 -20.784609690826528 0.0
  endloop
endfacet
facet normal 0.0 0.0 -1.0
  outer loop
    vertex 11.999999999999993 -20.784609690826528 0.0
    vertex 6.211657082460517 23.182219830937633 0.0
    vertex 12.00000000000001 20.78460969082652 0.0
  endloop
endfacet
facet normal 0.0 0.0 -1.0
  outer loop
    vertex 11.999999999999993 -20.784609690826528 0.0
    vertex 12.00000000000001 20.78460969082652 0.0
    vertex 16.97056274847713 -16.97056274847715 0.0
  endloop
endfacet
facet normal 0.0 0.0 -1.0
  outer loop
    vertex 16.97056274847713 -16.97056274847715 0.0
    vertex 12.00000000000001 20.78460969082652 0.0
    vertex 16.970562748477143 16.970562748477136 0.0
  endloop
endfacet
facet normal 0.0 0.0 -1.0
  outer loop
    vertex 16.97056274847713 -16.97056274847715 0.0
    vertex 16.970562748477143 16.970562748477136 0.0
    vertex 20.78460969082652 -12.00000000000001 0.0
  endloop
endfacet
facet normal 0.0 0.0 -1.0
  outer loop
    vertex 20.78460969082652 -12.00000000000001 0.0
    vertex 16.970562748477143 16.970562748477136 0.0
    vertex 20.784609690826535 11.999999999999984 0.0
  endloop
endfacet
facet normal 0.0 0.0 -1.0
  outer loop
    vertex 20.78460969082652 -12.00000000000001 0.0
    vertex 20.784609690826535 11.999999999999984 0.0
    vertex 23.182219830937633 -6.211657082460516 0.0
  endloop
endfacet
facet normal 0.0 0.0 -1.0
  outer loop
    vertex 23.182219830937633 -6.211657082460516 0.0
    vertex 20.784609690826535 11.999999999999984 0.0
    vertex 23.18221983093764 6.211657082460486 0.0
  endloop
endfacet
facet normal 0.0 0.0 -1.0
  outer loop
    vertex 23.182219830937633 -6.211657082460516 0.0
    vertex 23.18221983093764 6.211657082460486 0.0
    vertex 24.0 -4.408728476930471e-15 0.0
  endloop
endfacet
facet normal 0.0 0.0 1.0
  outer loop
    vertex -23.18221983093764 -6.211657082460495 53.99999999999999
    vertex -23.182219830937637 6.211657082460503 53.99999999999999
    vertex -24.0 1.4695761589768238e-15 53.99999999999999
  endloop
endfacet
facet normal 0.0 0.0 1.0
  outer loop
    vertex -23.182219830937637 6.211657082460503 53.99999999999999
    vertex -23.18221983093764 -6.211657082460495 53.99999999999999
    vertex -20.784609690826528 -11.999999999999993 53.99999999999999
  endloop
endfacet
facet normal 0.0 0.0 1.0
  outer loop
    vertex -23.182219830937637 6.211657082460503 53.99999999999999
    vertex -20.784609690826528 -11.999999999999993 53.99999999999999
    vertex -20.784609690826525 12.000000000000002 53.99999999999999
  endloop
endfacet
facet normal 0.0 0.0 1.0
  outer loop
    vertex -20.784609690826525 12.000000000000002 53.99999999999999
    vertex -20.784609690826528 -11.999999999999993 53.99999999999999
    vertex -16.97056274847714 -16.97056274847714 53.99999999999999
  endloop
endfacet
facet normal 0.0 0.0 1.0
  outer loop
    vertex -20.784609690826525 12.000000000000002 53.99999999999999
    vertex -16.97056274847714 -16.97056274847714 53.99999999999999
    vertex -17.95846916703614 -1.6428567663563138 53.99999999999999
  endloop
endfacet
facet normal 0.0 0.0 1.0
  outer loop
    vertex -17.95846916703614 -1.6428567663563138 53.99999999999999
    vertex -16.97056274847714 -16.97056274847714 53.99999999999999
    vertex -16.877290271965173 -6.215724221415217 53.99999999999999
  endloop
endfacet
facet normal 0.0 0.0 1.0
  outer loop
    vertex -16.877290271965173 -6.215724221415217 53.99999999999999
    vertex -16.97056274847714 -16.97056274847714 53.99999999999999
    vertex -12.000000000000007 -20.784609690826525 53.99999999999999
  endloop
endfacet
facet normal 0.0 0.0 1.0
  outer loop
    vertex -16.877290271965173 -6.215724221415217 53.99999999999999
    vertex -12.000000000000007 -20.784609690826525 53.99999999999999
    vertex -14.649406466278705 -10.352945307246106 53.99999999999999
  endloop
endfacet
facet normal 0.0 0.0 1.0
  outer loop
    vertex -14.649406466278705 -10.352945307246106 53.99999999999999
    vertex -12.000000000000007 -20.784609690826525 53.99999999999999
    vertex -11.426644349582206 -13.772575243930723 53.99999999999999
  endloop
endfacet
facet normal 0.0 0.0 1.0
  outer loop
    vertex -11.426644349582206 -13.772575243930723 53.99999999999999
    vertex -12.000000000000007 -20.784609690826525 53.99999999999999
    vertex -6.211657082460504 -23.182219830937637 53.99999999999999
  endloop
endfacet
facet normal 0.0 0.0 1.0
  outer loop
    vertex -11.426644349582206 -13.772575243930723 53.99999999999999
    vertex -6.211657082460504 -23.182219830937637 53.99999999999999
    vertex -7.428629834262325 -16.241571902489678 53.99999999999999
  endloop
endfacet
facet normal 0.0 0.0 1.0
  outer loop
    vertex -7.428629834262325 -16.241571902489678 53.99999999999999
    vertex -6.211657082460504 -23.182219830937637 53.99999999999999
    vertex -2.9278210025067417 -17.591677240852075 53.99999999999999
  endloop
endfacet
facet normal 0.0 0.0 1.0
  outer loop
    vertex -2.9278210025067417 -17.591677240852075 53.99999999999999
    vertex -6.211657082460504 -23.182219830937637 53.99999999999999
    vertex -2.9391523179536475e-15 -24.0 53.99999999999999
  endloop
endfacet
facet normal 0.0 0.0 1.0
  outer loop
    vertex -2.9278210025067417 -17.591677240852075 53.99999999999999
    vertex -2.9391523179536475e-15 -24.0 53.99999999999999
    vertex 1.76905946173868 -17.73088381136309 53.99999999999999
  endloop
endfacet
facet normal 0.0 0.0 1.0
  outer loop
    vertex 1.76905946173868 -17.73088381136309 53.99999999999999
    vertex -2.9391523179536475e-15 -24.0 53.99999999999999
    vertex 6.211657082460488 -23.18221983093764 53.99999999999999
  endloop
endfacet
facet normal 0.0 0.0 1.0
  outer loop
    vertex 1.76905946173868 -17.73088381136309 53.99999999999999
    vertex 6.211657082460488 -23.18221983093764 53.99999999999999
    vertex 6.341926916797582 -16.64970491629212 53.99999999999999
  endloop
endfacet
facet normal 0.0 0.0 1.0
  outer loop
    vertex 6.341926916797582 -16.64970491629212 53.99999999999999
    vertex 6.211657082460488 -23.18221983093764 53.99999999999999
    vertex 11.999999999999993 -20.784609690826528 53.99999999999999
  endloop
endfacet
facet normal 0.0 0.0 1.0
  outer loop
    vertex 6.341926916797582 -16.64970491629212 53.99999999999999
    vertex 11.999999999999993 -20.784609690826528 53.99999999999999
    vertex 10.479148002628468 -14.421821110605656 53.99999999999999
  endloop
endfacet
facet normal 0.0 0.0 1.0
  outer loop
    vertex 10.479148002628468 -14.421821110605656 53.99999999999999
    vertex 11.999999999999993 -20.784609690826528 53.99999999999999
    vertex 13.89877793931309 -11.199058993909153 53.99999999999999
  endloop
endfacet
facet normal 0.0 0.0 1.0
  outer loop
    vertex 13.89877793931309 -11.199058993909153 53.99999999999999
    vertex 11.999999999999993 -20.784609690826528 53.99999999999999
    vertex 16.97056274847713 -16.97056274847715 53.99999999999999
  endloop
endfacet
facet normal 0.0 0.0 1.0
  outer loop
    vertex 13.89877793931309 -11.199058993909153 53.99999999999999
    vertex 16.97056274847713 -16.97056274847715 53.99999999999999
    vertex 16.367774597872046 -7.201044478589274 53.99999999999999
  endloop
endfacet
facet normal 0.0 0.0 1.0
  outer loop
    vertex 16.367774597872046 -7.201044478589274 53.99999999999999
    vertex 16.97056274847713 -16.97056274847715 53.99999999999999
    vertex 17.717879936234443 -2.70023564683369 53.99999999999999
  endloop
endfacet
facet normal 0.0 0.0 1.0
  outer loop
    vertex 17.717879936234443 -2.70023564683369 53.99999999999999
    vertex 16.97056274847713 -16.97056274847715 53.99999999999999
    vertex 20.78460969082652 -12.00000000000001 53.99999999999999
  endloop
endfacet
facet normal 0.0 0.0 1.0
  outer loop
    vertex 17.717879936234443 -2.70023564683369 53.99999999999999
    vertex 20.78460969082652 -12.00000000000001 53.99999999999999
    vertex 17.857086506745457 1.9966448174117322 53.99999999999999
  endloop
endfacet
facet normal 0.0 0.0 1.0
  outer loop
    vertex -20.784609690826525 12.000000000000002 53.99999999999999
    vertex -17.81926259652513 3.0540236978891038 53.99999999999999
    vertex -16.97056274847714 16.97056274847714 53.99999999999999
  endloop
endfacet
facet normal 0.0 0.0 1.0
  outer loop
    vertex -17.81926259652513 3.0540236978891038 53.99999999999999
    vertex -20.784609690826525 12.000000000000002 53.99999999999999
    vertex -17.95846916703614 -1.6428567663563138 53.99999999999999
  endloop
endfacet
facet normal 0.0 0.0 1.0
  outer loop
    vertex -16.97056274847714 16.97056274847714 53.99999999999999
    vertex -17.81926259652513 3.0540236978891038 53.99999999999999
    vertex -16.46915725816273 7.55483252964469 53.99999999999999
  endloop
endfacet
facet normal 0.0 0.0 1.0
  outer loop
    vertex -16.97056274847714 16.97056274847714 53.99999999999999
    vertex -16.46915725816273 7.55483252964469 53.99999999999999
    vertex -11.999999999999998 20.784609690826528 53.99999999999999
  endloop
endfacet
facet normal 0.0 0.0 1.0
  outer loop
    vertex -11.999999999999998 20.784609690826528 53.99999999999999
    vertex -16.46915725816273 7.55483252964469 53.99999999999999
    vertex -14.00016059960378 11.552847044964569 53.99999999999999
  endloop
endfacet
facet normal 0.0 0.0 1.0
  outer loop
    vertex -11.999999999999998 20.784609690826528 53.99999999999999
    vertex -14.00016059960378 11.552847044964569 53.99999999999999
    vertex -10.580530662919163 14.775609161661068 53.99999999999999
  endloop
endfacet
facet normal 0.0 0.0 1.0
  outer loop
    vertex -11.999999999999998 20.784609690826528 53.99999999999999
    vertex -10.580530662919163 14.775609161661068 53.99999999999999
    vertex -6.211657082460497 23.18221983093764 53.99999999999999
  endloop
endfacet
facet normal 0.0 0.0 1.0
  outer loop
    vertex -6.211657082460497 23.18221983093764 53.99999999999999
    vertex -10.580530662919163 14.775609161661068 53.99999999999999
    vertex -6.443309577088278 17.003492967347537 53.99999999999999
  endloop
endfacet
facet normal 0.0 0.0 1.0
  outer loop
    vertex -6.211657082460497 23.18221983093764 53.99999999999999
    vertex -6.443309577088278 17.003492967347537 53.99999999999999
    vertex -1.8704421220293683 18.084671862418507 53.99999999999999
  endloop
endfacet
facet normal 0.0 0.0 1.0
  outer loop
    vertex -6.211657082460497 23.18221983093764 53.99999999999999
    vertex -1.8704421220293683 18.084671862418507 53.99999999999999
    vertex 0.0 24.0 53.99999999999999
  endloop
endfacet
facet normal 0.0 0.0 1.0
  outer loop
    vertex 0.0 24.0 53.99999999999999
    vertex -1.8704421220293683 18.084671862418507 53.99999999999999
    vertex 2.8264383422160493 17.945465291907496 53.99999999999999
  endloop
endfacet
facet normal 0.0 0.0 1.0
  outer loop
    vertex 0.0 24.0 53.99999999999999
    vertex 2.8264383422160493 17.945465291907496 53.99999999999999
    vertex 6.211657082460517 23.182219830937633 53.99999999999999
  endloop
endfacet
facet normal 0.0 0.0 1.0
  outer loop
    vertex 6.211657082460517 23.182219830937633 53.99999999999999
    vertex 2.8264383422160493 17.945465291907496 53.99999999999999
    vertex 7.32724717397163 16.595359953545103 53.99999999999999
  endloop
endfacet
facet normal 0.0 0.0 1.0
  outer loop
    vertex 6.211657082460517 23.182219830937633 53.99999999999999
    vertex 7.32724717397163 16.595359953545103 53.99999999999999
    vertex 12.00000000000001 20.78460969082652 53.99999999999999
  endloop
endfacet
facet normal 0.0 0.0 1.0
  outer loop
    vertex 12.00000000000001 20.78460969082652 53.99999999999999
    vertex 7.32724717397163 16.595359953545103 53.99999999999999
    vertex 11.325261689291517 14.126363294986142 53.99999999999999
  endloop
endfacet
facet normal 0.0 0.0 1.0
  outer loop
    vertex 12.00000000000001 20.78460969082652 53.99999999999999
    vertex 11.325261689291517 14.126363294986142 53.99999999999999
    vertex 14.548023805988015 10.706733358301529 53.99999999999999
  endloop
endfacet
facet normal 0.0 0.0 1.0
  outer loop
    vertex 12.00000000000001 20.78460969082652 53.99999999999999
    vertex 14.548023805988015 10.706733358301529 53.99999999999999
    vertex 16.970562748477143 16.970562748477136 53.99999999999999
  endloop
endfacet
facet normal 0.0 0.0 1.0
  outer loop
    vertex 16.970562748477143 16.970562748477136 53.99999999999999
    vertex 14.548023805988015 10.706733358301529 53.99999999999999
    vertex 16.775907611674484 6.5695122724706465 53.99999999999999
  endloop
endfacet
facet normal 0.0 0.0 1.0
  outer loop
    vertex 16.970562748477143 16.970562748477136 53.99999999999999
    vertex 16.775907611674484 6.5695122724706465 53.99999999999999
    vertex 17.857086506745457 1.9966448174117322 53.99999999999999
  endloop
endfacet
facet normal 0.0 0.0 1.0
  outer loop
    vertex 16.970562748477143 16.970562748477136 53.99999999999999
    vertex 17.857086506745457 1.9966448174117322 53.99999999999999
    vertex 20.784609690826535 11.999999999999984 53.99999999999999
  endloop
endfacet
facet normal 0.0 0.0 1.0
  outer loop
    vertex 20.784609690826535 11.999999999999984 53.99999999999999
    vertex 17.857086506745457 1.9966448174117322 53.99999999999999
    vertex 20.78460969082652 -12.00000000000001 53.99999999999999
  endloop
endfacet
facet normal 0.0 0.0 1.0
  outer loop
    vertex 20.784609690826535 11.999999999999984 53.99999999999999
    vertex 20.78460969082652 -12.00000000000001 53.99999999999999
    vertex 23.182219830937633 -6.211657082460516 53.99999999999999
  endloop
endfacet
facet normal 0.0 0.0 1.0
  outer loop
    vertex 20.784609690826535 11.999999999999984 53.99999999999999
    vertex 23.182219830937633 -6.211657082460516 53.99999999999999
    vertex 23.18221983093764 6.211657082460486 53.99999999999999
  endloop
endfacet
facet normal 0.0 0.0 1.0
  outer loop
    vertex 23.18221983093764 6.211657082460486 53.99999999999999
    vertex 23.182219830937633 -6.211657082460516 53.99999999999999
    vertex 24.0 -4.408728476930471e-15 53.99999999999999
  endloop
endfacet
facet normal -3.3862217603458237e-16 -1.0 0.0
  outer loop
    vertex -2.9391523179536475e-15 -24.0 53.99999999999999
    vertex -6.211657082460504 -23.182219830937637 0.0
    vertex -2.9391523179536475e-15 -24.0 0.0
  endloop
endfacet
facet normal -0.25881904510252085 -0.9659258262890682 0.0
  outer loop
    vertex -6.211657082460504 -23.182219830937637 0.0
    vertex -2.9391523179536475e-15 -24.0 53.99999999999999
    vertex -6.211657082460504 -23.182219830937637 53.99999999999999
  endloop
endfacet
facet normal -0.25881904510252085 -0.9659258262890682 0.0
  outer loop
    vertex -6.211657082460504 -23.182219830937637 53.99999999999999
    vertex -12.000000000000007 -20.784609690826525 0.0
    vertex -6.211657082460504 -23.182219830937637 0.0
  endloop
endfacet
facet normal -0.5000000000000003 -0.8660254037844386 0.0
  outer loop
    vertex -12.000000000000007 -20.784609690826525 0.0
    vertex -6.211657082460504 -23.182219830937637 53.99999999999999
    vertex -12.000000000000007 -20.784609690826525 53.99999999999999
  endloop
endfacet
facet normal -0.5000000000000003 -0.8660254037844386 0.0
  outer loop
    vertex -12.000000000000007 -20.784609690826525 53.99999999999999
    vertex -16.97056274847714 -16.97056274847714 0.0
    vertex -12.000000000000007 -20.784609690826525 0.0
  endloop
endfacet
facet normal -0.7071067811865478 -0.7071067811865472 0.0
  outer loop
    vertex -16.97056274847714 -16.97056274847714 0.0
    vertex -12.000000000000007 -20.784609690826525 53.99999999999999
    vertex -16.97056274847714 -16.97056274847714 53.99999999999999
  endloop
endfacet
facet normal -0.8660254037844387 -0.4999999999999999 0.0
  outer loop
    vertex -20.784609690826528 -11.999999999999993 53.99999999999999
    vertex -16.97056274847714 -16.97056274847714 0.0
    vertex -16.97056274847714 -16.97056274847714 53.99999999999999
  endloop
endfacet
facet normal -0.7071067811865478 -0.7071067811865472 0.0
  outer loop
    vertex -16.97056274847714 -16.97056274847714 0.0
    vertex -20.784609690826528 -11.999999999999993 53.99999999999999
    vertex -20.784609690826528 -11.999999999999993 0.0
  endloop
endfacet
facet normal -0.9659258262890682 -0.25881904510252063 0.0
  outer loop
    vertex -23.18221983093764 -6.211657082460495 53.99999999999999
    vertex -20.784609690826528 -11.999999999999993 0.0
    vertex -20.784609690826528 -11.999999999999993 53.99999999999999
  endloop
endfacet
facet normal -0.8660254037844387 -0.4999999999999999 0.0
  outer loop
    vertex -20.784609690826528 -11.999999999999993 0.0
    vertex -23.18221983093764 -6.211657082460495 53.99999999999999
    vertex -23.18221983093764 -6.211657082460495 0.0
  endloop
endfacet
facet normal -1.0 1.6931108801729119e-16 0.0
  outer loop
    vertex -24.0 1.4695761589768238e-15 53.99999999999999
    vertex -23.18221983093764 -6.211657082460495 0.0
    vertex -23.18221983093764 -6.211657082460495 53.99999999999999
  endloop
endfacet
facet normal -0.9659258262890682 -0.25881904510252063 0.0
  outer loop
    vertex -23.18221983093764 -6.211657082460495 0.0
    vertex -24.0 1.4695761589768238e-15 53.99999999999999
    vertex -24.0 1.4695761589768238e-15 0.0
  endloop
endfacet
facet normal -0.9659258262890682 0.2588190451025208 0.0
  outer loop
    vertex -23.182219830937637 6.211657082460503 53.99999999999999
    vertex -24.0 1.4695761589768238e-15 0.0
    vertex -24.0 1.4695761589768238e-15 53.99999999999999
  endloop
endfacet
facet normal -1.0 1.6931108801729119e-16 0.0
  outer loop
    vertex -24.0 1.4695761589768238e-15 0.0
    vertex -23.182219830937637 6.211657082460503 53.99999999999999
    vertex -23.182219830937637 6.211657082460503 0.0
  endloop
endfacet
facet normal -0.8660254037844386 0.5000000000000001 0.0
  outer loop
    vertex -20.784609690826525 12.000000000000002 53.99999999999999
    vertex -23.182219830937637 6.211657082460503 0.0
    vertex -23.182219830937637 6.211657082460503 53.99999999999999
  endloop
endfacet
facet normal -0.9659258262890682 0.2588190451025208 0.0
  outer loop
    vertex -23.182219830937637 6.211657082460503 0.0
    vertex -20.784609690826525 12.000000000000002 53.99999999999999
    vertex -20.784609690826525 12.000000000000002 0.0
  endloop
endfacet
facet normal -0.7071067811865476 0.7071067811865476 0.0
  outer loop
    vertex -16.97056274847714 16.97056274847714 53.99999999999999
    vertex -20.784609690826525 12.000000000000002 0.0
    vertex -20.784609690826525 12.000000000000002 53.99999999999999
  endloop
endfacet
facet normal -0.8660254037844386 0.5000000000000001 0.0
  outer loop
    vertex -20.784609690826525 12.000000000000002 0.0
    vertex -16.97056274847714 16.97056274847714 53.99999999999999
    vertex -16.97056274847714 16.97056274847714 0.0
  endloop
endfacet
facet normal -0.7071067811865476 0.7071067811865476 0.0
  outer loop
    vertex -16.97056274847714 16.97056274847714 53.99999999999999
    vertex -11.999999999999998 20.784609690826528 0.0
    vertex -16.97056274847714 16.97056274847714 0.0
  endloop
endfacet
facet normal -0.5 0.8660254037844386 0.0
  outer loop
    vertex -11.999999999999998 20.784609690826528 0.0
    vertex -16.97056274847714 16.97056274847714 53.99999999999999
    vertex -11.999999999999998 20.784609690826528 53.99999999999999
  endloop
endfacet
facet normal -0.5 0.8660254037844386 0.0
  outer loop
    vertex -11.999999999999998 20.784609690826528 53.99999999999999
    vertex -6.211657082460497 23.18221983093764 0.0
    vertex -11.999999999999998 20.784609690826528 0.0
  endloop
endfacet
facet normal -0.2588190451025206 0.9659258262890684 0.0
  outer loop
    vertex -6.211657082460497 23.18221983093764 0.0
    vertex -11.999999999999998 20.784609690826528 53.99999999999999
    vertex -6.211657082460497 23.18221983093764 53.99999999999999
  endloop
endfacet
facet normal -0.2588190451025206 0.9659258262890684 0.0
  outer loop
    vertex -6.211657082460497 23.18221983093764 53.99999999999999
    vertex 0.0 24.0 0.0
    vertex -6.211657082460497 23.18221983093764 0.0
  endloop
endfacet
facet normal 2.4059996718246644e-16 1.0 0.0
  outer loop
    vertex 0.0 24.0 0.0
    vertex -6.211657082460497 23.18221983093764 53.99999999999999
    vertex 0.0 24.0 53.99999999999999
  endloop
endfacet
facet normal 2.4059996718246644e-16 1.0 0.0
  outer loop
    vertex 0.0 24.0 53.99999999999999
    vertex 6.211657082460517 23.182219830937633 0.0
    vertex 0.0 24.0 0.0
  endloop
endfacet
facet normal 0.2588190451025212 0.9659258262890682 0.0
  outer loop
    vertex 6.211657082460517 23.182219830937633 0.0
    vertex 0.0 24.0 53.99999999999999
    vertex 6.211657082460517 23.182219830937633 53.99999999999999
  endloop
endfacet
facet normal 0.2588190451025212 0.9659258262890682 0.0
  outer loop
    vertex 6.211657082460517 23.182219830937633 53.99999999999999
    vertex 12.00000000000001 20.78460969082652 0.0
    vertex 6.211657082460517 23.182219830937633 0.0
  endloop
endfacet
facet normal 0.5000000000000006 0.8660254037844383 0.0
  outer loop
    vertex 12.00000000000001 20.78460969082652 0.0
    vertex 6.211657082460517 23.182219830937633 53.99999999999999
    vertex 12.00000000000001 20.78460969082652 53.99999999999999
  endloop
endfacet
facet normal 0.5000000000000006 0.8660254037844383 0.0
  outer loop
    vertex 12.00000000000001 20.78460969082652 53.99999999999999
    vertex 16.970562748477143 16.970562748477136 0.0
    vertex 12.00000000000001 20.78460969082652 0.0
  endloop
endfacet
facet normal 0.707106781186548 0.7071067811865471 0.0
  outer loop
    vertex 16.970562748477143 16.970562748477136 0.0
    vertex 12.00000000000001 20.78460969082652 53.99999999999999
    vertex 16.970562748477143 16.970562748477136 53.99999999999999
  endloop
endfacet
facet normal 0.707106781186548 0.7071067811865471 0.0
  outer loop
    vertex 16.970562748477143 16.970562748477136 0.0
    vertex 20.784609690826535 11.999999999999984 53.99999999999999
    vertex 20.784609690826535 11.999999999999984 0.0
  endloop
endfacet
facet normal 0.8660254037844389 0.4999999999999997 0.0
  outer loop
    vertex 20.784609690826535 11.999999999999984 53.99999999999999
    vertex 16.970562748477143 16.970562748477136 0.0
    vertex 16.970562748477143 16.970562748477136 53.99999999999999
  endloop
endfacet
facet normal 0.8660254037844389 0.4999999999999997 0.0
  outer loop
    vertex 20.784609690826535 11.999999999999984 0.0
    vertex 23.18221983093764 6.211657082460486 53.99999999999999
    vertex 23.18221983093764 6.211657082460486 0.0
  endloop
endfacet
facet normal 0.9659258262890684 0.25881904510252035 0.0
  outer loop
    vertex 23.18221983093764 6.211657082460486 53.99999999999999
    vertex 20.784609690826535 11.999999999999984 0.0
    vertex 20.784609690826535 11.999999999999984 53.99999999999999
  endloop
endfacet
facet normal 0.9659258262890684 0.25881904510252035 0.0
  outer loop
    vertex 23.18221983093764 6.211657082460486 0.0
    vertex 24.0 -4.408728476930471e-15 53.99999999999999
    vertex 24.0 -4.408728476930471e-15 0.0
  endloop
endfacet
facet normal 1.0 -4.455554947823453e-16 0.0
  outer loop
    vertex 24.0 -4.408728476930471e-15 53.99999999999999
    vertex 23.18221983093764 6.211657082460486 0.0
    vertex 23.18221983093764 6.211657082460486 53.99999999999999
  endloop
endfacet
facet normal 1.0 -4.455554947823453e-16 0.0
  outer loop
    vertex 24.0 -4.408728476930471e-15 0.0
    vertex 23.182219830937633 -6.211657082460516 53.99999999999999
    vertex 23.182219830937633 -6.211657082460516 0.0
  endloop
endfacet
facet normal 0.9659258262890682 -0.2588190451025212 0.0
  outer loop
    vertex 23.182219830937633 -6.211657082460516 53.99999999999999
    vertex 24.0 -4.408728476930471e-15 0.0
    vertex 24.0 -4.408728476930471e-15 53.99999999999999
  endloop
endfacet
facet normal 0.9659258262890682 -0.2588190451025212 0.0
  outer loop
    vertex 23.182219830937633 -6.211657082460516 0.0
    vertex 20.78460969082652 -12.00000000000001 53.99999999999999
    vertex 20.78460969082652 -12.00000000000001 0.0
  endloop
endfacet
facet normal 0.8660254037844383 -0.5000000000000006 0.0
  outer loop
    vertex 20.78460969082652 -12.00000000000001 53.99999999999999
    vertex 23.182219830937633 -6.211657082460516 0.0
    vertex 23.182219830937633 -6.211657082460516 53.99999999999999
  endloop
endfacet
facet normal 0.8660254037844383 -0.5000000000000006 0.0
  outer loop
    vertex 20.78460969082652 -12.00000000000001 0.0
    vertex 16.97056274847713 -16.97056274847715 53.99999999999999
    vertex 16.97056274847713 -16.97056274847715 0.0
  endloop
endfacet
facet normal 0.7071067811865471 -0.707106781186548 0.0
  outer loop
    vertex 16.97056274847713 -16.97056274847715 53.99999999999999
    vertex 20.78460969082652 -12.00000000000001 0.0
    vertex 20.78460969082652 -12.00000000000001 53.99999999999999
  endloop
endfacet
facet normal 0.7071067811865471 -0.707106781186548 0.0
  outer loop
    vertex 16.97056274847713 -16.97056274847715 53.99999999999999
    vertex 11.999999999999993 -20.784609690826528 0.0
    vertex 16.97056274847713 -16.97056274847715 0.0
  endloop
endfacet
facet normal 0.4999999999999998 -0.8660254037844388 0.0
  outer loop
    vertex 11.999999999999993 -20.784609690826528 0.0
    vertex 16.97056274847713 -16.97056274847715 53.99999999999999
    vertex 11.999999999999993 -20.784609690826528 53.99999999999999
  endloop
endfacet
facet normal 0.4999999999999998 -0.8660254037844388 0.0
  outer loop
    vertex 11.999999999999993 -20.784609690826528 53.99999999999999
    vertex 6.211657082460488 -23.18221983093764 0.0
    vertex 11.999999999999993 -20.784609690826528 0.0
  endloop
endfacet
facet normal 0.2588190451025206 -0.9659258262890684 0.0
  outer loop
    vertex 6.211657082460488 -23.18221983093764 0.0
    vertex 11.999999999999993 -20.784609690826528 53.99999999999999
    vertex 6.211657082460488 -23.18221983093764 53.99999999999999
  endloop
endfacet
facet normal 0.2588190451025206 -0.9659258262890684 0.0
  outer loop
    vertex 6.211657082460488 -23.18221983093764 53.99999999999999
    vertex -2.9391523179536475e-15 -24.0 0.0
    vertex 6.211657082460488 -23.18221983093764 0.0
  endloop
endfacet
facet normal -3.3862217603458237e-16 -1.0 0.0
  outer loop
    vertex -2.9391523179536475e-15 -24.0 0.0
    vertex 6.211657082460488 -23.18221983093764 53.99999999999999
    vertex -2.9391523179536475e-15 -24.0 53.99999999999999
  endloop
endfacet
facet normal 0.0 0.0 1.0
  outer loop
    vertex -16.877290271965173 -6.215724221415217 5.000000000000025
    vertex -17.81926259652513 3.0540236978891038 5.000000000000025
    vertex -17.95846916703614 -1.6428567663563138 5.000000000000025
  endloop
endfacet
facet normal 0.0 0.0 1.0
  outer loop
    vertex -17.81926259652513 3.0540236978891038 5.000000000000025
    vertex -16.877290271965173 -6.215724221415217 5.000000000000025
    vertex -16.46915725816273 7.55483252964469 5.000000000000025
  endloop
endfacet
facet normal 0.0 0.0 1.0
  outer loop
    vertex -16.46915725816273 7.55483252964469 5.000000000000025
    vertex -16.877290271965173 -6.215724221415217 5.000000000000025
    vertex -14.649406466278705 -10.352945307246106 5.000000000000025
  endloop
endfacet
facet normal 0.0 0.0 1.0
  outer loop
    vertex -16.46915725816273 7.55483252964469 5.000000000000025
    vertex -14.649406466278705 -10.352945307246106 5.000000000000025
    vertex -14.00016059960378 11.552847044964569 5.000000000000025
  endloop
endfacet
facet normal 0.0 0.0 1.0
  outer loop
    vertex -14.00016059960378 11.552847044964569 5.000000000000025
    vertex -14.649406466278705 -10.352945307246106 5.000000000000025
    vertex -11.426644349582206 -13.772575243930723 5.000000000000025
  endloop
endfacet
facet normal 0.0 0.0 1.0
  outer loop
    vertex -14.00016059960378 11.552847044964569 5.000000000000025
    vertex -11.426644349582206 -13.772575243930723 5.000000000000025
    vertex -10.580530662919163 14.775609161661068 5.000000000000025
  endloop
endfacet
facet normal 0.0 0.0 1.0
  outer loop
    vertex -10.580530662919163 14.775609161661068 5.000000000000025
    vertex -11.426644349582206 -13.772575243930723 5.000000000000025
    vertex -7.428629834262325 -16.241571902489678 5.000000000000025
  endloop
endfacet
facet normal 0.0 0.0 1.0
  outer loop
    vertex -10.580530662919163 14.775609161661068 5.000000000000025
    vertex -7.428629834262325 -16.241571902489678 5.000000000000025
    vertex -6.443309577088278 17.003492967347537 5.000000000000025
  endloop
endfacet
facet normal 0.0 0.0 1.0
  outer loop
    vertex -6.443309577088278 17.003492967347537 5.000000000000025
    vertex -7.428629834262325 -16.241571902489678 5.000000000000025
    vertex -2.9278210025067417 -17.591677240852075 5.000000000000025
  endloop
endfacet
facet normal 0.0 0.0 1.0
  outer loop
    vertex -6.443309577088278 17.003492967347537 5.000000000000025
    vertex -2.9278210025067417 -17.591677240852075 5.000000000000025
    vertex -1.8704421220293683 18.084671862418507 5.000000000000025
  endloop
endfacet
facet normal 0.0 0.0 1.0
  outer loop
    vertex -1.8704421220293683 18.084671862418507 5.000000000000025
    vertex -2.9278210025067417 -17.591677240852075 5.000000000000025
    vertex 1.76905946173868 -17.73088381136309 5.000000000000025
  endloop
endfacet
facet normal 0.0 0.0 1.0
  outer loop
    vertex -1.8704421220293683 18.084671862418507 5.000000000000025
    vertex 1.76905946173868 -17.73088381136309 5.000000000000025
    vertex 2.8264383422160493 17.945465291907496 5.000000000000025
  endloop
endfacet
facet normal 0.0 0.0 1.0
  outer loop
    vertex 2.8264383422160493 17.945465291907496 5.000000000000025
    vertex 1.76905946173868 -17.73088381136309 5.000000000000025
    vertex 6.341926916797582 -16.64970491629212 5.000000000000025
  endloop
endfacet
facet normal 0.0 0.0 1.0
  outer loop
    vertex 2.8264383422160493 17.945465291907496 5.000000000000025
    vertex 6.341926916797582 -16.64970491629212 5.000000000000025
    vertex 7.32724717397163 16.595359953545103 5.000000000000025
  endloop
endfacet
facet normal 0.0 0.0 1.0
  outer loop
    vertex 7.32724717397163 16.595359953545103 5.000000000000025
    vertex 6.341926916797582 -16.64970491629212 5.000000000000025
    vertex 10.479148002628468 -14.421821110605656 5.000000000000025
  endloop
endfacet
facet normal 0.0 0.0 1.0
  outer loop
    vertex 7.32724717397163 16.595359953545103 5.000000000000025
    vertex 10.479148002628468 -14.421821110605656 5.000000000000025
    vertex 11.325261689291517 14.126363294986142 5.000000000000025
  endloop
endfacet
facet normal 0.0 0.0 1.0
  outer loop
    vertex 11.325261689291517 14.126363294986142 5.000000000000025
    vertex 10.479148002628468 -14.421821110605656 5.000000000000025
    vertex 13.89877793931309 -11.199058993909153 5.000000000000025
  endloop
endfacet
facet normal 0.0 0.0 1.0
  outer loop
    vertex 11.325261689291517 14.126363294986142 5.000000000000025
    vertex 13.89877793931309 -11.199058993909153 5.000000000000025
    vertex 14.548023805988015 10.706733358301529 5.000000000000025
  endloop
endfacet
facet normal 0.0 0.0 1.0
  outer loop
    vertex 14.548023805988015 10.706733358301529 5.000000000000025
    vertex 13.89877793931309 -11.199058993909153 5.000000000000025
    vertex 16.367774597872046 -7.201044478589274 5.000000000000025
  endloop
endfacet
facet normal 0.0 0.0 1.0
  outer loop
    vertex 14.548023805988015 10.706733358301529 5.000000000000025
    vertex 16.367774597872046 -7.201044478589274 5.000000000000025
    vertex 16.775907611674484 6.5695122724706465 5.000000000000025
  endloop
endfacet
facet normal 0.0 0.0 1.0
  outer loop
    vertex 16.775907611674484 6.5695122724706465 5.000000000000025
    vertex 16.367774597872046 -7.201044478589274 5.000000000000025
    vertex 17.717879936234443 -2.70023564683369 5.000000000000025
  endloop
endfacet
facet normal 0.0 0.0 1.0
  outer loop
    vertex 16.775907611674484 6.5695122724706465 5.000000000000025
    vertex 17.717879936234443 -2.70023564683369 5.000000000000025
    vertex 17.857086506745457 1.9966448174117322 5.000000000000025
  endloop
endfacet
facet normal 0.9948765464939335 0.10109726621577908 0.0
  outer loop
    vertex -17.95846916703614 -1.6428567663563138 5.000000000000025
    vertex -16.877290271965173 -6.215724221415217 53.99999999999999
    vertex -16.877290271965173 -6.215724221415217 5.000000000000025
  endloop
endfacet
facet normal 0.9348110523233243 0.3551454581634958 0.0
  outer loop
    vertex -16.877290271965173 -6.215724221415217 53.99999999999999
    vertex -17.95846916703614 -1.6428567663563138 5.000000000000025
    vertex -17.95846916703614 -1.6428567663563138 53.99999999999999
  endloop
endfacet
facet normal 0.9348110523233243 0.3551454581634958 0.0
  outer loop
    vertex -16.877290271965173 -6.215724221415217 5.000000000000025
    vertex -14.649406466278705 -10.352945307246106 53.99999999999999
    vertex -14.649406466278705 -10.352945307246106 5.000000000000025
  endloop
endfacet
facet normal 0.8110397297851871 0.5849910740429899 0.0
  outer loop
    vertex -14.649406466278705 -10.352945307246106 53.99999999999999
    vertex -16.877290271965173 -6.215724221415217 5.000000000000025
    vertex -16.877290271965173 -6.215724221415217 53.99999999999999
  endloop
endfacet
facet normal 0.8110397297851871 0.5849910740429899 0.0
  outer loop
    vertex -14.649406466278705 -10.352945307246106 5.000000000000025
    vertex -11.426644349582206 -13.772575243930723 53.99999999999999
    vertex -11.426644349582206 -13.772575243930723 5.000000000000025
  endloop
endfacet
facet normal 0.6319973899687148 0.7749705149699132 0.0
  outer loop
    vertex -11.426644349582206 -13.772575243930723 53.99999999999999
    vertex -14.649406466278705 -10.352945307246106 5.000000000000025
    vertex -14.649406466278705 -10.352945307246106 53.99999999999999
  endloop
endfacet
facet normal 0.6319973899687148 0.7749705149699132 0.0
  outer loop
    vertex -11.426644349582206 -13.772575243930723 53.99999999999999
    vertex -7.428629834262325 -16.241571902489678 5.000000000000025
    vertex -11.426644349582206 -13.772575243930723 5.000000000000025
  endloop
endfacet
facet normal 0.4098854724509434 0.9121369960009663 0.0
  outer loop
    vertex -7.428629834262325 -16.241571902489678 5.000000000000025
    vertex -11.426644349582206 -13.772575243930723 53.99999999999999
    vertex -7.428629834262325 -16.241571902489678 53.99999999999999
  endloop
endfacet
facet normal 0.4098854724509434 0.9121369960009663 0.0
  outer loop
    vertex -7.428629834262325 -16.241571902489678 53.99999999999999
    vertex -2.9278210025067417 -17.591677240852075 5.000000000000025
    vertex -7.428629834262325 -16.241571902489678 5.000000000000025
  endloop
endfacet
facet normal 0.15984053735341097 0.9871428481322108 0.0
  outer loop
    vertex -2.9278210025067417 -17.591677240852075 5.000000000000025
    vertex -7.428629834262325 -16.241571902489678 53.99999999999999
    vertex -2.9278210025067417 -17.591677240852075 53.99999999999999
  endloop
endfacet
facet normal 0.15984053735341097 0.9871428481322108 0.0
  outer loop
    vertex -2.9278210025067417 -17.591677240852075 53.99999999999999
    vertex 1.76905946173868 -17.73088381136309 5.000000000000025
    vertex -2.9278210025067417 -17.591677240852075 5.000000000000025
  endloop
endfacet
facet normal -0.1010972662157791 0.9948765464939336 0.0
  outer loop
    vertex 1.76905946173868 -17.73088381136309 5.000000000000025
    vertex -2.9278210025067417 -17.591677240852075 53.99999999999999
    vertex 1.76905946173868 -17.73088381136309 53.99999999999999
  endloop
endfacet
facet normal -0.1010972662157791 0.9948765464939336 0.0
  outer loop
    vertex 1.76905946173868 -17.73088381136309 53.99999999999999
    vertex 6.341926916797582 -16.64970491629212 5.000000000000025
    vertex 1.76905946173868 -17.73088381136309 5.000000000000025
  endloop
endfacet
facet normal -0.3551454581634956 0.9348110523233242 0.0
  outer loop
    vertex 6.341926916797582 -16.64970491629212 5.000000000000025
    vertex 1.76905946173868 -17.73088381136309 53.99999999999999
    vertex 6.341926916797582 -16.64970491629212 53.99999999999999
  endloop
endfacet
facet normal -0.3551454581634956 0.9348110523233242 0.0
  outer loop
    vertex 6.341926916797582 -16.64970491629212 53.99999999999999
    vertex 10.479148002628468 -14.421821110605656 5.000000000000025
    vertex 6.341926916797582 -16.64970491629212 5.000000000000025
  endloop
endfacet
facet normal -0.5849910740429894 0.8110397297851875 0.0
  outer loop
    vertex 10.479148002628468 -14.421821110605656 5.000000000000025
    vertex 6.341926916797582 -16.64970491629212 53.99999999999999
    vertex 10.479148002628468 -14.421821110605656 53.99999999999999
  endloop
endfacet
facet normal -0.5849910740429894 0.8110397297851875 0.0
  outer loop
    vertex 10.479148002628468 -14.421821110605656 53.99999999999999
    vertex 13.89877793931309 -11.199058993909153 5.000000000000025
    vertex 10.479148002628468 -14.421821110605656 5.000000000000025
  endloop
endfacet
facet normal -0.774970514969913 0.631997389968715 0.0
  outer loop
    vertex 13.89877793931309 -11.199058993909153 5.000000000000025
    vertex 10.479148002628468 -14.421821110605656 53.99999999999999
    vertex 13.89877793931309 -11.199058993909153 53.99999999999999
  endloop
endfacet
facet normal -0.9121369960009664 0.40988547245094326 0.0
  outer loop
    vertex 16.367774597872046 -7.201044478589274 53.99999999999999
    vertex 13.89877793931309 -11.199058993909153 5.000000000000025
    vertex 13.89877793931309 -11.199058993909153 53.99999999999999
  endloop
endfacet
facet normal -0.774970514969913 0.631997389968715 0.0
  outer loop
    vertex 13.89877793931309 -11.199058993909153 5.000000000000025
    vertex 16.367774597872046 -7.201044478589274 53.99999999999999
    vertex 16.367774597872046 -7.201044478589274 5.000000000000025
  endloop
endfacet
facet normal -0.9871428481322108 0.15984053735341092 0.0
  outer loop
    vertex 17.717879936234443 -2.70023564683369 53.99999999999999
    vertex 16.367774597872046 -7.201044478589274 5.000000000000025
    vertex 16.367774597872046 -7.201044478589274 53.99999999999999
  endloop
endfacet
facet normal -0.9121369960009664 0.40988547245094326 0.0
  outer loop
    vertex 16.367774597872046 -7.201044478589274 5.000000000000025
    vertex 17.717879936234443 -2.70023564683369 53.99999999999999
    vertex 17.717879936234443 -2.70023564683369 5.000000000000025
  endloop
endfacet
facet normal -0.9948765464939336 -0.10109726621577877 0.0
  outer loop
    vertex 17.857086506745457 1.9966448174117322 53.99999999999999
    vertex 17.717879936234443 -2.70023564683369 5.000000000000025
    vertex 17.717879936234443 -2.70023564683369 53.99999999999999
  endloop
endfacet
facet normal -0.9871428481322108 0.15984053735341092 0.0
  outer loop
    vertex 17.717879936234443 -2.70023564683369 5.000000000000025
    vertex 17.857086506745457 1.9966448174117322 53.99999999999999
    vertex 17.857086506745457 1.9966448174117322 5.000000000000025
  endloop
endfacet
facet normal -0.934811052323324 -0.35514545816349635 0.0
  outer loop
    vertex 16.775907611674484 6.5695122724706465 53.99999999999999
    vertex 17.857086506745457 1.9966448174117322 5.000000000000025
    vertex 17.857086506745457 1.9966448174117322 53.99999999999999
  endloop
endfacet
facet normal -0.9948765464939336 -0.10109726621577877 0.0
  outer loop
    vertex 17.857086506745457 1.9966448174117322 5.000000000000025
    vertex 16.775907611674484 6.5695122724706465 53.99999999999999
    vertex 16.775907611674484 6.5695122724706465 5.000000000000025
  endloop
endfacet
facet normal -0.8110397297851867 -0.5849910740429903 0.0
  outer loop
    vertex 14.548023805988015 10.706733358301529 53.99999999999999
    vertex 16.775907611674484 6.5695122724706465 5.000000000000025
    vertex 16.775907611674484 6.5695122724706465 53.99999999999999
  endloop
endfacet
facet normal -0.934811052323324 -0.35514545816349635 0.0
  outer loop
    vertex 16.775907611674484 6.5695122724706465 5.000000000000025
    vertex 14.548023805988015 10.706733358301529 53.99999999999999
    vertex 14.548023805988015 10.706733358301529 5.000000000000025
  endloop
endfacet
facet normal -0.6319973899687147 -0.7749705149699132 0.0
  outer loop
    vertex 11.325261689291517 14.126363294986142 53.99999999999999
    vertex 14.548023805988015 10.706733358301529 5.000000000000025
    vertex 14.548023805988015 10.706733358301529 53.99999999999999
  endloop
endfacet
facet normal -0.8110397297851867 -0.5849910740429903 0.0
  outer loop
    vertex 14.548023805988015 10.706733358301529 5.000000000000025
    vertex 11.325261689291517 14.126363294986142 53.99999999999999
    vertex 11.325261689291517 14.126363294986142 5.000000000000025
  endloop
endfacet
facet normal -0.6319973899687147 -0.7749705149699132 0.0
  outer loop
    vertex 11.325261689291517 14.126363294986142 53.99999999999999
    vertex 7.32724717397163 16.595359953545103 5.000000000000025
    vertex 11.325261689291517 14.126363294986142 5.000000000000025
  endloop
endfacet
facet normal -0.4098854724509431 -0.9121369960009665 0.0
  outer loop
    vertex 7.32724717397163 16.595359953545103 5.000000000000025
    vertex 11.325261689291517 14.126363294986142 53.99999999999999
    vertex 7.32724717397163 16.595359953545103 53.99999999999999
  endloop
endfacet
facet normal -0.4098854724509431 -0.9121369960009665 0.0
  outer loop
    vertex 7.32724717397163 16.595359953545103 53.99999999999999
    vertex 2.8264383422160493 17.945465291907496 5.000000000000025
    vertex 7.32724717397163 16.595359953545103 5.000000000000025
  endloop
endfacet
facet normal -0.1598405373534105 -0.9871428481322109 0.0
  outer loop
    vertex 2.8264383422160493 17.945465291907496 5.000000000000025
    vertex 7.32724717397163 16.595359953545103 53.99999999999999
    vertex 2.8264383422160493 17.945465291907496 53.99999999999999
  endloop
endfacet
facet normal -0.1598405373534105 -0.9871428481322109 0.0
  outer loop
    vertex 2.8264383422160493 17.945465291907496 53.99999999999999
    vertex -1.8704421220293683 18.084671862418507 5.000000000000025
    vertex 2.8264383422160493 17.945465291907496 5.000000000000025
  endloop
endfacet
facet normal 0.10109726621577916 -0.9948765464939335 0.0
  outer loop
    vertex -1.8704421220293683 18.084671862418507 5.000000000000025
    vertex 2.8264383422160493 17.945465291907496 53.99999999999999
    vertex -1.8704421220293683 18.084671862418507 53.99999999999999
  endloop
endfacet
facet normal 0.10109726621577916 -0.9948765464939335 0.0
  outer loop
    vertex -1.8704421220293683 18.084671862418507 53.99999999999999
    vertex -6.443309577088278 17.003492967347537 5.000000000000025
    vertex -1.8704421220293683 18.084671862418507 5.000000000000025
  endloop
endfacet
facet normal 0.35514545816349635 -0.9348110523233238 0.0
  outer loop
    vertex -6.443309577088278 17.003492967347537 5.000000000000025
    vertex -1.8704421220293683 18.084671862418507 53.99999999999999
    vertex -6.443309577088278 17.003492967347537 53.99999999999999
  endloop
endfacet
facet normal 0.35514545816349635 -0.9348110523233238 0.0
  outer loop
    vertex -6.443309577088278 17.003492967347537 53.99999999999999
    vertex -10.580530662919163 14.775609161661068 5.000000000000025
    vertex -6.443309577088278 17.003492967347537 5.000000000000025
  endloop
endfacet
facet normal 0.5849910740429902 -0.8110397297851869 0.0
  outer loop
    vertex -10.580530662919163 14.775609161661068 5.000000000000025
    vertex -6.443309577088278 17.003492967347537 53.99999999999999
    vertex -10.580530662919163 14.775609161661068 53.99999999999999
  endloop
endfacet
facet normal 0.5849910740429902 -0.8110397297851869 0.0
  outer loop
    vertex -10.580530662919163 14.775609161661068 53.99999999999999
    vertex -14.00016059960378 11.552847044964569 5.000000000000025
    vertex -10.580530662919163 14.775609161661068 5.000000000000025
  endloop
endfacet
facet normal 0.7749705149699133 -0.6319973899687146 0.0
  outer loop
    vertex -14.00016059960378 11.552847044964569 5.000000000000025
    vertex -10.580530662919163 14.775609161661068 53.99999999999999
    vertex -14.00016059960378 11.552847044964569 53.99999999999999
  endloop
endfacet
facet normal 0.7749705149699133 -0.6319973899687146 0.0
  outer loop
    vertex -14.00016059960378 11.552847044964569 5.000000000000025
    vertex -16.46915725816273 7.55483252964469 53.99999999999999
    vertex -16.46915725816273 7.55483252964469 5.000000000000025
  endloop
endfacet
facet normal 0.9121369960009663 -0.40988547245094337 0.0
  outer loop
    vertex -16.46915725816273 7.55483252964469 53.99999999999999
    vertex -14.00016059960378 11.552847044964569 5.000000000000025
    vertex -14.00016059960378 11.552847044964569 53.99999999999999
  endloop
endfacet
facet normal 0.9121369960009663 -0.40988547245094337 0.0
  outer loop
    vertex -16.46915725816273 7.55483252964469 5.000000000000025
    vertex -17.81926259652513 3.0540236978891038 53.99999999999999
    vertex -17.81926259652513 3.0540236978891038 5.000000000000025
  endloop
endfacet
facet normal 0.9871428481322108 -0.15984053735341086 0.0
  outer loop
    vertex -17.81926259652513 3.0540236978891038 53.99999999999999
    vertex -16.46915725816273 7.55483252964469 5.000000000000025
    vertex -16.46915725816273 7.55483252964469 53.99999999999999
  endloop
endfacet
facet normal 0.9871428481322108 -0.15984053735341086 0.0
  outer loop
    vertex -17.81926259652513 3.0540236978891038 5.000000000000025
    vertex -17.95846916703614 -1.6428567663563138 53.99999999999999
    vertex -17.95846916703614 -1.6428567663563138 5.000000000000025
  endloop
endfacet
facet normal 0.9948765464939335 0.10109726621577908 0.0
  outer loop
    vertex -17.95846916703614 -1.6428567663563138 53.99999999999999
    vertex -17.81926259652513 3.0540236978891038 5.000000000000025
    vertex -17.81926259652513 3.0540236978891038 53.99999999999999
  endloop
endfacet
endsolid Untitled-5345a07d
