solid puzzle 2.1 (1)
facet normal 0.5333455295525164 0.8458974796666238 0.0
  outer loop
    vertex 82.75273838525884 240.4803999723099 5.499999999999993
    vertex 88.5712788191839 236.81176091905547 4.999999999999991
    vertex 82.75273838525884 240.4803999723099 4.999999999999991
  endloop
endfacet
facet normal 0.5333455295525164 0.8458974796666238 0.0
  outer loop
    vertex 88.5712788191839 236.81176091905547 4.999999999999991
    vertex 82.75273838525884 240.4803999723099 5.499999999999993
    vertex 88.5712788191839 236.81176091905547 5.499999999999993
  endloop
endfacet
facet normal -1.0 -0.0 -0.0
  outer loop
    vertex 88.5712788191839 240.4803999723099 5.499999999999993
    vertex 88.5712788191839 236.81176091905547 4.999999999999991
    vertex 88.5712788191839 236.81176091905547 5.499999999999993
  endloop
endfacet
facet normal -1.0 -0.0 -0.0
  outer loop
    vertex 88.5712788191839 236.81176091905547 4.999999999999991
    vertex 88.5712788191839 240.4803999723099 5.499999999999993
    vertex 88.5712788191839 240.4803999723099 4.999999999999991
  endloop
endfacet
facet normal -0.0 -1.0 -0.0
  outer loop
    vertex 88.5712788191839 240.4803999723099 5.499999999999993
    vertex 82.75273838525884 240.4803999723099 4.999999999999991
    vertex 88.5712788191839 240.4803999723099 4.999999999999991
  endloop
endfacet
facet normal -0.0 -1.0 -0.0
  outer loop
    vertex 82.75273838525884 240.4803999723099 4.999999999999991
    vertex 88.5712788191839 240.4803999723099 5.499999999999993
    vertex 82.75273838525884 240.4803999723099 5.499999999999993
  endloop
endfacet
facet normal 1.0 0.0 0.0
  outer loop
    vertex 93.31486856277364 242.79795421294108 4.999999999999991
    vertex 93.31486856277364 240.45081417349334 5.499999999999993
    vertex 93.31486856277364 240.45081417349334 4.999999999999991
  endloop
endfacet
facet normal 1.0 0.0 0.0
  outer loop
    vertex 93.31486856277364 240.45081417349334 5.499999999999993
    vertex 93.31486856277364 242.79795421294108 4.999999999999991
    vertex 93.31486856277364 242.79795421294108 5.499999999999993
  endloop
endfacet
facet normal 0.0 1.0 0.0
  outer loop
    vertex 80.42532221168884 242.79795421294108 5.499999999999993
    vertex 88.5712788191839 242.79795421294108 4.999999999999991
    vertex 80.42532221168884 242.79795421294108 4.999999999999991
  endloop
endfacet
facet normal 0.0 1.0 0.0
  outer loop
    vertex 88.5712788191839 242.79795421294108 4.999999999999991
    vertex 80.42532221168884 242.79795421294108 5.499999999999993
    vertex 88.5712788191839 242.79795421294108 5.499999999999993
  endloop
endfacet
facet normal -1.0 -0.0 -0.0
  outer loop
    vertex 80.42532221168884 242.79795421294108 5.499999999999993
    vertex 80.42532221168884 239.48434474548546 4.999999999999991
    vertex 80.42532221168884 239.48434474548546 5.499999999999993
  endloop
endfacet
facet normal -1.0 -0.0 -0.0
  outer loop
    vertex 80.42532221168884 239.48434474548546 4.999999999999991
    vertex 80.42532221168884 242.79795421294108 5.499999999999993
    vertex 80.42532221168884 242.79795421294108 4.999999999999991
  endloop
endfacet
facet normal -0.5226101153400031 -0.8525717960056554 -0.0
  outer loop
    vertex 88.63045041681703 234.4547589466689 5.499999999999993
    vertex 80.42532221168884 239.48434474548546 4.999999999999991
    vertex 88.63045041681703 234.4547589466689 4.999999999999991
  endloop
endfacet
facet normal -0.5226101153400031 -0.8525717960056554 -0.0
  outer loop
    vertex 80.42532221168884 239.48434474548546 4.999999999999991
    vertex 88.63045041681703 234.4547589466689 5.499999999999993
    vertex 80.42532221168884 239.48434474548546 5.499999999999993
  endloop
endfacet
facet normal 0.0 1.0 0.0
  outer loop
    vertex 88.5712788191839 244.75061693483457 5.499999999999993
    vertex 90.69159440103795 244.75061693483457 4.999999999999991
    vertex 88.5712788191839 244.75061693483457 4.999999999999991
  endloop
endfacet
facet normal 0.0 1.0 0.0
  outer loop
    vertex 90.69159440103795 244.75061693483457 4.999999999999991
    vertex 88.5712788191839 244.75061693483457 5.499999999999993
    vertex 90.69159440103795 244.75061693483457 5.499999999999993
  endloop
endfacet
facet normal -0.0 -1.0 -0.0
  outer loop
    vertex 90.69159440103795 234.4547589466689 5.499999999999993
    vertex 88.63045041681703 234.4547589466689 4.999999999999991
    vertex 90.69159440103795 234.4547589466689 4.999999999999991
  endloop
endfacet
facet normal -0.0 -1.0 -0.0
  outer loop
    vertex 88.63045041681703 234.4547589466689 4.999999999999991
    vertex 90.69159440103795 234.4547589466689 5.499999999999993
    vertex 88.63045041681703 234.4547589466689 5.499999999999993
  endloop
endfacet
facet normal -0.0 -1.0 -0.0
  outer loop
    vertex 93.31486856277364 240.45081417349334 5.499999999999993
    vertex 90.69159440103795 240.45081417349334 4.999999999999991
    vertex 93.31486856277364 240.45081417349334 4.999999999999991
  endloop
endfacet
facet normal -0.0 -1.0 -0.0
  outer loop
    vertex 90.69159440103795 240.45081417349334 4.999999999999991
    vertex 93.31486856277364 240.45081417349334 5.499999999999993
    vertex 90.69159440103795 240.45081417349334 5.499999999999993
  endloop
endfacet
facet normal 1.0 0.0 0.0
  outer loop
    vertex 90.69159440103795 240.45081417349334 4.999999999999991
    vertex 90.69159440103795 234.4547589466689 5.499999999999993
    vertex 90.69159440103795 234.4547589466689 4.999999999999991
  endloop
endfacet
facet normal 1.0 0.0 0.0
  outer loop
    vertex 90.69159440103795 234.4547589466689 5.499999999999993
    vertex 90.69159440103795 240.45081417349334 4.999999999999991
    vertex 90.69159440103795 240.45081417349334 5.499999999999993
  endloop
endfacet
facet normal 0.0 1.0 0.0
  outer loop
    vertex 90.69159440103795 242.79795421294108 5.499999999999993
    vertex 93.31486856277364 242.79795421294108 4.999999999999991
    vertex 90.69159440103795 242.79795421294108 4.999999999999991
  endloop
endfacet
facet normal 0.0 1.0 0.0
  outer loop
    vertex 93.31486856277364 242.79795421294108 4.999999999999991
    vertex 90.69159440103795 242.79795421294108 5.499999999999993
    vertex 93.31486856277364 242.79795421294108 5.499999999999993
  endloop
endfacet
facet normal -1.0 -0.0 -0.0
  outer loop
    vertex 88.5712788191839 244.75061693483457 5.499999999999993
    vertex 88.5712788191839 242.79795421294108 4.999999999999991
    vertex 88.5712788191839 242.79795421294108 5.499999999999993
  endloop
endfacet
facet normal -1.0 -0.0 -0.0
  outer loop
    vertex 88.5712788191839 242.79795421294108 4.999999999999991
    vertex 88.5712788191839 244.75061693483457 5.499999999999993
    vertex 88.5712788191839 244.75061693483457 4.999999999999991
  endloop
endfacet
facet normal 0.0 0.0 1.0
  outer loop
    vertex 88.5712788191839 240.4803999723099 4.999999999999991
    vertex 82.75273838525884 240.4803999723099 4.999999999999991
    vertex 88.5712788191839 236.81176091905547 4.999999999999991
  endloop
endfacet
facet normal 0.0 0.0 1.0
  outer loop
    vertex 93.31486856277364 240.45081417349334 5.499999999999993
    vertex 90.69159440103795 242.79795421294108 5.499999999999993
    vertex 90.69159440103795 240.45081417349334 5.499999999999993
  endloop
endfacet
facet normal 0.0 0.0 1.0
  outer loop
    vertex 90.69159440103795 242.79795421294108 5.499999999999993
    vertex 93.31486856277364 240.45081417349334 5.499999999999993
    vertex 93.31486856277364 242.79795421294108 5.499999999999993
  endloop
endfacet
facet normal 0.0 0.0 1.0
  outer loop
    vertex 88.63045041681703 234.4547589466689 5.499999999999993
    vertex 80.42532221168884 242.79795421294108 5.499999999999993
    vertex 80.42532221168884 239.48434474548546 5.499999999999993
  endloop
endfacet
facet normal 0.0 0.0 1.0
  outer loop
    vertex 80.42532221168884 242.79795421294108 5.499999999999993
    vertex 88.63045041681703 234.4547589466689 5.499999999999993
    vertex 82.75273838525884 240.4803999723099 5.499999999999993
  endloop
endfacet
facet normal 0.0 0.0 1.0
  outer loop
    vertex 82.75273838525884 240.4803999723099 5.499999999999993
    vertex 88.63045041681703 234.4547589466689 5.499999999999993
    vertex 88.5712788191839 236.81176091905547 5.499999999999993
  endloop
endfacet
facet normal 0.0 0.0 1.0
  outer loop
    vertex 88.5712788191839 236.81176091905547 5.499999999999993
    vertex 88.63045041681703 234.4547589466689 5.499999999999993
    vertex 88.5712788191839 240.4803999723099 5.499999999999993
  endloop
endfacet
facet normal 0.0 0.0 1.0
  outer loop
    vertex 88.5712788191839 240.4803999723099 5.499999999999993
    vertex 88.63045041681703 234.4547589466689 5.499999999999993
    vertex 88.5712788191839 242.79795421294108 5.499999999999993
  endloop
endfacet
facet normal 0.0 0.0 1.0
  outer loop
    vertex 88.5712788191839 242.79795421294108 5.499999999999993
    vertex 88.63045041681703 234.4547589466689 5.499999999999993
    vertex 88.5712788191839 244.75061693483457 5.499999999999993
  endloop
endfacet
facet normal 0.0 0.0 1.0
  outer loop
    vertex 88.5712788191839 244.75061693483457 5.499999999999993
    vertex 88.63045041681703 234.4547589466689 5.499999999999993
    vertex 90.69159440103795 244.75061693483457 5.499999999999993
  endloop
endfacet
facet normal 0.0 0.0 1.0
  outer loop
    vertex 90.69159440103795 244.75061693483457 5.499999999999993
    vertex 88.63045041681703 234.4547589466689 5.499999999999993
    vertex 90.69159440103795 234.4547589466689 5.499999999999993
  endloop
endfacet
facet normal 0.0 0.0 1.0
  outer loop
    vertex 90.69159440103795 244.75061693483457 5.499999999999993
    vertex 90.69159440103795 234.4547589466689 5.499999999999993
    vertex 90.69159440103795 240.45081417349334 5.499999999999993
  endloop
endfacet
facet normal 0.0 0.0 1.0
  outer loop
    vertex 90.69159440103795 244.75061693483457 5.499999999999993
    vertex 90.69159440103795 240.45081417349334 5.499999999999993
    vertex 90.69159440103795 242.79795421294108 5.499999999999993
  endloop
endfacet
facet normal 0.0 0.0 1.0
  outer loop
    vertex 82.75273838525884 240.4803999723099 5.499999999999993
    vertex 88.5712788191839 242.79795421294108 5.499999999999993
    vertex 80.42532221168884 242.79795421294108 5.499999999999993
  endloop
endfacet
facet normal 0.0 0.0 1.0
  outer loop
    vertex 88.5712788191839 242.79795421294108 5.499999999999993
    vertex 82.75273838525884 240.4803999723099 5.499999999999993
    vertex 88.5712788191839 240.4803999723099 5.499999999999993
  endloop
endfacet
facet normal 1.0 0.0 0.0
  outer loop
    vertex 90.69159440103795 244.75061693483457 4.999999999999991
    vertex 90.69159440103795 242.79795421294108 5.499999999999993
    vertex 90.69159440103795 242.79795421294108 4.999999999999991
  endloop
endfacet
facet normal 1.0 0.0 0.0
  outer loop
    vertex 90.69159440103795 242.79795421294108 5.499999999999993
    vertex 90.69159440103795 244.75061693483457 4.999999999999991
    vertex 90.69159440103795 244.75061693483457 5.499999999999993
  endloop
endfacet
facet normal 0.0 0.0 1.0
  outer loop
    vertex 93.31486856277364 242.79795421294108 4.999999999999991
    vertex 90.69159440103795 244.75061693483457 4.999999999999991
    vertex 90.69159440103795 242.79795421294108 4.999999999999991
  endloop
endfacet
facet normal 0.0 0.0 1.0
  outer loop
    vertex 75.3478998424727 221.76000536959873 5.0
    vertex 80.34642674817798 228.19243153049533 4.999999999999991
    vertex 75.3478998424727 246.76000536959873 5.0
  endloop
endfacet
facet normal 0.0 0.0 1.0
  outer loop
    vertex 80.34642674817798 228.19243153049533 4.999999999999991
    vertex 75.3478998424727 221.76000536959873 5.0
    vertex 82.50619006178745 224.0997293608701 4.999999999999991
  endloop
endfacet
facet normal 0.0 0.0 1.0
  outer loop
    vertex 82.50619006178745 224.0997293608701 4.999999999999991
    vertex 75.3478998424727 221.76000536959873 5.0
    vertex 100.3478998424727 221.76000536959873 5.0
  endloop
endfacet
facet normal 0.0 0.0 1.0
  outer loop
    vertex 82.50619006178745 224.0997293608701 4.999999999999991
    vertex 100.3478998424727 221.76000536959873 5.0
    vertex 84.4687147166198 224.88868399597857 4.999999999999991
  endloop
endfacet
facet normal 0.0 0.0 1.0
  outer loop
    vertex 84.4687147166198 224.88868399597857 4.999999999999991
    vertex 100.3478998424727 221.76000536959873 5.0
    vertex 91.17482911504189 224.46462087960776 4.999999999999991
  endloop
endfacet
facet normal 0.0 0.0 1.0
  outer loop
    vertex 91.17482911504189 224.46462087960776 4.999999999999991
    vertex 100.3478998424727 221.76000536959873 5.0
    vertex 93.31486856277364 224.46462087960776 4.999999999999991
  endloop
endfacet
facet normal 0.0 0.0 1.0
  outer loop
    vertex 93.31486856277364 224.46462087960776 4.999999999999991
    vertex 100.3478998424727 221.76000536959873 5.0
    vertex 93.31486856277364 233.04450253641247 4.999999999999991
  endloop
endfacet
facet normal 0.0 0.0 1.0
  outer loop
    vertex 93.31486856277364 233.04450253641247 4.999999999999991
    vertex 100.3478998424727 221.76000536959873 5.0
    vertex 93.31486856277364 240.45081417349334 4.999999999999991
  endloop
endfacet
facet normal 0.0 0.0 1.0
  outer loop
    vertex 93.31486856277364 240.45081417349334 4.999999999999991
    vertex 100.3478998424727 221.76000536959873 5.0
    vertex 93.31486856277364 242.79795421294108 4.999999999999991
  endloop
endfacet
facet normal 0.0 0.0 1.0
  outer loop
    vertex 75.3478998424727 246.76000536959873 5.0
    vertex 88.5712788191839 244.75061693483457 4.999999999999991
    vertex 100.3478998424727 246.76000536959873 5.0
  endloop
endfacet
facet normal 0.0 0.0 1.0
  outer loop
    vertex 88.5712788191839 244.75061693483457 4.999999999999991
    vertex 75.3478998424727 246.76000536959873 5.0
    vertex 80.42532221168884 242.79795421294108 4.999999999999991
  endloop
endfacet
facet normal 0.0 0.0 1.0
  outer loop
    vertex 80.42532221168884 242.79795421294108 4.999999999999991
    vertex 75.3478998424727 246.76000536959873 5.0
    vertex 80.34642674817798 230.21412778296082 4.999999999999991
  endloop
endfacet
facet normal 0.0 0.0 1.0
  outer loop
    vertex 80.34642674817798 230.21412778296082 4.999999999999991
    vertex 75.3478998424727 246.76000536959873 5.0
    vertex 80.34642674817798 228.19243153049533 4.999999999999991
  endloop
endfacet
facet normal 0.0 0.0 1.0
  outer loop
    vertex 80.42532221168884 242.79795421294108 4.999999999999991
    vertex 80.34642674817798 230.21412778296082 4.999999999999991
    vertex 80.42532221168884 239.48434474548546 4.999999999999991
  endloop
endfacet
facet normal 0.0 0.0 1.0
  outer loop
    vertex 88.5712788191839 244.75061693483457 4.999999999999991
    vertex 80.42532221168884 242.79795421294108 4.999999999999991
    vertex 88.5712788191839 242.79795421294108 4.999999999999991
  endloop
endfacet
facet normal 0.0 0.0 1.0
  outer loop
    vertex 100.3478998424727 246.76000536959873 5.0
    vertex 88.5712788191839 244.75061693483457 4.999999999999991
    vertex 90.69159440103795 244.75061693483457 4.999999999999991
  endloop
endfacet
facet normal 0.0 0.0 1.0
  outer loop
    vertex 100.3478998424727 246.76000536959873 5.0
    vertex 90.69159440103795 244.75061693483457 4.999999999999991
    vertex 93.31486856277364 242.79795421294108 4.999999999999991
  endloop
endfacet
facet normal 0.0 0.0 1.0
  outer loop
    vertex 100.3478998424727 246.76000536959873 5.0
    vertex 93.31486856277364 242.79795421294108 4.999999999999991
    vertex 100.3478998424727 221.76000536959873 5.0
  endloop
endfacet
facet normal 0.0 0.0 1.0
  outer loop
    vertex 91.17482911504189 230.21412778296082 4.999999999999991
    vertex 80.42532221168884 239.48434474548546 4.999999999999991
    vertex 80.34642674817798 230.21412778296082 4.999999999999991
  endloop
endfacet
facet normal 0.0 0.0 1.0
  outer loop
    vertex 80.42532221168884 239.48434474548546 4.999999999999991
    vertex 91.17482911504189 230.21412778296082 4.999999999999991
    vertex 88.63045041681703 234.4547589466689 4.999999999999991
  endloop
endfacet
facet normal 0.0 0.0 1.0
  outer loop
    vertex 88.63045041681703 234.4547589466689 4.999999999999991
    vertex 91.17482911504189 230.21412778296082 4.999999999999991
    vertex 90.69159440103795 234.4547589466689 4.999999999999991
  endloop
endfacet
facet normal 0.0 0.0 1.0
  outer loop
    vertex 90.69159440103795 234.4547589466689 4.999999999999991
    vertex 91.17482911504189 230.21412778296082 4.999999999999991
    vertex 90.69159440103795 240.45081417349334 4.999999999999991
  endloop
endfacet
facet normal 0.0 0.0 1.0
  outer loop
    vertex 90.69159440103795 240.45081417349334 4.999999999999991
    vertex 91.17482911504189 230.21412778296082 4.999999999999991
    vertex 91.17482911504189 233.04450253641247 4.999999999999991
  endloop
endfacet
facet normal 0.0 0.0 1.0
  outer loop
    vertex 90.69159440103795 240.45081417349334 4.999999999999991
    vertex 91.17482911504189 233.04450253641247 4.999999999999991
    vertex 93.31486856277364 240.45081417349334 4.999999999999991
  endloop
endfacet
facet normal 0.0 0.0 1.0
  outer loop
    vertex 93.31486856277364 240.45081417349334 4.999999999999991
    vertex 91.17482911504189 233.04450253641247 4.999999999999991
    vertex 93.31486856277364 233.04450253641247 4.999999999999991
  endloop
endfacet
facet normal 0.0 0.0 1.0
  outer loop
    vertex 84.4687147166198 224.88868399597857 4.999999999999991
    vertex 91.17482911504189 227.7486445482468 4.999999999999991
    vertex 82.89080544640284 227.7486445482468 4.999999999999991
  endloop
endfacet
facet normal 0.0 0.0 1.0
  outer loop
    vertex 91.17482911504189 227.7486445482468 4.999999999999991
    vertex 84.4687147166198 224.88868399597857 4.999999999999991
    vertex 91.17482911504189 224.46462087960776 4.999999999999991
  endloop
endfacet
facet normal 0.0 1.0 0.0
  outer loop
    vertex 75.3478998424727 246.76000536959873 5.0
    vertex 100.3478998424727 246.76000536959873 2.5
    vertex 75.3478998424727 246.76000536959873 2.5
  endloop
endfacet
facet normal 0.0 1.0 0.0
  outer loop
    vertex 100.3478998424727 246.76000536959873 2.5
    vertex 75.3478998424727 246.76000536959873 5.0
    vertex 100.3478998424727 246.76000536959873 5.0
  endloop
endfacet
facet normal 1.0 0.0 0.0
  outer loop
    vertex 100.3478998424727 246.76000536959873 2.5
    vertex 100.3478998424727 221.76000536959873 5.0
    vertex 100.3478998424727 221.76000536959873 2.5
  endloop
endfacet
facet normal 1.0 0.0 0.0
  outer loop
    vertex 100.3478998424727 221.76000536959873 5.0
    vertex 100.3478998424727 246.76000536959873 2.5
    vertex 100.3478998424727 246.76000536959873 5.0
  endloop
endfacet
facet normal 0.0 -1.0 0.0
  outer loop
    vertex 100.3478998424727 221.76000536959873 2.5
    vertex 96.7478998424727 221.76000536959873 0.0
    vertex 98.7478998424727 221.76000536959873 0.0
  endloop
endfacet
facet normal 0.0 -1.0 0.0
  outer loop
    vertex 96.7478998424727 221.76000536959873 0.0
    vertex 100.3478998424727 221.76000536959873 2.5
    vertex 96.7478998424727 221.76000536959873 2.5
  endloop
endfacet
facet normal 0.0 -1.0 0.0
  outer loop
    vertex 96.7478998424727 221.76000536959873 2.5
    vertex 100.3478998424727 221.76000536959873 2.5
    vertex 100.3478998424727 221.76000536959873 5.0
  endloop
endfacet
facet normal 0.0 -1.0 0.0
  outer loop
    vertex 96.7478998424727 221.76000536959873 2.5
    vertex 100.3478998424727 221.76000536959873 5.0
    vertex 75.3478998424727 221.76000536959873 2.5
  endloop
endfacet
facet normal 0.0 -1.0 0.0
  outer loop
    vertex 75.3478998424727 221.76000536959873 2.5
    vertex 100.3478998424727 221.76000536959873 5.0
    vertex 75.3478998424727 221.76000536959873 5.0
  endloop
endfacet
facet normal 0.8422714006615118 -1.9038668884161025e-18 -0.5390536964233665
  outer loop
    vertex 98.7478998424727 245.16000536959874 0.0
    vertex 100.3478998424727 221.76000536959873 2.5
    vertex 98.7478998424727 221.76000536959873 0.0
  endloop
endfacet
facet normal 0.8422714006615118 -1.9038668884161025e-18 -0.5390536964233665
  outer loop
    vertex 100.3478998424727 221.76000536959873 2.5
    vertex 98.7478998424727 245.16000536959874 0.0
    vertex 100.3478998424727 246.76000536959873 2.5
  endloop
endfacet
facet normal -1.2966480480477626e-18 0.8422714006615117 -0.5390536964233665
  outer loop
    vertex 75.3478998424727 246.76000536959873 2.5
    vertex 98.7478998424727 245.16000536959874 0.0
    vertex 75.3478998424727 245.16000536959874 0.0
  endloop
endfacet
facet normal -1.2966480480477626e-18 0.8422714006615117 -0.5390536964233665
  outer loop
    vertex 98.7478998424727 245.16000536959874 0.0
    vertex 75.3478998424727 246.76000536959873 2.5
    vertex 100.3478998424727 246.76000536959873 2.5
  endloop
endfacet
facet normal 0.0 -0.8574929257125412 0.5144957554275316
  outer loop
    vertex 96.7478998424727 221.76000536959873 2.5
    vertex 73.8478998424727 220.2600053695987 0.0
    vertex 96.7478998424727 220.2600053695987 0.0
  endloop
endfacet
facet normal 0.0 -0.8574929257125412 0.5144957554275316
  outer loop
    vertex 73.8478998424727 220.2600053695987 0.0
    vertex 96.7478998424727 221.76000536959873 2.5
    vertex 75.3478998424727 221.76000536959873 2.5
  endloop
endfacet
facet normal -0.8574929257125447 -6.628614364023233e-19 0.5144957554275259
  outer loop
    vertex 75.3478998424727 221.76000536959873 2.5
    vertex 73.8478998424727 243.16000536959874 0.0
    vertex 73.8478998424727 220.2600053695987 0.0
  endloop
endfacet
facet normal -0.8574929257125447 -6.628614364023233e-19 0.5144957554275259
  outer loop
    vertex 73.8478998424727 243.16000536959874 0.0
    vertex 75.3478998424727 221.76000536959873 2.5
    vertex 75.3478998424727 243.16000536959874 2.5
  endloop
endfacet
facet normal 0.0 0.0 1.0
  outer loop
    vertex 84.4687147166198 224.88868399597857 5.49999999999999
    vertex 82.89080544640284 227.7486445482468 5.49999999999999
    vertex 82.50619006178745 224.0997293608701 5.49999999999999
  endloop
endfacet
facet normal 0.0 0.0 1.0
  outer loop
    vertex 93.31486856277364 224.46462087960776 5.49999999999999
    vertex 91.17482911504189 227.7486445482468 5.49999999999999
    vertex 91.17482911504189 224.46462087960776 5.49999999999999
  endloop
endfacet
facet normal 0.0 0.0 1.0
  outer loop
    vertex 91.17482911504189 227.7486445482468 5.49999999999999
    vertex 93.31486856277364 224.46462087960776 5.49999999999999
    vertex 91.17482911504189 230.21412778296082 5.49999999999999
  endloop
endfacet
facet normal 0.0 0.0 1.0
  outer loop
    vertex 91.17482911504189 230.21412778296082 5.49999999999999
    vertex 93.31486856277364 224.46462087960776 5.49999999999999
    vertex 91.17482911504189 233.04450253641247 5.49999999999999
  endloop
endfacet
facet normal 0.0 0.0 1.0
  outer loop
    vertex 91.17482911504189 233.04450253641247 5.49999999999999
    vertex 93.31486856277364 224.46462087960776 5.49999999999999
    vertex 93.31486856277364 233.04450253641247 5.49999999999999
  endloop
endfacet
facet normal 0.0 0.0 1.0
  outer loop
    vertex 82.50619006178745 224.0997293608701 5.49999999999999
    vertex 80.34642674817798 230.21412778296082 5.49999999999999
    vertex 80.34642674817798 228.19243153049533 5.49999999999999
  endloop
endfacet
facet normal 0.0 0.0 1.0
  outer loop
    vertex 80.34642674817798 230.21412778296082 5.49999999999999
    vertex 82.50619006178745 224.0997293608701 5.49999999999999
    vertex 82.89080544640284 227.7486445482468 5.49999999999999
  endloop
endfacet
facet normal 0.0 0.0 1.0
  outer loop
    vertex 80.34642674817798 230.21412778296082 5.49999999999999
    vertex 82.89080544640284 227.7486445482468 5.49999999999999
    vertex 91.17482911504189 230.21412778296082 5.49999999999999
  endloop
endfacet
facet normal 0.0 0.0 1.0
  outer loop
    vertex 91.17482911504189 230.21412778296082 5.49999999999999
    vertex 82.89080544640284 227.7486445482468 5.49999999999999
    vertex 91.17482911504189 227.7486445482468 5.49999999999999
  endloop
endfacet
facet normal 0.0 1.0 0.0
  outer loop
    vertex 91.17482911504189 233.04450253641247 5.49999999999999
    vertex 93.31486856277364 233.04450253641247 4.999999999999991
    vertex 91.17482911504189 233.04450253641247 4.999999999999991
  endloop
endfacet
facet normal 0.0 1.0 0.0
  outer loop
    vertex 93.31486856277364 233.04450253641247 4.999999999999991
    vertex 91.17482911504189 233.04450253641247 5.49999999999999
    vertex 93.31486856277364 233.04450253641247 5.49999999999999
  endloop
endfacet
facet normal -1.0 -0.0 -0.0
  outer loop
    vertex 91.17482911504189 233.04450253641247 5.49999999999999
    vertex 91.17482911504189 230.21412778296082 4.999999999999991
    vertex 91.17482911504189 230.21412778296082 5.49999999999999
  endloop
endfacet
facet normal -1.0 -0.0 -0.0
  outer loop
    vertex 91.17482911504189 230.21412778296082 4.999999999999991
    vertex 91.17482911504189 233.04450253641247 5.49999999999999
    vertex 91.17482911504189 233.04450253641247 4.999999999999991
  endloop
endfacet
facet normal 0.0 1.0 0.0
  outer loop
    vertex 80.34642674817798 230.21412778296082 5.49999999999999
    vertex 91.17482911504189 230.21412778296082 4.999999999999991
    vertex 80.34642674817798 230.21412778296082 4.999999999999991
  endloop
endfacet
facet normal 0.0 1.0 0.0
  outer loop
    vertex 91.17482911504189 230.21412778296082 4.999999999999991
    vertex 80.34642674817798 230.21412778296082 5.49999999999999
    vertex 91.17482911504189 230.21412778296082 5.49999999999999
  endloop
endfacet
facet normal -1.0 -0.0 -0.0
  outer loop
    vertex 80.34642674817798 230.21412778296082 5.49999999999999
    vertex 80.34642674817798 228.19243153049533 4.999999999999991
    vertex 80.34642674817798 228.19243153049533 5.49999999999999
  endloop
endfacet
facet normal -1.0 -0.0 -0.0
  outer loop
    vertex 80.34642674817798 228.19243153049533 4.999999999999991
    vertex 80.34642674817798 230.21412778296082 5.49999999999999
    vertex 80.34642674817798 230.21412778296082 4.999999999999991
  endloop
endfacet
facet normal -0.8844091879796158 -0.4667123184759929 -0.0
  outer loop
    vertex 80.34642674817798 228.19243153049533 5.49999999999999
    vertex 82.50619006178745 224.0997293608701 4.999999999999991
    vertex 82.50619006178745 224.0997293608701 5.49999999999999
  endloop
endfacet
facet normal -0.8844091879796158 -0.4667123184759929 -0.0
  outer loop
    vertex 82.50619006178745 224.0997293608701 4.999999999999991
    vertex 80.34642674817798 228.19243153049533 5.49999999999999
    vertex 80.34642674817798 228.19243153049533 4.999999999999991
  endloop
endfacet
facet normal 0.3729978689934986 -0.9278321991213222 0.0
  outer loop
    vertex 84.4687147166198 224.88868399597857 5.49999999999999
    vertex 82.50619006178745 224.0997293608701 4.999999999999991
    vertex 84.4687147166198 224.88868399597857 4.999999999999991
  endloop
endfacet
facet normal 0.3729978689934986 -0.9278321991213222 0.0
  outer loop
    vertex 82.50619006178745 224.0997293608701 4.999999999999991
    vertex 84.4687147166198 224.88868399597857 5.49999999999999
    vertex 82.50619006178745 224.0997293608701 5.49999999999999
  endloop
endfacet
facet normal 0.8755776840267928 0.4830773429113372 0.0
  outer loop
    vertex 82.89080544640284 227.7486445482468 4.999999999999991
    vertex 84.4687147166198 224.88868399597857 5.49999999999999
    vertex 84.4687147166198 224.88868399597857 4.999999999999991
  endloop
endfacet
facet normal 0.8755776840267928 0.4830773429113372 0.0
  outer loop
    vertex 84.4687147166198 224.88868399597857 5.49999999999999
    vertex 82.89080544640284 227.7486445482468 4.999999999999991
    vertex 82.89080544640284 227.7486445482468 5.49999999999999
  endloop
endfacet
facet normal 0.0 -1.0 0.0
  outer loop
    vertex 91.17482911504189 227.7486445482468 5.49999999999999
    vertex 82.89080544640284 227.7486445482468 4.999999999999991
    vertex 91.17482911504189 227.7486445482468 4.999999999999991
  endloop
endfacet
facet normal 0.0 -1.0 0.0
  outer loop
    vertex 82.89080544640284 227.7486445482468 4.999999999999991
    vertex 91.17482911504189 227.7486445482468 5.49999999999999
    vertex 82.89080544640284 227.7486445482468 5.49999999999999
  endloop
endfacet
facet normal -1.0 -0.0 -0.0
  outer loop
    vertex 91.17482911504189 227.7486445482468 5.49999999999999
    vertex 91.17482911504189 224.46462087960776 4.999999999999991
    vertex 91.17482911504189 224.46462087960776 5.49999999999999
  endloop
endfacet
facet normal -1.0 -0.0 -0.0
  outer loop
    vertex 91.17482911504189 224.46462087960776 4.999999999999991
    vertex 91.17482911504189 227.7486445482468 5.49999999999999
    vertex 91.17482911504189 227.7486445482468 4.999999999999991
  endloop
endfacet
facet normal 0.0 -1.0 0.0
  outer loop
    vertex 93.31486856277364 224.46462087960776 5.49999999999999
    vertex 91.17482911504189 224.46462087960776 4.999999999999991
    vertex 93.31486856277364 224.46462087960776 4.999999999999991
  endloop
endfacet
facet normal 0.0 -1.0 0.0
  outer loop
    vertex 91.17482911504189 224.46462087960776 4.999999999999991
    vertex 93.31486856277364 224.46462087960776 5.49999999999999
    vertex 91.17482911504189 224.46462087960776 5.49999999999999
  endloop
endfacet
facet normal 1.0 0.0 0.0
  outer loop
    vertex 93.31486856277364 233.04450253641247 4.999999999999991
    vertex 93.31486856277364 224.46462087960776 5.49999999999999
    vertex 93.31486856277364 224.46462087960776 4.999999999999991
  endloop
endfacet
facet normal 1.0 0.0 0.0
  outer loop
    vertex 93.31486856277364 224.46462087960776 5.49999999999999
    vertex 93.31486856277364 233.04450253641247 4.999999999999991
    vertex 93.31486856277364 233.04450253641247 5.49999999999999
  endloop
endfacet
facet normal 0.0 1.0 0.0
  outer loop
    vertex 75.3478998424727 243.16000536959874 2.5
    vertex 75.3478998424727 243.16000536959874 0.0
    vertex 73.8478998424727 243.16000536959874 0.0
  endloop
endfacet
facet normal -1.0 0.0 0.0
  outer loop
    vertex 75.3478998424727 246.76000536959873 5.0
    vertex 75.3478998424727 221.76000536959873 2.5
    vertex 75.3478998424727 221.76000536959873 5.0
  endloop
endfacet
facet normal -1.0 0.0 0.0
  outer loop
    vertex 75.3478998424727 221.76000536959873 2.5
    vertex 75.3478998424727 246.76000536959873 5.0
    vertex 75.3478998424727 243.16000536959874 2.5
  endloop
endfacet
facet normal -1.0 0.0 0.0
  outer loop
    vertex 75.3478998424727 243.16000536959874 2.5
    vertex 75.3478998424727 246.76000536959873 5.0
    vertex 75.3478998424727 243.16000536959874 0.0
  endloop
endfacet
facet normal -1.0 0.0 0.0
  outer loop
    vertex 75.3478998424727 243.16000536959874 0.0
    vertex 75.3478998424727 246.76000536959873 5.0
    vertex 75.3478998424727 245.16000536959874 0.0
  endloop
endfacet
facet normal -1.0 0.0 0.0
  outer loop
    vertex 75.3478998424727 245.16000536959874 0.0
    vertex 75.3478998424727 246.76000536959873 5.0
    vertex 75.3478998424727 246.76000536959873 2.5
  endloop
endfacet
facet normal 1.0 0.0 0.0
  outer loop
    vertex 96.7478998424727 221.76000536959873 2.5
    vertex 96.7478998424727 220.2600053695987 0.0
    vertex 96.7478998424727 221.76000536959873 0.0
  endloop
endfacet
facet normal 0.0 0.0 -1.0
  outer loop
    vertex 98.7478998424727 245.16000536959874 0.0
    vertex 75.3478998424727 243.16000536959874 0.0
    vertex 75.3478998424727 245.16000536959874 0.0
  endloop
endfacet
facet normal 0.0 0.0 -1.0
  outer loop
    vertex 75.3478998424727 243.16000536959874 0.0
    vertex 98.7478998424727 245.16000536959874 0.0
    vertex 96.7478998424727 221.76000536959873 0.0
  endloop
endfacet
facet normal 0.0 0.0 -1.0
  outer loop
    vertex 96.7478998424727 221.76000536959873 0.0
    vertex 98.7478998424727 245.16000536959874 0.0
    vertex 98.7478998424727 221.76000536959873 0.0
  endloop
endfacet
facet normal 0.0 0.0 -1.0
  outer loop
    vertex 75.3478998424727 243.16000536959874 0.0
    vertex 73.8478998424727 220.2600053695987 0.0
    vertex 73.8478998424727 243.16000536959874 0.0
  endloop
endfacet
facet normal 0.0 0.0 -1.0
  outer loop
    vertex 73.8478998424727 220.2600053695987 0.0
    vertex 75.3478998424727 243.16000536959874 0.0
    vertex 96.7478998424727 220.2600053695987 0.0
  endloop
endfacet
facet normal 0.0 0.0 -1.0
  outer loop
    vertex 96.7478998424727 220.2600053695987 0.0
    vertex 75.3478998424727 243.16000536959874 0.0
    vertex 96.7478998424727 221.76000536959873 0.0
  endloop
endfacet
endsolid puzzle 2.1 (1)
